<?xml version="1.0" encoding="utf-8"?>
<!-- Generator: Adobe Illustrator 24.1.1, SVG Export Plug-In . SVG Version: 6.00 Build 0)  -->
<svg version="1.1" id="Layer_1" xmlns="http://www.w3.org/2000/svg" xmlns:xlink="http://www.w3.org/1999/xlink" x="0px" y="0px"
	 viewBox="0 0 512 512" style="enable-background:new 0 0 512 512;" xml:space="preserve">
<style type="text/css">
	.st0{fill:#ED3784;}
</style>
<g>
	<path class="st0" d="M377,68.4c-0.4,0-0.7-0.2-1.1-0.2h-163c-25.1,0-45.5,20.4-45.5,45.5v15.2c0,8.4,6.8,15.2,15.2,15.2
		s15.2-6.8,15.2-15.2v-15.2c0-8.4,6.8-15.2,15.2-15.2h70.7l-4.6,1.5c-12.3,4.2-20.5,15.8-20.5,28.8v227.5h-45.5
		c-8.4,0-15.2-6.8-15.2-15.2v-30.3c0-8.4-6.8-15.2-15.2-15.2s-15.2,6.8-15.2,15.2v30.3c0,25.1,20.4,45.5,45.5,45.5h45.5v15.2
		c0,16.7,13.6,30.3,30.3,30.3c3.2,0,6.3-0.5,9.7-1.5l91.1-30.4c12.3-4.2,20.6-15.8,20.6-28.8v-273C410,80.8,394.8,67,377,68.4
		L377,68.4z"/>
	<path class="st0" d="M208.4,209.1l-60.7-60.7c-4.3-4.3-10.9-5.6-16.5-3.3c-5.7,2.4-9.4,7.9-9.4,14v45.5H61.2
		c-8.4,0-15.2,6.8-15.2,15.2c0,8.4,6.8,15.2,15.2,15.2h60.7v45.5c0,6.1,3.7,11.7,9.4,14c5.7,2.4,12.2,1,16.5-3.3l60.7-60.7
		C214.3,224.6,214.3,215.1,208.4,209.1L208.4,209.1z"/>
</g>
</svg>
