<?xml version="1.0" encoding="utf-8"?>
<!-- Generator: Adobe Illustrator 24.1.1, SVG Export Plug-In . SVG Version: 6.00 Build 0)  -->
<svg version="1.1" id="Layer_1" xmlns="http://www.w3.org/2000/svg" xmlns:xlink="http://www.w3.org/1999/xlink" x="0px" y="0px"
	 viewBox="0 0 512 512" style="enable-background:new 0 0 512 512;" xml:space="preserve">
<style type="text/css">
	.st0{fill-rule:evenodd;clip-rule:evenodd;fill:#2E314C;}
	.st1{fill-rule:evenodd;clip-rule:evenodd;fill:#ED3784;}
	.st2{fill-rule:evenodd;clip-rule:evenodd;fill:#FFFFFF;}
</style>
<path class="st0" d="M253,406.7V279.3c0-13.2-10.7-23.9-23.9-23.9H85.9c-13.2,0-23.9,10.7-23.9,23.9v127.4
	c0,13.2,10.7,23.9,23.9,23.9h143.3C242.3,430.6,253,419.9,253,406.7z M178,414.7l-38.8-38.8c-1.5-1.5-3.5-2.3-5.6-2.3
	c-2.1,0-4.1,0.8-5.6,2.3l-38.8,38.8L178,414.7z M236.7,409.1l-33.5-33.5c-1.5-1.5-3.5-2.3-5.6-2.3c-2.1,0-4.1,0.8-5.6,2.3
	l-15.3,15.3l23.7,23.7h28.7C232.7,414.7,235.7,412.3,236.7,409.1L236.7,409.1z M237.1,387V279.3c0-4.4-3.6-8-8-8H85.9
	c-4.4,0-8,3.6-8,8v124.1l38.8-38.8c4.5-4.5,10.6-7,16.9-7c6.3,0,12.4,2.5,16.9,7l15,15l15.3-15.3c4.5-4.5,10.6-7,16.9-7
	c6.3,0,12.4,2.5,16.9,7L237.1,387z M133.6,351c17.6,0,31.8-14.3,31.8-31.8c0-17.6-14.3-31.8-31.8-31.8c-17.6,0-31.8,14.3-31.8,31.8
	C101.8,336.7,116.1,351,133.6,351z M133.6,335c-8.8,0-15.9-7.1-15.9-15.9c0-8.8,7.1-15.9,15.9-15.9c8.8,0,15.9,7.1,15.9,15.9
	C149.6,327.9,142.4,335,133.6,335z M356.5,88.3c0-13.2-10.7-23.9-23.9-23.9H189.4c-13.2,0-23.9,10.7-23.9,23.9v127.4
	c0,13.2,10.7,23.9,23.9,23.9h95.5c2.1,0,4.1-0.8,5.6-2.3l63.7-63.7c1.5-1.5,2.3-3.5,2.3-5.6V88.3z M340.6,159.9V88.3
	c0-4.4-3.6-8-8-8c0,0-143.3,0-143.3,0c-4.4,0-8,3.6-8,8v127.4c0,4.4,3.6,8,8,8h87.6v-39.8c0-13.2,10.7-23.9,23.9-23.9H340.6z
	 M329.3,175.8h-28.5c-4.4,0-8,3.6-8,8v28.5l18.3-18.2L329.3,175.8z M205.3,175.8H253c4.4,0,8-3.6,8-8c0-4.4-3.6-8-8-8h-47.8
	c-4.4,0-8,3.6-8,8C197.3,172.3,200.9,175.8,205.3,175.8z M205.3,144h111.4c4.4,0,8-3.6,8-8c0-4.4-3.6-8-8-8H205.3c-4.4,0-8,3.6-8,8
	C197.3,140.4,200.9,144,205.3,144z M205.3,112.2h111.4c4.4,0,8-3.6,8-8c0-4.4-3.6-8-8-8H205.3c-4.4,0-8,3.6-8,8
	C197.3,108.6,200.9,112.2,205.3,112.2z"/>
<path class="st1" d="M408.5,336.3l-63.7-39.8c-2.5-1.5-5.5-1.6-8.1-0.2c-2.5,1.4-4.1,4.1-4.1,7v79.6c0,2.9,1.6,5.6,4.1,7
	c2.5,1.4,5.6,1.3,8.1-0.2l63.7-39.8c2.3-1.4,3.7-4,3.7-6.8C412.2,340.3,410.8,337.7,408.5,336.3z M348.6,368.5v-50.9l40.7,25.4
	L348.6,368.5z"/>
<path class="st1" d="M436.1,255.5H292.8c-13.2,0-23.9,10.7-23.9,23.9v127.4c0,13.2,10.7,23.9,23.9,23.9h143.3
	c13.2,0,23.9-10.7,23.9-23.9V279.3C460,266.1,449.3,255.5,436.1,255.5z M444.1,406.7c0,4.4-3.6,8-8,8H292.8c-4.4,0-8-3.6-8-8V279.3
	c0-4.4,3.6-8,8-8h143.3c4.4,0,8,3.6,8,8V406.7z"/>
<path class="st2" d="M408.5,336.3l-63.7-39.8c-2.5-1.5-5.5-1.6-8.1-0.2c-2.5,1.4-4.1,4.1-4.1,7v79.6c0,2.9,1.6,5.6,4.1,7
	c2.5,1.4,5.6,1.3,8.1-0.2l63.7-39.8c2.3-1.4,3.7-4,3.7-6.8C412.2,340.3,410.8,337.7,408.5,336.3z M348.6,368.5v-50.9l40.7,25.4
	L348.6,368.5z"/>
<path class="st1" d="M408.5,336.3l-63.7-39.8c-2.5-1.5-5.5-1.6-8.1-0.2c-2.5,1.4-4.1,4.1-4.1,7v79.6c0,2.9,1.6,5.6,4.1,7
	c2.5,1.4,5.6,1.3,8.1-0.2l63.7-39.8c2.3-1.4,3.7-4,3.7-6.8C412.2,340.3,410.8,337.7,408.5,336.3z M348.6,368.5v-50.9l40.7,25.4
	L348.6,368.5z"/>
</svg>
