<?xml version="1.0" encoding="utf-8"?>
<!-- Generator: Adobe Illustrator 24.1.1, SVG Export Plug-In . SVG Version: 6.00 Build 0)  -->
<svg version="1.1" id="Layer_1" xmlns="http://www.w3.org/2000/svg" xmlns:xlink="http://www.w3.org/1999/xlink" x="0px" y="0px"
	 viewBox="0 0 512 512" style="enable-background:new 0 0 512 512;" xml:space="preserve">
<style type="text/css">
	.st0{fill:#2E314C;}
	.st1{fill:#ED3784;}
</style>
<g>
	<path class="st0" d="M291.2,414.6h-14.1v-69.1c0-3.9-3.2-7-7-7s-7,3.2-7,7v69.1H79.8v-141h58.6c3.9,0,7-3.2,7-7c0-3.9-3.2-7-7-7
		H72.7c-3.9,0-7,3.2-7,7v148H51.6c-3.9,0-7,3.2-7,7v14.1c0,19.5,15.8,35.2,35.2,35.2H263c19.5,0,35.2-15.8,35.2-35.2v-14.1
		C298.3,417.8,295.1,414.6,291.2,414.6z M284.2,435.8c0,11.7-9.5,21.1-21.1,21.1H249v-7c0-3.9-3.2-7-7-7c-3.9,0-7,3.2-7,7v7H108v-7
		c0-3.9-3.2-7-7-7s-7,3.2-7,7v7H79.8c-11.7,0-21.1-9.5-21.1-21.1v-7h225.6V435.8z"/>
	<path class="st1" d="M411.1,90.3h14.1c3.9,0,7-3.2,7-7s-3.2-7-7-7h-14.1c-11.7,0-21.1,9.5-21.1,21.1v7h-7c-3.9,0-7,3.2-7,7
		s3.2,7,7,7h7v21.1c0,3.9,3.2,7,7,7s7-3.2,7-7v-21.1h7c3.9,0,7-3.2,7-7s-3.2-7-7-7h-7v-7C404,93.5,407.2,90.3,411.1,90.3z"/>
	<path class="st1" d="M446.3,48h-84.6c-11.7,0-21.1,9.5-21.1,21.1v14.1c0,3.9,3.2,7,7,7s7-3.2,7-7V69.2c0-3.9,3.2-7,7-7h84.6
		c3.9,0,7,3.2,7,7v84.6c0,3.9-3.2,7-7,7h-84.6c-3.9,0-7-3.2-7-7v-42.3c0-3.9-3.2-7-7-7s-7,3.2-7,7v42.3c0,11.7,9.5,21.1,21.1,21.1
		h84.6c11.7,0,21.1-9.5,21.1-21.1V69.2C467.5,57.5,458,48,446.3,48z"/>
	<path class="st1" d="M375.8,330c0,15.6,12.6,28.2,28.2,28.2s28.2-12.6,28.2-28.2s-12.6-28.2-28.2-28.2S375.8,314.4,375.8,330z
		 M418.1,330c0,7.8-6.3,14.1-14.1,14.1c-7.8,0-14.1-6.3-14.1-14.1c0-7.8,6.3-14.1,14.1-14.1C411.8,315.9,418.1,322.2,418.1,330z"/>
	<path class="st1" d="M446.3,266.6h-84.6c-11.7,0-21.1,9.5-21.1,21.1v84.6c0,11.7,9.5,21.1,21.1,21.1h84.6
		c11.7,0,21.1-9.5,21.1-21.1v-14.1c0-3.9-3.2-7-7-7c-3.9,0-7,3.2-7,7v14.1c0,3.9-3.2,7-7,7h-84.6c-3.9,0-7-3.2-7-7v-84.6
		c0-3.9,3.2-7,7-7h84.6c3.9,0,7,3.2,7,7V330c0,3.9,3.2,7,7,7c3.9,0,7-3.2,7-7v-42.3C467.5,276,458,266.6,446.3,266.6z"/>
	<path class="st1" d="M202.9,131.6c1.1,0.7,2.4,1.1,3.7,1.1c1.1,0,2.2-0.3,3.2-0.8l42.3-21.1c3.5-1.8,4.8-6,3.1-9.5
		c-0.7-1.3-1.7-2.4-3.1-3.1L209.8,77c-3.5-1.8-7.7-0.4-9.5,3.1c-0.5,1-0.8,2.1-0.8,3.2v42.3C199.6,128,200.9,130.3,202.9,131.6z
		 M213.7,94.7l19.5,9.7l-19.5,9.7V94.7z"/>
	<path class="st1" d="M220.8,167.9c35,0,63.4-28.4,63.4-63.4S255.8,41,220.8,41s-63.4,28.4-63.4,63.4S185.7,167.9,220.8,167.9z
		 M220.8,55.1c27.3,0,49.3,22.1,49.3,49.3s-22.1,49.3-49.3,49.3s-49.3-22.1-49.3-49.3S193.5,55.1,220.8,55.1z"/>
	<path class="st0" d="M291.2,196.1c2.2,0,4.3-1,5.6-2.8l21.1-28.2c2.3-3.1,1.7-7.5-1.4-9.9c-3.1-2.3-7.5-1.7-9.9,1.4l-21.1,28.2
		c-2.3,3.1-1.7,7.5,1.4,9.9C288.2,195.6,289.7,196.1,291.2,196.1z"/>
	<path class="st0" d="M306.8,221.5c1.3,1.8,3.4,2.8,5.6,2.8c1.5,0,3-0.5,4.2-1.4l28.2-21.1c3.1-2.3,3.7-6.8,1.4-9.9
		c-2.3-3.1-6.8-3.7-9.9-1.4l-28.2,21.1C305,213.9,304.4,218.3,306.8,221.5L306.8,221.5z"/>
	<path class="st0" d="M375.8,237c-0.7-3.8-4.4-6.4-8.2-5.7c-0.1,0-0.2,0-0.3,0.1l-35.2,7c-3.9,0.4-6.7,3.9-6.3,7.8
		c0.4,3.9,3.9,6.7,7.8,6.3h1.4l35.2-7c3.8-0.7,6.4-4.4,5.7-8.2C375.9,237.2,375.9,237.1,375.8,237z"/>
	<path class="st0" d="M51.6,238.4h84.6c3.9,0,7-3.2,7-7V118.5c0-3.9-3.2-7-7-7H51.6c-3.9,0-7,3.2-7,7v112.8
		C44.5,235.2,47.7,238.4,51.6,238.4z M58.6,125.6h70.5v98.7H58.6V125.6z"/>
	<path class="st0" d="M108,139.7H93.9c-3.9,0-7,3.2-7,7s3.2,7,7,7H108c3.9,0,7-3.2,7-7S111.9,139.7,108,139.7z"/>
	<path class="st0" d="M108,167.9H79.8c-3.9,0-7,3.2-7,7c0,3.9,3.2,7,7,7H108c3.9,0,7-3.2,7-7C115,171,111.9,167.9,108,167.9z"/>
	<path class="st0" d="M108,196.1H79.8c-3.9,0-7,3.2-7,7c0,3.9,3.2,7,7,7H108c3.9,0,7-3.2,7-7C115,199.2,111.9,196.1,108,196.1z"/>
	<path class="st0" d="M285,236.3c-1.9-3.4-6.3-4.6-9.7-2.6c-3.4,1.9-4.6,6.3-2.6,9.7l31.1,53.8l-112.8,42.3c0,0,0,0-0.5,0H190
		L171.7,350l-12.2,7c-3.2,1.9-7.1,2.4-10.7,1.4c-3.6-1-6.7-3.3-8.5-6.6l-14.1-24.4c-3.4-6.6-1.1-14.8,5.3-18.6l24.4-14.1l17.6,30.5
		c1.3,2.2,3.6,3.5,6.1,3.5c3.9,0,7.1-3.1,7.1-7c0-1.2-0.3-2.5-0.9-3.6l-18.2-31.4l88.5-73l2.9,5c1.9,3.4,6.3,4.6,9.7,2.6
		s4.6-6.3,2.6-9.7l-7-12.2c-1-1.8-2.8-3-4.9-3.4c-2.1-0.4-4.2,0.2-5.8,1.5l-98.7,81.3l-30,17.3c-11.1,6.5-16.4,19.6-13,31.9l-7,4
		c-10.1,5.8-13.6,18.7-7.8,28.9c2.8,4.9,7.4,8.4,12.9,9.9c1.8,0.5,3.6,0.7,5.5,0.7c3.7,0,7.4-1,10.6-2.8l7-4c3.4,3.5,7.6,6,12.3,7.3
		c2.4,0.7,4.9,1,7.4,1c5,0,9.8-1.3,14.1-3.8l6.1-3.5l14.1,24.5c5.8,10.1,18.7,13.6,28.8,7.8c10.1-5.8,13.6-18.8,7.8-28.9
		c0,0,0,0,0,0l-12.8-22.3l105.7-39.7c1.9-0.7,3.5-2.3,4.2-4.2c0.7-1.9,0.5-4.1-0.5-5.9L285,236.3z M118.5,356.7
		c-1.6,0.9-3.5,1.2-5.4,0.7c-1.8-0.5-3.4-1.6-4.3-3.2c-0.9-1.6-1.2-3.5-0.7-5.4c0.5-1.8,1.7-3.4,3.3-4.3l6.1-3.5l7,12.2L118.5,356.7
		z M211.3,376.5c0.9,1.6,1.2,3.5,0.7,5.4c-0.5,1.8-1.7,3.3-3.3,4.2c-3.4,1.9-7.6,0.8-9.6-2.5L185,359.1l11.7-6.7h0.6L211.3,376.5z"
		/>
</g>
</svg>
