<?xml version="1.0" encoding="utf-8"?>
<!-- Generator: Adobe Illustrator 24.1.1, SVG Export Plug-In . SVG Version: 6.00 Build 0)  -->
<svg version="1.1" id="Layer_1" xmlns="http://www.w3.org/2000/svg" xmlns:xlink="http://www.w3.org/1999/xlink" x="0px" y="0px"
	 viewBox="0 0 512 512" style="enable-background:new 0 0 512 512;" xml:space="preserve">
<style type="text/css">
	.st0{fill:#2E314C;}
	.st1{fill:#ED3784;}
</style>
<g>
	<g>
		<circle class="st0" cx="78.5" cy="97.2" r="9.5"/>
		<circle class="st0" cx="114.8" cy="97.2" r="9.5"/>
		<circle class="st0" cx="151" cy="97.2" r="9.5"/>
		<path class="st0" d="M488.8,439.6c-2.7-2.7-5.9-4.7-9.5-5.9c0-5-2-10-5.6-13.6L431,377.4c14.6-21.9,22.5-47.6,22.5-74.6
			c0-36-14-69.8-39.4-95.2c-25.4-25.4-59.2-39.4-95.2-39.4s-69.8,14-95.2,39.4c-25.4,25.4-39.4,59.2-39.4,95.2
			c0,17.1,3.1,33.6,9.2,49.1H56.2c-6.1,0-11-4.9-11-11V133.6h388.3v68.2c0,3.7,3,6.6,6.6,6.6s6.6-3,6.6-6.6V81.1
			c0-13.4-10.9-24.2-24.2-24.2H168.9c-3.7,0-6.6,3-6.6,6.6s3,6.6,6.6,6.6h253.5c6.1,0,11,4.9,11,11v39.3H45.2V81.1
			c0-6.1,4.9-11,11-11h78.9c3.7,0,6.6-3,6.6-6.6c0-3.7-3-6.6-6.6-6.6H56.2C42.9,56.9,32,67.7,32,81.1v259.8
			c0,13.4,10.9,24.2,24.2,24.2h143.2c6.3,12,14.4,23.1,24.2,32.9c25.4,25.4,59.2,39.4,95.2,39.4c26.1,0,51-7.4,72.5-21.1l43.1,43.1
			C438,463,443,465,448,465c1.2,3.6,3.2,6.8,5.9,9.5c9.5,9.9,26.8,9.5,35.8-1C498.4,464,498,448.7,488.8,439.6L488.8,439.6z
			 M233,388.7c-22.9-22.9-35.5-53.4-35.5-85.9s12.6-63,35.5-85.9c22.9-22.9,53.4-35.6,85.9-35.6c32.4,0,62.9,12.6,85.9,35.6
			c22.9,22.9,35.5,53.4,35.5,85.9s-12.6,63-35.5,85.9c-22.9,22.9-53.4,35.6-85.9,35.6S255.9,411.6,233,388.7z M479.9,464.8
			c-4.2,4.9-12.2,5.1-16.6,0.5c-1.8-1.8-2.9-4.1-3.2-6.6c-0.5-4.9-5.7-8.3-10.4-7c-2.1,0.6-4.3,0-5.9-1.6l-41.5-41.5
			c7.6-6,14.6-12.9,20.8-20.4l41.3,41.3c1.5,1.5,2.1,3.7,1.6,5.9c-1.3,4.7,2.1,9.9,7,10.4c2.5,0.3,4.8,1.4,6.6,3.2
			C483.7,453.2,483.9,460.3,479.9,464.8L479.9,464.8z"/>
		<path class="st1" d="M395.3,226.4c-20.4-20.4-47.5-31.6-76.4-31.6c-28.9,0-56,11.2-76.4,31.6s-31.6,47.5-31.6,76.4
			s11.2,56,31.6,76.4c11.9,11.9,26,20.7,41.8,26c3.5,1.2,7.2-0.7,8.4-4.2c1.2-3.5-0.7-7.2-4.2-8.4c-13.9-4.7-26.2-12.4-36.7-22.8
			C233.9,352,224,328.2,224,302.8s9.9-49.1,27.8-67.1s41.7-27.8,67.1-27.8s49.1,9.9,67.1,27.8c37,37,37,97.1,0,134.1
			c-17.9,17.9-41.7,27.8-67.1,27.8c-3.7,0-6.6,3-6.6,6.6s3,6.6,6.6,6.6c28.9,0,56-11.2,76.4-31.6
			C437.4,337.1,437.4,268.6,395.3,226.4L395.3,226.4z"/>
		<path class="st1" d="M328.8,328.7c0-3.7-3-6.6-6.6-6.6H307v-12.6h13.6c3.7,0,6.6-3,6.6-6.6c0-3.7-3-6.6-6.6-6.6H307v-12.6h15.2
			c3.7,0,6.6-3,6.6-6.6s-3-6.6-6.6-6.6h-21.8c-3.7,0-6.6,3-6.6,6.6v51.7c0,3.7,3,6.6,6.6,6.6h21.8
			C325.8,335.3,328.8,332.3,328.8,328.7L328.8,328.7z"/>
		<path class="st1" d="M259.4,322.3c-5.2,0-10.1-2.1-13.3-5.6c-2.5-2.7-6.6-2.9-9.3-0.5c-2.7,2.5-2.9,6.6-0.5,9.3
			c5.6,6.2,14.3,9.9,23.1,9.9c11,0,20.3-7,22-16.8c1.3-7.3-2-16.9-15.2-21.7c-6.4-2.4-12.3-4.9-14.2-5.7c-1.4-1.1-1.3-2.7-1.2-3.3
			c0.1-0.9,0.8-3.1,4.1-4.1c7.3-2.2,14.1,3.1,14.3,3.3c2.8,2.3,6.9,1.9,9.3-0.8c2.3-2.8,2-7-0.8-9.3c-0.5-0.4-12.3-10.1-26.6-5.8
			c-7.2,2.2-12.4,7.9-13.4,14.9c-1,6.9,2.2,13.7,8.4,17c0.3,0.1,7.5,3.3,15.6,6.3c2.3,0.8,7.5,3.2,6.8,7
			C268,319.3,264.4,322.3,259.4,322.3L259.4,322.3z"/>
		<path class="st1" d="M403.5,302.8c0-18-14.7-32.7-32.7-32.7c-18,0-32.7,14.7-32.7,32.7c0,18,14.7,32.7,32.7,32.7
			C388.8,335.5,403.5,320.9,403.5,302.8z M351.3,302.8c0-10.7,8.7-19.5,19.5-19.5c10.7,0,19.5,8.7,19.5,19.5
			c0,10.7-8.7,19.5-19.5,19.5C360,322.3,351.3,313.6,351.3,302.8z"/>
		<path class="st0" d="M186.1,211.1c0-34.9-28.4-63.2-63.2-63.2s-63.2,28.4-63.2,63.2s28.4,63.2,63.2,63.2S186.1,246,186.1,211.1z
			 M172.4,204.5h-14.2c-0.7-13.3-3.7-25.7-8.6-35.6C161.8,176.6,170.4,189.5,172.4,204.5z M116.2,163.6v40.9h-15.5
			C102,184.4,108.7,169.4,116.2,163.6z M116.2,217.7v40.9c-7.5-5.7-14.3-20.8-15.5-40.9H116.2z M129.5,258.6v-40.9H145
			C143.7,237.8,137,252.8,129.5,258.6z M129.5,204.5v-40.9c7.5,5.7,14.3,20.8,15.5,40.9L129.5,204.5z M96.1,168.8
			c-4.9,9.9-7.9,22.3-8.6,35.6H73.3C75.3,189.5,83.9,176.6,96.1,168.8z M73.3,217.7h14.2c0.7,13.3,3.7,25.7,8.6,35.6
			C83.9,245.6,75.3,232.7,73.3,217.7L73.3,217.7z M149.6,253.3c4.9-9.9,7.9-22.3,8.6-35.6h14.2C170.4,232.7,161.8,245.6,149.6,253.3
			z"/>
		<path class="st0" d="M167.2,304.3c0-3.7-3-6.6-6.6-6.6H73.3c-3.7,0-6.6,3-6.6,6.6c0,3.7,3,6.6,6.6,6.6h87.3
			C164.2,310.9,167.2,308,167.2,304.3z"/>
		<path class="st0" d="M73.3,326c-3.7,0-6.6,3-6.6,6.6s3,6.6,6.6,6.6h26.8c3.7,0,6.6-3,6.6-6.6s-3-6.6-6.6-6.6H73.3z"/>
	</g>
</g>
</svg>
