<?xml version="1.0" encoding="utf-8"?>
<!-- Generator: Adobe Illustrator 24.1.1, SVG Export Plug-In . SVG Version: 6.00 Build 0)  -->
<svg version="1.1" id="Layer_1" xmlns="http://www.w3.org/2000/svg" xmlns:xlink="http://www.w3.org/1999/xlink" x="0px" y="0px"
	 viewBox="0 0 512 512" style="enable-background:new 0 0 512 512;" xml:space="preserve">
<style type="text/css">
	.st0{fill:#2E314C;}
	.st1{fill:#ED3784;}
</style>
<path class="st0" d="M474.6,101.7c0-13.2-10.7-23.9-23.8-23.9c0,0,0,0,0,0h-10.4c-3.8,0-6.8,3.1-6.8,6.8c0,3.8,3.1,6.8,6.8,6.8h10.4
	c5.6,0,10.2,4.6,10.2,10.2c0,0,0,0,0,0l-0.3,198.2c0,12-9.8,21.7-21.7,21.7H72.8c-12,0-21.7-9.7-21.7-21.7V101.7
	c0-5.6,4.6-10.2,10.2-10.2H72c3.8,0,6.8-3.1,6.8-6.8c0-3.8-3.1-6.8-6.8-6.8H61.3c-13.2,0-23.9,10.7-23.9,23.9l0,266.7
	c0,13.2,10.7,23.9,23.9,23.9h152.4v36.8c0,8.8,0,29.4-43.3,29.4h-14.4c-3.8,0-6.8,3.1-6.8,6.8c0,3.8,3.1,6.8,6.8,6.8h197.5
	c3.8,0,6.8-3.1,6.8-6.8c0-3.8-3.1-6.8-6.8-6.8l0,0h-12c-43.3,0-43.3-20.6-43.3-29.4v-10.4c0-3.8-3.1-6.8-6.9-6.8
	c-3.7,0-6.7,3-6.8,6.8v10.4c0,4.8,0,16.1,8,26.1c1,1.2,2,2.3,3.1,3.3h-79.4c1.1-1,2.1-2.1,3.1-3.3c8-9.9,8-21.2,8-26.1v-36.8h223.3
	c13.2,0,23.9-10.7,23.9-23.9L474.6,101.7z M450.7,378.6H61.3c-5.6,0-10.2-4.6-10.2-10.2v-40.6c6.2,4.9,13.9,7.5,21.7,7.5h366.1
	c8,0,15.8-2.7,22-7.7v40.8C460.9,374,456.4,378.6,450.7,378.6z"/>
<path class="st0" d="M269.4,349.8h-26.9c-3.8,0-6.9,3-6.9,6.8c0,3.8,3,6.9,6.8,6.9c0.1,0,0.1,0,0.2,0h26.9c3.8,0,6.9-3,6.9-6.8
	c0-3.8-3-6.9-6.8-6.9C269.5,349.8,269.5,349.8,269.4,349.8z"/>
<path class="st0" d="M99.7,302.6c3.8,0,6.8-3.1,6.8-6.8V110.3h299v185.5c0,3.8,3,6.9,6.8,6.9c3.8,0,6.9-3,6.9-6.8c0-0.1,0-0.1,0-0.2
	V75c0-19.4-15.7-35.1-35.1-35.1H128c-19.4,0-35.1,15.7-35.1,35.1v220.8C92.8,299.5,95.9,302.6,99.7,302.6
	C99.7,302.6,99.7,302.6,99.7,302.6z M128,53.6H384c11.8,0,21.4,9.6,21.4,21.4v21.6h-299V75C106.5,63.2,116.1,53.6,128,53.6L128,53.6
	z"/>
<path class="st1" d="M297.9,185.6c-0.4-2.7-2.3-5-5-5.8l-91.6-28c-3.8-1.1-7.7,1-8.9,4.7c-0.4,1.4-0.4,2.8,0,4.2l28,91.6
	c1.1,3.8,5.1,5.9,8.9,4.7c1.6-0.5,2.9-1.5,3.8-2.9l11.4-17.3l40.4,40.4c2.8,2.8,7.3,2.8,10,0l22.9-22.9c2.8-2.8,2.8-7.3,0-10
	c0,0,0,0,0,0L277.4,204l17.3-11.4C297,191,298.2,188.3,297.9,185.6L297.9,185.6z M265.9,197.3c-3.3,2.2-4.2,6.6-2,9.8
	c0.3,0.4,0.6,0.8,0.9,1.1l41.2,41.2l-16,16l-41.2-41.2c-2.8-2.8-7.3-2.8-10,0c-0.3,0.3-0.6,0.7-0.9,1.1l-9,13.6l-22.3-73l73,22.3
	L265.9,197.3z"/>
<circle class="st0" cx="137.2" cy="77.4" r="7.9"/>
<circle class="st0" cx="165.1" cy="77.4" r="7.9"/>
<circle class="st0" cx="192.9" cy="77.4" r="7.9"/>
<path class="st0" d="M303.3,83.4h79.3c3.3,0,6-2.6,6.1-5.9s-2.6-6-5.9-6.1c0,0-0.1,0-0.1,0h-79.3c-3.3,0-6,2.8-5.9,6.1
	C297.5,80.7,300.1,83.4,303.3,83.4z"/>
</svg>
