<?xml version="1.0" encoding="utf-8"?>
<!-- Generator: Adobe Illustrator 24.1.1, SVG Export Plug-In . SVG Version: 6.00 Build 0)  -->
<svg version="1.1" id="Layer_1" xmlns="http://www.w3.org/2000/svg" xmlns:xlink="http://www.w3.org/1999/xlink" x="0px" y="0px"
	 viewBox="0 0 512 512" style="enable-background:new 0 0 512 512;" xml:space="preserve">
<style type="text/css">
	.st0{stroke:#FFFFFF;stroke-width:4;stroke-miterlimit:10;}
	.st1{stroke:#000000;stroke-width:6;stroke-miterlimit:10;}
</style>
<path class="st0" d="M445,292.3c-6.4-1.6-12.9,2.2-14.6,8.6C406.3,397.4,308.5,456,212.1,431.9c-69.2-17.3-121.6-73.8-133.7-144
	l8.6,8.6c4.8,4.5,12.4,4.2,17-0.6c4.3-4.6,4.3-11.8,0-16.4l-32-32c-4.9-4.8-12.7-4.8-17.6,0l-27.4,32c-4.3,5-3.8,12.6,1.2,16.9
	c2.2,1.9,5,2.9,7.9,2.9c3.5,0,6.8-1.5,9.1-4.2l8.6-10.2c15.5,111.6,118.5,189.5,230.1,174c82.5-11.5,149.7-71.9,169.9-152.7
	C455,300,451.1,293.9,445,292.3L445,292.3z M483,214.9c-4.9-4.3-12.4-3.8-16.7,1.2c0,0-0.1,0.1-0.1,0.1l-8.6,10.1
	c-15.5-111.6-118.5-189.5-230.1-174C145,63.7,77.7,124.2,57.6,205c-1.6,6.4,2.2,13,8.6,14.7c6.4,1.6,12.9-2.2,14.6-8.6
	C104.9,114.6,202.7,56,299.1,80.1c69.2,17.3,121.6,73.8,133.7,144l-8.6-8.6c-4.8-4.5-12.4-4.3-17,0.6c-4.3,4.6-4.3,11.8,0,16.4
	l32,32c4.8,4.9,12.6,4.9,17.4,0.2c0.1-0.1,0.1-0.1,0.2-0.2l27.4-32c4.6-4.8,4.4-12.4-0.4-17C483.5,215.3,483.3,215.1,483,214.9z"/>
<g>
	<g>
		<path class="st1" d="M138.4,319.4l114.5,75.5c0.9,0.6,2,0.9,3.1,0.9c0.9,0,1.8-0.2,2.6-0.6c0.1-0.1,0.3-0.2,115-75.8
			c1.5-1,2.4-2.6,2.4-4.3V196.9c0-1.1-0.4-2.8-2.2-4.2l-0.1-0.1l-114.5-75.5c-1.8-1.2-4.5-1.2-6.3,0l-114.5,75.5
			c-0.6,0.4-2.4,1.6-2.4,4.3v118.2C136,316.8,136.9,318.4,138.4,319.4z M151.3,196.9l48.4-31.9l101.8,71L256,265.9L151.3,196.9z
			 M261.5,380.5V275.1l103.4-68.2v105.4L261.5,380.5z M312.3,228.8l-101.8-71l45.4-30l104.7,69.1L312.3,228.8z M147.1,312.3V206.9
			l103.4,68.2v105.4L147.1,312.3z"/>
	</g>
	<g>
	</g>
	<g>
	</g>
	<g>
	</g>
	<g>
	</g>
	<g>
	</g>
	<g>
	</g>
	<g>
	</g>
	<g>
	</g>
	<g>
	</g>
	<g>
	</g>
	<g>
	</g>
	<g>
	</g>
	<g>
	</g>
	<g>
	</g>
	<g>
	</g>
</g>
</svg>
