<?xml version="1.0" encoding="utf-8"?>
<!-- Generator: Adobe Illustrator 27.2.0, SVG Export Plug-In . SVG Version: 6.00 Build 0)  -->
<svg version="1.1" id="Layer_1" xmlns="http://www.w3.org/2000/svg" xmlns:xlink="http://www.w3.org/1999/xlink" x="0px" y="0px"
	 viewBox="0 0 656 105" style="enable-background:new 0 0 656 105;" xml:space="preserve">
<style type="text/css">
	.st0{fill-rule:evenodd;clip-rule:evenodd;fill:#FFFFFF;}
</style>
<g>
	<g>
		<path class="st0" d="M17.7,26v37.8c0,17.9,10,26.4,28.1,26.4c17.8,0,28-9.1,28-26.4V18.4H59.4v43.7c0,10.4-4.6,15.7-13.6,15.6
			c-9.1-0.1-13.6-5.3-13.6-15.6V18.4H25l-7.3,0L17.7,26L17.7,26z M134.6,41.2c0-14.8-7.8-22.8-22.8-22.8H87.8l-7.3,0l0,7.6v63.2H95
			V64h17.9C127,64,134.6,55.1,134.6,41.2L134.6,41.2z M95.2,51.2V30.7H110c6.8,0,10.2,3.5,10.2,10.3c0,6.8-3.7,10.3-11,10.2H95.2
			L95.2,51.2z M202.1,89.2h51.2v-13h-37V57.8l27.6,0l0-12h-27.6V30.7h37V18.4h-43.9l-7.3,0l0,7.6V89.2L202.1,89.2z M317.4,38.6
			c0-14.6-8.1-20.2-22.8-20.2h-26.9l-7.2,0l-0.1,7.6v63.2h14.5V61.7h15.4c8.5,0,10.1,2.7,10.6,11.2l0,16.3l14.8,0l0-18.5
			c-0.3-4.6-0.9-8.1-2.2-10.5c-1.5-2.2-3.7-3.9-6.8-4.9C313.6,53.4,317.4,47.5,317.4,38.6L317.4,38.6z M302.7,39.9
			c0,6.9-3.9,9.4-10.7,9.4h-17.1V30.7h17.9C299.3,30.7,302.7,33.5,302.7,39.9z"/>
		<path class="st0" d="M325.5,26v5h21v58.2h14.5V31h20.9V18.4h-49.1l-7.3,0L325.5,26L325.5,26z M579.1,64.6h-14.1
			c-1.6,7.8-6.8,12.8-15.8,12.8c-13.2,0-19-9.8-19-23.6c0-14.3,5.9-23.8,19.4-23.8c6.9,0,11.5,2.6,14,7.7c1.3,2.8,3.6,4.3,6.8,4.3
			h8.7c-0.7-7.7-3.5-13.8-8.5-18.3c-5.3-4.4-12.3-6.5-20.9-6.5c-22.4,0-33.9,13.8-33.9,36.6c0,22.1,10.8,36.4,32.6,36.4
			C566.3,90.2,577.8,81,579.1,64.6L579.1,64.6z M586.1,26v63.2h14.5V64.4c0-2.4,1.4-4.2,4-5.1c2.7-0.9,5.6,0.7,8.8,4.9l17.9,25H649
			l-30.7-42.1l28.2-28.8h-18.3l-27.6,29.2V18.4h-7.2l-7.3,0L586.1,26z"/>
		<path class="st0" d="M195.1,41.2c0-14.8-7.8-22.8-22.8-22.8h-24.1l-7.3,0l0,7.6v63.2h14.5V64h17.9C187.4,64,195.1,55.1,195.1,41.2
			L195.1,41.2z M155.6,51.2V30.7h14.8c6.8,0,10.2,3.5,10.2,10.3c0,6.8-3.7,10.3-11,10.2H155.6z"/>
		<path class="st0" d="M452.9,26v37.8c0,17.9,10,26.4,28.1,26.4c17.8,0,28-9.1,28-26.4V18.4h-14.4v43.7c0,10.4-4.6,15.7-13.6,15.6
			c-9.1-0.1-13.6-5.3-13.6-15.6V18.4h-7.2l-7.3,0L452.9,26z"/>
		<path class="st0" d="M445.5,38.6c0-14.6-8.1-20.2-22.8-20.2h-26.9l-7.2,0l-0.1,7.6v63.2h14.5V61.7h15.4c8.5,0,10.1,2.7,10.6,11.2
			l0,16.3l14.8,0l0-18.5c-0.3-4.6-0.9-8.1-2.2-10.5c-1.5-2.2-3.7-3.9-6.8-4.9C441.7,53.4,445.5,47.5,445.5,38.6L445.5,38.6z
			 M430.9,39.9c0,6.9-3.9,9.4-10.7,9.4h-17.1V30.7H421C427.4,30.7,430.9,33.5,430.9,39.9z"/>
	</g>
</g>
</svg>
