<?xml version="1.0" encoding="utf-8"?>
<!-- Generator: Adobe Illustrator 19.0.0, SVG Export Plug-In . SVG Version: 6.00 Build 0)  -->
<svg version="1.1" id="Layer_1" xmlns="https://www.w3.org/2000/svg" xmlns:xlink="https://www.w3.org/1999/xlink" x="0px" y="0px"
	 viewBox="-158 352.9 278.2 136" style="enable-background:new -158 352.9 278.2 136;" xml:space="preserve">
<style type="text/css">
	.st0{fill:#2F3D84;}
	.st1{opacity:0.8;fill:#2F3D84;enable-background:new    ;}
	.st2{opacity:0.6;fill:#2F3D84;enable-background:new    ;}
	.st3{opacity:0.8;clip-path:url(#SVGID_2_);fill:#2F3D84;enable-background:new    ;}
	.st4{opacity:0.8;clip-path:url(#SVGID_4_);fill:#2F3D84;enable-background:new    ;}
	.st5{opacity:0.8;clip-path:url(#SVGID_6_);fill:#2F3D84;enable-background:new    ;}
</style>
<polygon id="XMLID_2238_" class="st0" points="15.6,358 15.6,376.5 -33.4,376.5 -33.4,464.3 -64.3,464.3 -64.3,376.5 -89.4,376.5 
	-89.4,358 "/>
<path id="XMLID_2235_" class="st0" d="M78.8,446.4c0,0,15.1-2.5,24.4-10.7c10.5-9.3,9.1-21.6,9.1-21.6s0.7-12.3-10.2-21.2
	c-11-9-23.4-10.5-23.4-10.5H-27.2v82.7H4.6v-16.8h37.6l36.2,40.6h38L78.8,446.4z M58.2,431H4.5v-29l53.7,0.2
	c7.9,0,14.4,6.4,14.4,14.4S66.2,431,58.2,431z"/>
<rect id="XMLID_2234_" x="-64.3" y="422.7" class="st1" width="30.8" height="13"/>
<rect id="XMLID_2233_" x="-27.2" y="455.4" class="st1" width="31.8" height="6.5"/>
<rect id="XMLID_2232_" x="-64.3" y="443.9" class="st1" width="30.8" height="16"/>
<polygon id="XMLID_2231_" class="st2" points="-60.1,464.4 -46.4,443.9 -64.3,443.9 -64.3,464.4 "/>
<g id="XMLID_2225_">
	<g>
		<g>
			<defs>
				<polygon id="SVGID_1_" points="42.1,448.3 78.3,488.9 116.3,488.9 78.7,446.4 				"/>
			</defs>
			<use xlink:href="#SVGID_1_"  style="overflow:visible;fill:#2F3D84;"/>
			<clipPath id="SVGID_2_">
				<use xlink:href="#SVGID_1_"  style="overflow:visible;"/>
			</clipPath>
			<rect id="XMLID_2230_" x="44.6" y="455.4" class="st3" width="49.9" height="6.5"/>
		</g>
	</g>
	<g>
		<g>
			<defs>
				<polygon id="SVGID_3_" points="42.1,448.3 78.3,488.9 116.3,488.9 78.7,446.4 				"/>
			</defs>
			<use xlink:href="#SVGID_3_"  style="overflow:visible;fill:#2F3D84;"/>
			<clipPath id="SVGID_4_">
				<use xlink:href="#SVGID_3_"  style="overflow:visible;"/>
			</clipPath>
			<rect id="XMLID_2229_" x="62.7" y="471.3" class="st4" width="45.6" height="6.5"/>
		</g>
	</g>
	<g>
		<g>
			<defs>
				<polygon id="SVGID_5_" points="42.1,448.3 78.3,488.9 116.3,488.9 78.7,446.4 				"/>
			</defs>
			<use xlink:href="#SVGID_5_"  style="overflow:visible;fill:#2F3D84;"/>
			<clipPath id="SVGID_6_">
				<use xlink:href="#SVGID_5_"  style="overflow:visible;"/>
			</clipPath>
			<polygon id="XMLID_2228_" class="st5" points="112.8,474.3 72.7,496 69.6,490.3 109.7,468.6 			"/>
		</g>
	</g>
</g>
<path id="XMLID_2172_" class="st0" d="M-56,448.6h-24.6c-0.7,0-1.3,0.6-1.3,1.3V470c0,0.7,0.6,1.3,1.3,1.3h24.5
	c0.7,0,1.3-0.6,1.3-1.3v-20.1C-54.7,449.2-55.3,448.6-56,448.6z M-58,450.1c0.5,0,1,0.5,1,1c0,0.6-0.5,1-1,1c-0.6,0-1-0.4-1-1
	S-58.6,450.1-58,450.1z M-78.7,450.2h16.1c0.5,0,0.8,0.4,0.8,0.8c0,0.5-0.4,0.8-0.8,0.8h-16.1c-0.5,0-0.8-0.4-0.8-0.8
	C-79.6,450.6-79.2,450.2-78.7,450.2z M-56.7,469.6h-23.2v-16h23.2C-56.7,453.6-56.7,469.6-56.7,469.6z M-57.4,454.3h-21.8v14.6h21.9
	L-57.4,454.3L-57.4,454.3z"/>
<path id="XMLID_2211_" class="st0" d="M-79.3,389.2h-76.3c-2.3,0-4.2,1.9-4.2,4.2v62.4c0,2.3,1.9,4.2,4.2,4.2h76.3
	c2.3,0,4.2-1.9,4.2-4.2v-62.4C-75.1,391.1-77,389.2-79.3,389.2z M-85.5,393.9c1.7,0,3.1,1.4,3.1,3.1s-1.4,3.1-3.1,3.1
	s-3.1-1.4-3.1-3.1C-88.6,395.3-87.2,393.9-85.5,393.9z M-149.8,394.4h49.9c1.4,0,2.6,1.2,2.6,2.6c0,1.5-1.2,2.6-2.6,2.6h-49.9
	c-1.5,0-2.6-1.2-2.6-2.6C-152.5,395.6-151.3,394.4-149.8,394.4z M-81.3,454.4h-72.2v-49.6h72.2V454.4z M-83.4,406.9h-68v45.5h68
	C-83.4,452.4-83.4,406.9-83.4,406.9z"/>
<path id="XMLID_2204_" class="st0" d="M-79.4,457h-23.8c-0.7,0-1.3,0.6-1.3,1.3v19.5c0,0.7,0.6,1.3,1.3,1.3h23.8
	c0.7,0,1.3-0.6,1.3-1.3v-19.5C-78.1,457.6-78.7,457-79.4,457z M-81.3,458.4c0.5,0,1,0.4,1,1c0,0.5-0.4,1-1,1c-0.5,0-1-0.4-1-1
	C-82.3,458.9-81.9,458.4-81.3,458.4z M-101.4,458.6h15.6c0.4,0,0.8,0.4,0.8,0.8c0,0.5-0.4,0.8-0.8,0.8h-15.6c-0.5,0-0.8-0.4-0.8-0.8
	S-101.9,458.6-101.4,458.6z M-80,477.3h-22.6v-15.5h22.5L-80,477.3L-80,477.3z M-80.7,462.5h-21.2v14.2h21.2
	C-80.7,476.7-80.7,462.5-80.7,462.5z"/>
<path id="XMLID_2197_" class="st0" d="M-61.3,468h-21.8c-0.7,0-1.2,0.5-1.2,1.2V487c0,0.7,0.5,1.2,1.2,1.2h21.8
	c0.7,0,1.2-0.5,1.2-1.2v-17.8C-60.1,468.6-60.6,468-61.3,468z M-63.1,469.4c0.5,0,0.9,0.4,0.9,0.9s-0.4,0.9-0.9,0.9
	s-0.9-0.4-0.9-0.9C-64,469.8-63.6,469.4-63.1,469.4z M-81.4,469.5h14.3c0.4,0,0.7,0.3,0.7,0.7c0,0.4-0.3,0.7-0.7,0.7h-14.3
	c-0.4,0-0.7-0.3-0.7-0.7C-82.2,469.8-81.9,469.5-81.4,469.5z M-61.9,486.6h-20.6v-14.2h20.6V486.6z M-62.5,473.1h-19.4v13h19.4
	V473.1z"/>
<g id="XMLID_2169_">
	<path id="XMLID_2194_" class="st0" d="M-45.9,484.4c-0.5,0.2-1.5,0.6-2.7,0.6c-2.9,0-4.8-2-4.8-4.9s2-5.1,5.1-5.1
		c1,0,1.9,0.3,2.4,0.5l-0.4,1.3c-0.4-0.2-1.1-0.5-2-0.5c-2.2,0-3.4,1.6-3.4,3.6c0,2.2,1.4,3.6,3.3,3.6c1,0,1.6-0.3,2.1-0.5
		L-45.9,484.4z"/>
	<path id="XMLID_2191_" class="st0" d="M-33.1,479.9c0,3.5-2.5,5.1-4.8,5.1c-2.6,0-4.6-1.9-4.6-4.9c0-3.2,2.1-5.1,4.7-5.1
		C-35,475-33.1,477-33.1,479.9z M-40.7,480c0,2.1,1.2,3.7,2.9,3.7s2.9-1.6,2.9-3.7c0-1.6-0.8-3.7-2.9-3.7
		C-39.8,476.3-40.7,478.2-40.7,480z"/>
	<path id="XMLID_2189_" class="st0" d="M-28.8,477.8c0-1,0-1.8-0.1-2.6h1.5l0.1,1.6l0,0c0.5-0.9,1.6-1.8,3.2-1.8
		c1.3,0,3.4,0.8,3.4,4.1v5.7h-1.7v-5.5c0-1.5-0.6-2.8-2.2-2.8c-1.1,0-2,0.8-2.3,1.8c-0.1,0.2-0.1,0.5-0.1,0.8v5.8h-1.8V477.8z"/>
	<path id="XMLID_2187_" class="st0" d="M-15.9,483c0.5,0.3,1.4,0.7,2.3,0.7c1.3,0,1.9-0.6,1.9-1.4s-0.5-1.3-1.8-1.8
		c-1.7-0.6-2.5-1.6-2.5-2.7c0-1.5,1.2-2.8,3.3-2.8c1,0,1.8,0.3,2.4,0.6l-0.4,1.3c-0.4-0.2-1.1-0.6-2-0.6c-1,0-1.6,0.6-1.6,1.3
		c0,0.8,0.6,1.1,1.8,1.6c1.7,0.6,2.5,1.5,2.5,2.9c0,1.7-1.3,2.9-3.6,2.9c-1,0-2-0.3-2.7-0.7L-15.9,483z"/>
	<path id="XMLID_2185_" class="st0" d="M2.3,482.2c0,1,0,1.9,0.1,2.6H0.9l-0.1-1.6l0,0C0.3,484-0.7,485-2.4,485
		c-1.5,0-3.3-0.8-3.3-4.2v-5.6H-4v5.3c0,1.8,0.6,3,2.1,3c1.2,0,2-0.8,2.3-1.6c0.1-0.3,0.2-0.6,0.2-0.9v-5.9h1.7
		C2.3,475.1,2.3,482.2,2.3,482.2z"/>
	<path id="XMLID_2183_" class="st0" d="M7.3,470.8H9v14H7.3V470.8z"/>
	<path id="XMLID_2181_" class="st0" d="M16.2,472.5v2.7h2.5v1.3h-2.5v5.2c0,1.2,0.3,1.9,1.3,1.9c0.5,0,0.8-0.1,1-0.1l0.1,1.3
		c-0.3,0.1-0.9,0.2-1.5,0.2c-0.8,0-1.5-0.3-1.9-0.7c-0.5-0.5-0.7-1.4-0.7-2.5v-5.2H13v-1.3h1.5V473L16.2,472.5z"/>
	<path id="XMLID_2171_" class="st0" d="M31.3,479.9c0,3.5-2.5,5.1-4.8,5.1c-2.6,0-4.6-1.9-4.6-4.9c0-3.2,2.1-5.1,4.7-5.1
		C29.4,475,31.3,477,31.3,479.9z M23.7,480c0,2.1,1.2,3.7,2.9,3.7s2.9-1.6,2.9-3.7c0-1.6-0.8-3.7-2.9-3.7S23.7,478.2,23.7,480z"/>
	<path id="XMLID_2176_" class="st0" d="M35.6,478.2c0-1.1,0-2.1-0.1-3H37l0.1,1.9h0.1c0.4-1.3,1.5-2.1,2.7-2.1c0.2,0,0.3,0,0.5,0.1
		v1.6c-0.2,0-0.4-0.1-0.6-0.1c-1.2,0-2.1,0.9-2.3,2.2c0,0.2-0.1,0.5-0.1,0.8v5.1h-1.7L35.6,478.2L35.6,478.2z"/>
	<path id="XMLID_2173_" class="st0" d="M46.2,472.5c0,0.6-0.4,1.1-1.1,1.1c-0.6,0-1-0.5-1-1.1s0.5-1.1,1.1-1.1
		C45.8,471.5,46.2,471.9,46.2,472.5z M44.3,484.8v-9.6H46v9.6H44.3z"/>
	<path id="XMLID_2170_" class="st0" d="M56.4,484.8l-0.1-1.2h-0.1c-0.5,0.8-1.6,1.4-2.9,1.4c-1.9,0-2.9-1.4-2.9-2.7
		c0-2.3,2.1-3.6,5.8-3.6v-0.2c0-0.8-0.2-2.2-2.2-2.2c-0.9,0-1.8,0.3-2.5,0.7l-0.4-1.1c0.8-0.5,1.9-0.8,3.1-0.8c2.9,0,3.6,2,3.6,3.9
		v3.6c0,0.8,0,1.6,0.2,2.3L56.4,484.8C56.4,484.9,56.4,484.8,56.4,484.8z M56.1,479.9c-1.9,0-4.1,0.3-4.1,2.2c0,1.1,0.8,1.7,1.6,1.7
		c1.2,0,2-0.8,2.3-1.6c0.1-0.2,0.1-0.4,0.1-0.6L56.1,479.9L56.1,479.9z"/>
</g>
<g id="XMLID_3_">
	<path id="XMLID_1770_" class="st0" d="M-122.2,433h-5.5v-10.6c0-1.3,0-2.5,0.1-3.5c-0.3,0.4-0.8,0.8-1.3,1.3l-2.2,1.8l-2.8-3.4
		l6.9-5.6h4.9v20L-122.2,433L-122.2,433z"/>
	<path id="XMLID_1772_" class="st0" d="M-103.3,423c0,3.5-0.6,6.1-1.8,7.8c-1.2,1.6-3,2.5-5.4,2.5s-4.2-0.9-5.4-2.6
		c-1.2-1.7-1.8-4.3-1.8-7.7c0-3.6,0.6-6.2,1.8-7.8c1.2-1.7,3-2.5,5.4-2.5s4.2,0.9,5.4,2.6S-103.3,419.6-103.3,423z M-112.3,423
		c0,2.3,0.1,3.8,0.4,4.7c0.3,0.8,0.8,1.3,1.4,1.3c0.7,0,1.2-0.4,1.4-1.3c0.3-0.9,0.4-2.4,0.4-4.6s-0.1-3.8-0.4-4.7
		c-0.2-0.9-0.7-1.4-1.4-1.4c-0.7,0-1.1,0.4-1.4,1.3C-112.2,419.2-112.3,420.7-112.3,423z"/>
	<path id="XMLID_1775_" class="st0" d="M-128.9,447.4l-0.4-1.6h-2.8l-0.4,1.6h-2.5l2.8-8.6h3.1l2.8,8.6H-128.9z M-129.8,443.9
		l-0.4-1.4c-0.1-0.3-0.2-0.7-0.3-1.2s-0.2-0.9-0.2-1.1c0,0.2-0.1,0.5-0.2,1c-0.1,0.5-0.3,1.4-0.7,2.7H-129.8z"/>
	<path id="XMLID_1778_" class="st0" d="M-117.3,447.4h-3l-3.1-6h-0.1c0.1,0.9,0.1,1.7,0.1,2.2v3.9h-2.1v-8.6h3l3.1,6l0,0
		c-0.1-0.9-0.1-1.6-0.1-2.1v-3.9h2.1L-117.3,447.4L-117.3,447.4z"/>
	<path id="XMLID_1780_" class="st0" d="M-107.4,443.1c0,1.4-0.4,2.5-1.1,3.3s-1.7,1.1-3.1,1.1c-1.3,0-2.4-0.4-3.1-1.1
		s-1.1-1.9-1.1-3.3s0.4-2.5,1.1-3.3s1.7-1.1,3.1-1.1s2.4,0.4,3.1,1.1C-107.8,440.5-107.4,441.7-107.4,443.1z M-113.3,443.1
		c0,1.7,0.6,2.5,1.7,2.5c0.6,0,1-0.2,1.3-0.6s0.4-1,0.4-1.9s-0.1-1.5-0.4-1.9s-0.7-0.6-1.3-0.6
		C-112.7,440.6-113.3,441.4-113.3,443.1z"/>
	<path id="XMLID_1783_" class="st0" d="M-100.3,444.8c0,0.5-0.1,1-0.4,1.4s-0.7,0.7-1.2,1s-1.1,0.3-1.8,0.3c-0.6,0-1,0-1.4-0.1
		s-0.8-0.2-1.2-0.4v-2.1c0.4,0.2,0.9,0.4,1.4,0.5s0.9,0.2,1.3,0.2c0.3,0,0.6-0.1,0.8-0.2c0.2-0.1,0.2-0.3,0.2-0.5
		c0-0.1,0-0.2-0.1-0.3s-0.2-0.2-0.3-0.3c-0.1-0.1-0.5-0.3-1.1-0.6c-0.6-0.3-1-0.5-1.3-0.7s-0.5-0.5-0.6-0.8s-0.2-0.7-0.2-1.1
		c0-0.8,0.3-1.4,0.9-1.8s1.4-0.7,2.4-0.7c0.9,0,1.8,0.2,2.7,0.6l-0.7,1.8c-0.8-0.4-1.5-0.6-2.1-0.6c-0.3,0-0.5,0.1-0.7,0.2
		s-0.2,0.2-0.2,0.4s0.1,0.3,0.3,0.5c0.2,0.2,0.6,0.4,1.4,0.7c0.7,0.3,1.3,0.7,1.5,1.1C-100.5,443.7-100.3,444.2-100.3,444.8z"/>
</g>
</svg>
