<?xml version="1.0" encoding="utf-8"?>
<!-- Generator: Adobe Illustrator 22.0.0, SVG Export Plug-In . SVG Version: 6.00 Build 0)  -->
<svg version="1.1" id="Layer_1" xmlns="http://www.w3.org/2000/svg" xmlns:xlink="http://www.w3.org/1999/xlink" x="0px" y="0px"
	 viewBox="0 0 200 58.9" style="enable-background:new 0 0 200 58.9;" xml:space="preserve">
<style type="text/css">
	.st0{fill:#FF6F00;}
</style>
<g>
	<g>
		<path class="st0" d="M42.7,27.7L42.7,27.7L42.7,27.7z"/>
		<path class="st0" d="M42.6,32.5c-5.9,0-0.8,8,0,9.8l0,0C43.4,40.5,48.5,32.5,42.6,32.5z"/>
		<path class="st0" d="M64.7,33.4c0.7-5.8-2.4-8.5-3.3-10.2c3.1-3.5,3.5-7.1,4.7-11.6c-7.9,6-15.7,8.3-23.4,8.3s-15.5-2.3-23.5-8.3
			c1.2,4.5,1.6,8.1,4.7,11.6c-0.9,1.7-4,4.4-3.3,10.2c4.4-5,6.8-5.3,9.5-5.5c3.8,0,6.6,3.2,6.6,7c0,3.7-3,6.6-6.6,6.6
			c-4,0-5.7-0.9-9.5-5.2c-0.9,11.4,14.8,17.8,22.1,9.4c7.3,8.4,23,2,22.1-9.4c-3.8,4.3-5.5,5.2-9.5,5.2c-3.7,0-6.6-3-6.6-6.6
			c0-3.8,2.9-7,6.6-7C57.9,28.1,60.3,28.5,64.7,33.4z M55.1,25.7c-5.2,0-9.4,4.2-9.4,9.4s4.2,9.4,9.4,9.4c3.8,0,7-2.2,8.5-5.4
			c-1.6,4.7-6.1,8-11.4,8c-3.9,0-7.4-1.9-9.6-4.8l0,0l0,0c0,0,0,0-0.1-0.1c-2.2,2.9-5.7,4.7-9.5,4.7c-5.2,0-9.7-3.4-11.4-8
			c1.5,3.2,4.7,5.4,8.5,5.4c5.2,0,9.4-4.2,9.4-9.4c0-5.1-4.3-9.4-9.4-9.4c-3.8,0-7,2.2-8.5,5.4c1.2-3.3,3.7-5.9,6.9-7.2
			c-2.5-1.8-4.3-4-5-6.6c4.3,3.2,11.2,5.3,19,5.3s14.7-2.1,19-5.3c-0.7,2.6-2.5,4.9-5.1,6.7c3.3,1.3,5.9,3.9,7.1,7.3
			C62.1,27.9,58.8,25.7,55.1,25.7z"/>
		<path class="st0" d="M30.3,29.6C27.4,29.6,25,32,25,35c0,2.9,2.4,5.3,5.3,5.3s5.3-2.4,5.3-5.3C35.6,32,33.2,29.6,30.3,29.6z
			 M30.3,37.6c-1.4,0-2.6-1.2-2.6-2.6c0-1.4,1.2-2.6,2.6-2.6s2.6,1.2,2.6,2.6C32.9,36.4,31.7,37.6,30.3,37.6z"/>
		<path class="st0" d="M54.9,29.6c-2.9,0-5.3,2.4-5.3,5.3s2.4,5.3,5.3,5.3c2.9,0,5.3-2.4,5.3-5.3C60.3,32,57.9,29.6,54.9,29.6z
			 M54.9,37.6c-1.4,0-2.6-1.2-2.6-2.6c0-1.4,1.2-2.6,2.6-2.6c1.4,0,2.6,1.2,2.6,2.6C57.5,36.4,56.4,37.6,54.9,37.6z"/>
		<path class="st0" d="M42.6,42.3L42.6,42.3L42.6,42.3z"/>
	</g>
	<path class="st0" d="M114.6,4.9l7.9,4.4l-2.2,2.2l-5.6-2.9l-5.6,2.9l-2.2-2.2L114.6,4.9z M179.6,26.4V21c0-0.7-0.1-1.4-0.4-2.1
		c-0.3-0.6-0.7-1.2-1.1-1.7c-0.5-0.5-1.1-0.9-1.7-1.1c-0.6-0.3-1.3-0.4-2.1-0.4c-0.7,0-1.4,0.1-2.1,0.4c-0.7,0.3-1.2,0.7-1.7,1.1
		c-0.5,0.5-0.9,1.1-1.1,1.7c-0.3,0.6-0.4,1.3-0.4,2.1c0,0.7,0.1,1.4,0.4,2.1c0.3,0.7,0.7,1.2,1.1,1.7c0.5,0.5,1.1,0.9,1.7,1.1
		c0.7,0.3,1.4,0.4,2.1,0.4L179.6,26.4L179.6,26.4z M174.2,12.2c1.2,0,2.4,0.2,3.5,0.7s2,1.1,2.8,1.9c0.8,0.8,1.4,1.7,1.9,2.8
		c0.5,1.1,0.7,2.2,0.7,3.5V30h-8.9c-1.2,0-2.4-0.2-3.4-0.7c-1.1-0.5-2-1.1-2.8-1.9s-1.5-1.8-1.9-2.8c-0.5-1.1-0.7-2.2-0.7-3.4
		c0-1.2,0.2-2.4,0.7-3.5s1.1-2,1.9-2.8c0.8-0.8,1.8-1.4,2.8-1.9C171.9,12.4,173,12.2,174.2,12.2 M160.7,12.2h3.5v17.7h-3.5V12.2z
		 M145.5,14.8c0.9-0.9,1.9-1.5,2.9-2c1.1-0.4,2.2-0.7,3.3-0.7s2.2,0.2,3.3,0.7c1.1,0.4,2.1,1.1,2.9,2l1.2,1.2l-2.5,2.5l-1.3-1.2
		c-0.5-0.5-1.1-0.9-1.8-1.2c-0.7-0.3-1.3-0.4-2-0.4s-1.4,0.1-2,0.4c-0.7,0.3-1.3,0.7-1.8,1.2s-0.9,1.1-1.2,1.7
		c-0.3,0.7-0.4,1.3-0.4,2s0.1,1.4,0.4,2c0.3,0.7,0.7,1.3,1.2,1.8c1.1,1.1,2.3,1.6,3.8,1.6c0.7,0,1.4-0.1,2.1-0.4
		c0.7-0.3,1.2-0.7,1.7-1.2l1.3-1.2l2.5,2.5l-1.2,1.2c-0.9,0.9-1.9,1.5-2.9,2c-1.1,0.4-2.2,0.7-3.3,0.7s-2.2-0.2-3.3-0.7
		c-1.1-0.4-2.1-1.1-2.9-2c-0.9-0.9-1.5-1.8-1.9-2.9s-0.6-2.2-0.6-3.3c0-1.1,0.2-2.3,0.6-3.3C144,16.6,144.7,15.6,145.5,14.8
		 M124,21.1c0-1.2,0.2-2.4,0.7-3.5s1.1-2,1.9-2.8s1.7-1.4,2.8-1.9c1.1-0.5,2.2-0.7,3.4-0.7s2.4,0.2,3.5,0.7s2,1.1,2.8,1.9
		c0.8,0.8,1.5,1.7,1.9,2.8c0.5,1.1,0.7,2.2,0.7,3.5V30h-3.5v-8.9c0-0.7-0.1-1.4-0.4-2.1c-0.3-0.6-0.7-1.2-1.1-1.7
		c-0.5-0.5-1.1-0.9-1.7-1.1c-0.7-0.3-1.4-0.4-2.1-0.4c-0.7,0-1.4,0.1-2.1,0.4c-0.6,0.3-1.2,0.7-1.7,1.1c-0.5,0.5-0.9,1.1-1.1,1.7
		c-0.3,0.6-0.4,1.3-0.4,2.1V30H124V21.1z M111.5,17.3c-1.1,1.1-1.6,2.3-1.6,3.8c0,0.8,0.2,1.6,0.6,2.3c0.3-0.3,0.8-0.8,1.4-1.4
		s1.3-1.3,2.1-2.1c0.7-0.7,1.4-1.4,2.1-2.1s1.2-1.2,1.6-1.5c-1-0.5-2.1-0.7-3.2-0.5C113.3,16,112.3,16.5,111.5,17.3 M120.3,23.7
		l2.5,2.5l-1.2,1.2c-0.8,0.8-1.8,1.5-2.9,1.9s-2.2,0.7-3.4,0.7c-1.2,0-2.3-0.2-3.4-0.7c-1.1-0.4-2-1.1-2.9-1.9
		c-0.9-0.9-1.5-1.9-1.9-2.9c-0.4-1.1-0.6-2.2-0.6-3.3c0-1.1,0.2-2.2,0.6-3.3c0.4-1.1,1.1-2.1,1.9-2.9c0.9-0.9,1.9-1.5,2.9-2
		c1.1-0.4,2.2-0.7,3.3-0.7s2.2,0.2,3.3,0.7c1.1,0.4,2.1,1.1,2.9,2l1.2,1.2l-9.8,9.8c1,0.5,2.1,0.7,3.2,0.5s2.1-0.7,2.9-1.5
		L120.3,23.7z M91.1,21c0,0.7,0.1,1.4,0.4,2.1s0.7,1.2,1.1,1.7c0.5,0.5,1.1,0.9,1.7,1.1c0.7,0.3,1.4,0.4,2.1,0.4h5.4V21
		c0-0.7-0.1-1.4-0.4-2.1c-0.3-0.6-0.7-1.2-1.1-1.7c-0.5-0.5-1.1-0.9-1.7-1.1c-0.7-0.3-1.4-0.4-2.1-0.4s-1.4,0.1-2.1,0.4
		s-1.2,0.7-1.7,1.1c-0.5,0.5-0.9,1.1-1.1,1.7C91.2,19.6,91.1,20.3,91.1,21 M96.4,12.2c1.2,0,2.4,0.2,3.5,0.7s2,1.1,2.8,1.9
		c0.8,0.8,1.4,1.7,1.9,2.8c0.5,1.1,0.7,2.2,0.7,3.5v7.1c0,1.2-0.2,2.4-0.7,3.5s-1.1,2-1.9,2.8c-0.8,0.8-1.7,1.5-2.8,1.9
		c-1.1,0.5-2.2,0.7-3.5,0.7h-1.8v-3.5h1.8c1.2,0,2.2-0.3,3.1-1s1.5-1.5,1.9-2.6h-5.1c-1.2,0-2.4-0.2-3.4-0.7c-1.1-0.5-2-1.1-2.8-1.9
		s-1.5-1.8-1.9-2.8c-0.5-1.1-0.7-2.2-0.7-3.4c0-1.2,0.2-2.4,0.7-3.5s1.1-2,1.9-2.8s1.8-1.4,2.8-1.9C94.1,12.4,95.2,12.2,96.4,12.2
		 M83,26.4V21c0-0.7-0.1-1.4-0.4-2.1c-0.3-0.6-0.7-1.2-1.1-1.7c-0.5-0.5-1.1-0.9-1.7-1.1c-0.6-0.3-1.3-0.4-2.1-0.4
		c-0.7,0-1.4,0.1-2.1,0.4s-1.2,0.7-1.7,1.1c-0.5,0.5-0.9,1.1-1.1,1.7c-0.3,0.6-0.4,1.3-0.4,2.1c0,0.7,0.1,1.4,0.4,2.1
		s0.7,1.2,1.1,1.7c0.5,0.5,1.1,0.9,1.7,1.1c0.7,0.3,1.4,0.4,2.1,0.4L83,26.4L83,26.4z M77.7,12.2c1.2,0,2.4,0.2,3.5,0.7
		s2,1.1,2.8,1.9c0.8,0.8,1.4,1.7,1.9,2.8c0.5,1.1,0.7,2.2,0.7,3.5V30h-8.9c-1.2,0-2.4-0.2-3.4-0.7c-1.1-0.5-2-1.1-2.8-1.9
		s-1.5-1.8-1.9-2.8c-0.5-1.1-0.7-2.2-0.7-3.4c0-1.2,0.2-2.4,0.7-3.5s1.1-2,1.9-2.8s1.8-1.4,2.8-1.9C75.3,12.4,76.5,12.2,77.7,12.2"
		/>
	<path class="st0" d="M101.5,37.9V40H95c-0.3,0-0.6,0.1-0.8,0.3c-0.2,0.2-0.3,0.5-0.3,0.8s0.1,0.6,0.3,0.8c0.2,0.2,0.5,0.3,0.8,0.3
		h4.3c0.4,0,0.9,0.1,1.3,0.3s0.7,0.4,1,0.7s0.5,0.6,0.7,1s0.3,0.8,0.3,1.3c0,0.4-0.1,0.9-0.3,1.3c-0.2,0.4-0.4,0.7-0.7,1
		c-0.3,0.3-0.6,0.5-1,0.7s-0.8,0.3-1.3,0.3h-6.5v-2.1h6.5c0.3,0,0.6-0.1,0.8-0.3c0.2-0.2,0.3-0.5,0.3-0.8s-0.1-0.6-0.3-0.8
		c-0.2-0.2-0.5-0.3-0.8-0.3H95c-0.4,0-0.9-0.1-1.3-0.3s-0.7-0.4-1-0.7s-0.5-0.6-0.7-1s-0.3-0.8-0.3-1.3c0-0.4,0.1-0.9,0.3-1.3
		c0.2-0.4,0.4-0.7,0.7-1c0.3-0.3,0.6-0.5,1-0.7s0.8-0.3,1.3-0.3H101.5z"/>
	<rect x="103.3" y="37.9" class="st0" width="2.1" height="10.8"/>
	<path class="st0" d="M112.6,46.6v2.1h-1.1c-0.7,0-1.4-0.1-2.1-0.4c-0.7-0.3-1.2-0.7-1.7-1.2s-0.9-1.1-1.2-1.7
		c-0.3-0.7-0.4-1.4-0.4-2.1v-9.7h2.1v6.5h4.3v2.1h-4.3v1.1c0,0.4,0.1,0.9,0.3,1.3c0.2,0.4,0.4,0.8,0.7,1c0.3,0.3,0.6,0.5,1,0.7
		s0.8,0.3,1.3,0.3C111.5,46.6,112.6,46.6,112.6,46.6z"/>
	<path class="st0" d="M121.1,45.7c-0.5,0.5-1.1,0.8-1.8,0.9c-0.7,0.1-1.3,0-1.9-0.3l6-6l-0.7-0.7c-0.5-0.5-1.1-0.9-1.8-1.2
		c-0.7-0.3-1.3-0.4-2-0.4s-1.4,0.1-2,0.4c-0.7,0.3-1.3,0.7-1.8,1.2s-0.9,1.1-1.2,1.8c-0.3,0.7-0.4,1.3-0.4,2s0.1,1.4,0.4,2
		c0.3,0.7,0.7,1.3,1.2,1.8s1.1,0.9,1.8,1.2c0.7,0.3,1.3,0.4,2.1,0.4c0.7,0,1.4-0.1,2.1-0.4c0.7-0.3,1.2-0.7,1.8-1.2l0.7-0.7
		l-1.5-1.5L121.1,45.7z M115.8,44.8c-0.2-0.4-0.3-0.9-0.3-1.4c0-0.9,0.3-1.7,1-2.3c0.5-0.5,1.1-0.8,1.8-0.9c0.7-0.1,1.3,0,1.9,0.3
		c-0.2,0.2-0.5,0.5-1,0.9c-0.4,0.4-0.8,0.8-1.3,1.3c-0.4,0.4-0.9,0.9-1.3,1.3C116.3,44.3,116,44.6,115.8,44.8z"/>
	<path class="st0" d="M133.8,37.9V40h-6.5c-0.3,0-0.6,0.1-0.8,0.3c-0.2,0.2-0.3,0.5-0.3,0.8s0.1,0.6,0.3,0.8
		c0.2,0.2,0.5,0.3,0.8,0.3h4.3c0.4,0,0.9,0.1,1.3,0.3c0.4,0.2,0.7,0.4,1,0.7s0.5,0.6,0.7,1s0.3,0.8,0.3,1.3c0,0.4-0.1,0.9-0.3,1.3
		c-0.2,0.4-0.4,0.7-0.7,1s-0.6,0.5-1,0.7s-0.8,0.3-1.3,0.3h-6.5v-2.1h6.5c0.3,0,0.6-0.1,0.8-0.3s0.3-0.5,0.3-0.8s-0.1-0.6-0.3-0.8
		s-0.5-0.3-0.8-0.3h-4.3c-0.4,0-0.9-0.1-1.3-0.3s-0.7-0.4-1-0.7s-0.5-0.6-0.7-1s-0.3-0.8-0.3-1.3c0-0.4,0.1-0.9,0.3-1.3
		c0.2-0.4,0.4-0.7,0.7-1c0.3-0.3,0.6-0.5,1-0.7s0.8-0.3,1.3-0.3H133.8z"/>
	<path class="st0" d="M77.8,33.5v4.3h-3.3c-0.7,0-1.4,0.1-2.1,0.4c-0.7,0.3-1.2,0.7-1.7,1.2s-0.9,1.1-1.2,1.7
		c-0.3,0.7-0.4,1.4-0.4,2.1c0,0.7,0.1,1.4,0.4,2.1c0.3,0.7,0.7,1.2,1.2,1.7s1.1,0.9,1.7,1.2c0.7,0.3,1.4,0.4,2.1,0.4
		s1.4-0.1,2.1-0.4c0.7-0.3,1.2-0.7,1.7-1.2s0.9-1.1,1.2-1.7c0.3-0.7,0.4-1.4,0.4-2.1v-9.7H77.8z M78,43c0,0.4-0.1,0.9-0.3,1.3
		c-0.2,0.4-0.4,0.8-0.7,1c-0.3,0.3-0.6,0.5-1,0.7s-0.8,0.3-1.3,0.3c-0.4,0-0.9-0.1-1.3-0.3s-0.8-0.4-1-0.7c-0.3-0.3-0.5-0.6-0.7-1
		s-0.3-0.8-0.3-1.3c0-0.4,0.1-0.9,0.3-1.3c0.2-0.4,0.4-0.7,0.7-1c0.3-0.3,0.6-0.5,1-0.7s0.8-0.3,1.3-0.3H78V43z"/>
	<path class="st0" d="M88.7,45.3c-0.5,0.5-1.1,0.8-1.8,0.9c-0.7,0.1-1.3,0-1.9-0.3l6-6l-0.7-0.7c-0.5-0.5-1.1-0.9-1.8-1.2
		c-0.7-0.3-1.3-0.4-2-0.4s-1.4,0.1-2,0.4c-0.7,0.3-1.3,0.7-1.8,1.2s-0.9,1.1-1.2,1.8c-0.3,0.7-0.4,1.3-0.4,2s0.1,1.4,0.4,2
		c0.3,0.7,0.7,1.3,1.2,1.8s1.1,0.9,1.8,1.2c0.7,0.3,1.3,0.4,2.1,0.4c0.7,0,1.4-0.1,2.1-0.4c0.7-0.3,1.2-0.7,1.8-1.2l0.7-0.7
		l-1.5-1.5L88.7,45.3z M84.3,43.4c-0.4,0.4-0.7,0.7-0.9,0.9c-0.2-0.4-0.3-0.9-0.3-1.4c0-0.9,0.3-1.7,1-2.3c0.5-0.5,1.1-0.8,1.8-0.9
		c0.7-0.1,1.3,0,1.9,0.3c-0.2,0.2-0.5,0.5-1,0.9c-0.4,0.4-0.8,0.8-1.3,1.3C85.1,42.5,84.7,43,84.3,43.4z"/>
	<g>
		<path class="st0" d="M141.6,39.1c0.6-0.6,1.2-1,1.9-1.2c0.7-0.3,1.4-0.4,2.1-0.4c0.7,0,1.4,0.1,2.1,0.4c0.7,0.3,1.3,0.7,1.9,1.2
			l0.8,0.8l-1.6,1.6l-0.8-0.8c-0.3-0.3-0.7-0.6-1.1-0.8c-0.4-0.2-0.8-0.3-1.3-0.3c-0.4,0-0.9,0.1-1.3,0.3c-0.4,0.2-0.8,0.4-1.1,0.8
			c-0.3,0.3-0.6,0.7-0.8,1.1c-0.2,0.4-0.3,0.8-0.3,1.3c0,0.4,0.1,0.9,0.3,1.3c0.2,0.4,0.4,0.8,0.8,1.1c0.7,0.7,1.5,1,2.4,1
			c0.5,0,0.9-0.1,1.3-0.3c0.4-0.2,0.8-0.4,1.1-0.8l0.8-0.8l1.6,1.6l-0.8,0.8c-0.6,0.6-1.2,1-1.9,1.2c-0.7,0.3-1.4,0.4-2.1,0.4
			c-0.7,0-1.4-0.1-2.1-0.4c-0.7-0.3-1.3-0.7-1.9-1.2c-0.6-0.6-1-1.2-1.2-1.9c-0.3-0.7-0.4-1.4-0.4-2.1c0-0.7,0.1-1.4,0.4-2.1
			C140.6,40.3,141,39.7,141.6,39.1"/>
		<path class="st0" d="M156.6,37.4c-3.1,0-5.7,2.6-5.7,5.7c0,3.1,2.6,5.7,5.7,5.7c3.1,0,5.7-2.6,5.7-5.7S159.7,37.4,156.6,37.4z
			 M156.6,46.5c-1.9,0-3.5-1.6-3.5-3.5s1.6-3.5,3.5-3.5s3.5,1.6,3.5,3.5S158.5,46.5,156.6,46.5z"/>
		<path class="st0" d="M182.9,40.8c-0.3-0.7-0.7-1.3-1.2-1.8s-1.1-0.9-1.8-1.2s-1.4-0.4-2.2-0.4s-1.5,0.1-2.2,0.4
			c-0.7,0.3-1.3,0.7-1.8,1.2c-0.2,0.2-0.3,0.4-0.5,0.6c-0.2-0.2-0.3-0.4-0.5-0.6c-0.5-0.5-1.1-0.9-1.8-1.2s-1.4-0.4-2.2-0.4
			s-1.5,0.1-2.2,0.4c-0.7,0.3-1.3,0.7-1.8,1.2s-0.9,1.1-1.2,1.8s-0.4,1.4-0.4,2.2v5.7h2.2V43c0-0.5,0.1-0.9,0.3-1.3
			c0.2-0.4,0.4-0.8,0.7-1.1s0.7-0.6,1.1-0.7c0.4-0.2,0.9-0.3,1.3-0.3c0.5,0,0.9,0.1,1.3,0.3c0.4,0.2,0.8,0.4,1.1,0.7
			s0.6,0.7,0.7,1.1c0.1,0.2,0.2,0.5,0.2,0.8c0,0.2,0,0.4,0,0.6v5.7h0.1h2.2h0.1V43c0-0.2,0-0.4,0-0.6c0-0.3,0.1-0.5,0.2-0.8
			c0.2-0.4,0.4-0.8,0.7-1.1s0.7-0.6,1.1-0.7c0.4-0.2,0.9-0.3,1.3-0.3c0.5,0,0.9,0.1,1.3,0.3c0.4,0.2,0.8,0.4,1.1,0.7
			s0.6,0.7,0.7,1.1c0.2,0.4,0.3,0.9,0.3,1.3v5.7h2.2V43C183.3,42.3,183.2,41.5,182.9,40.8z"/>
	</g>
	<circle class="st0" cx="137.7" cy="46.5" r="2.2"/>
</g>
</svg>
