<?xml version="1.0" encoding="utf-8"?>
<!-- Generator: Adobe Illustrator 24.1.1, SVG Export Plug-In . SVG Version: 6.00 Build 0)  -->
<svg version="1.1" id="Layer_1" xmlns="http://www.w3.org/2000/svg" xmlns:xlink="http://www.w3.org/1999/xlink" x="0px" y="0px"
	 viewBox="0 0 433 183" style="enable-background:new 0 0 433 183;" xml:space="preserve">
<style type="text/css">
	.st0{fill:#EA007E;}
</style>
<g>
	<g>
		<path class="st0" d="M69.9,121.5V80.7c0-15.5-6.3-23.2-19-23.2c-12.6,0-19,7.7-19,23.2v40.7H16.8V80.7c0-12.6,3.1-22.1,9.3-28.5
			s14.5-9.5,24.8-9.5s18.5,3.1,24.8,9.5S85,68,85,80.7v40.7L69.9,121.5L69.9,121.5z"/>
		<path class="st0" d="M164.1,84.7c0,12.6-3.1,22.1-9.3,28.5s-14.5,9.5-24.8,9.5s-18.5-3.1-24.8-9.5c-6.2-6.4-9.3-15.8-9.3-28.5
			V43.9H111v40.7c0,15.5,6.3,23.2,19,23.2c12.6,0,19-7.7,19-23.2V43.9h15.2L164.1,84.7L164.1,84.7z"/>
		<path class="st0" d="M173.4,82.6c0-11,3.9-20.5,11.7-28.3c7.7-7.8,17.1-11.7,28.2-11.7c11,0,20.5,3.9,28.3,11.7
			s11.7,17.2,11.7,28.3s-3.9,20.5-11.7,28.3s-17.2,11.7-28.3,11.7c-10,0-18.1-3.8-24.5-11.1v41h-15.3L173.4,82.6L173.4,82.6z
			 M213.2,108c7,0,12.9-2.4,17.6-7.3c4.8-4.9,7.1-10.8,7.1-17.9s-2.3-13.1-7.1-17.9c-4.7-4.9-10.6-7.3-17.7-7.3
			c-7,0-12.9,2.4-17.6,7.3c-4.8,4.9-7.1,10.8-7.1,17.9c0,7,2.4,13,7.2,17.9C200.5,105.4,206.4,108,213.2,108z"/>
		<path class="st0" d="M261.7,82.6c0-11,3.9-20.5,11.7-28.3c7.7-7.8,17.1-11.7,28.2-11.7c11,0,20.5,3.9,28.3,11.7
			s11.7,17.2,11.7,28.3s-3.9,20.5-11.7,28.3c-7.8,7.8-17.2,11.7-28.3,11.7c-10,0-18.1-3.8-24.5-11.1v41h-15.3L261.7,82.6L261.7,82.6
			z M301.5,108c7,0,12.9-2.4,17.6-7.3c4.8-4.9,7.1-10.8,7.1-17.9s-2.3-13.1-7.1-17.9c-4.7-4.9-10.6-7.3-17.7-7.3
			c-7,0-12.9,2.4-17.6,7.3c-4.8,4.9-7.1,10.8-7.1,17.9c0,7,2.4,13,7.2,17.9C288.8,105.4,294.6,108,301.5,108z"/>
		<path class="st0" d="M384.1,152.4c-7.7,0-14.5-2.1-20.3-6.5s-10-10.1-12.7-17.5h17c3.8,6.2,9,9.3,15.9,9.3
			c5.8,0,10.3-1.7,13.7-5.1c3.3-3.4,5.1-7.8,5.1-13.2v-4.2c-4.7,5-10.9,7.4-18.8,7.4c-10.3,0-18.5-3.1-24.8-9.5
			c-6.2-6.4-9.3-15.8-9.3-28.5V43.9h15.2v40.7c0,15.5,6.3,23.2,19,23.2c6.1,0,10.7-1.8,14-5.6c3.2-3.8,4.9-9.3,4.9-16.7V43.9h15.2
			v73.6c0,10-3.2,18.3-9.6,24.9C402.2,149.1,394.1,152.4,384.1,152.4z"/>
	</g>
</g>
</svg>
