<?xml version="1.0" encoding="iso-8859-1"?>
<!-- Generator: Adobe Illustrator 19.0.0, SVG Export Plug-In . SVG Version: 6.00 Build 0)  -->
<svg version="1.1" id="Capa_1" xmlns="https://www.w3.org/2000/svg" xmlns:xlink="https://www.w3.org/1999/xlink" x="0px" y="0px"
	 viewBox="0 0 512 512" style="enable-background:new 0 0 512 512;" xml:space="preserve">
<polygon style="fill:#A7DCFC;" points="474.5,461 504.5,461 504.5,141 454.5,81 "/>
<polygon style="fill:#EAF7FF;" points="7.5,141 7.5,461 474.5,461 474.5,81 "/>
<polygon style="fill:#F85B3F;" points="474.5,51 454.5,96 474.5,141 504.5,141 504.5,51 "/>
<polygon style="fill:#FF7F67;" points="414.5,51 394.5,96 414.5,141 474.5,141 474.5,51 "/>
<rect x="7.5" y="51" style="fill:#B6B8B5;" width="407" height="90"/>
<rect x="37.5" y="81" style="fill:#FFFFFF;" width="347" height="30"/>
<polygon style="fill:#F85B3F;" points="444.5,421 414.5,421 374.5,367.667 414.5,301 444.5,301 "/>
<rect x="67.5" y="301" style="fill:#FF7F67;" width="347" height="120"/>
<path d="M504.5,43.5H7.5C3.358,43.5,0,46.857,0,51v410c0,4.143,3.358,7.5,7.5,7.5h497c4.143,0,7.5-3.357,7.5-7.5V51
	C512,46.857,508.643,43.5,504.5,43.5z M497,133.5h-75v-75h75V133.5z M407,58.5v75H15v-75H407z M15,453.5v-305h482v305H15z"/>
<path d="M37.5,118.5h30c4.142,0,7.5-3.357,7.5-7.5s-3.358-7.5-7.5-7.5H45v-15h332v15H97.5c-4.142,0-7.5,3.357-7.5,7.5
	s3.358,7.5,7.5,7.5h287c4.143,0,7.5-3.357,7.5-7.5V81c0-4.143-3.357-7.5-7.5-7.5h-347c-4.142,0-7.5,3.357-7.5,7.5v30
	C30,115.143,33.358,118.5,37.5,118.5z"/>
<circle cx="286" cy="361" r="7.5"/>
<circle cx="256" cy="361" r="7.5"/>
<circle cx="226" cy="361" r="7.5"/>
<path d="M444.5,293.5h-377c-4.142,0-7.5,3.357-7.5,7.5v120c0,4.143,3.358,7.5,7.5,7.5h282.75c4.143,0,7.5-3.357,7.5-7.5
	s-3.357-7.5-7.5-7.5H75v-105h362v105h-56.75c-4.143,0-7.5,3.357-7.5,7.5s3.357,7.5,7.5,7.5h64.25c4.143,0,7.5-3.357,7.5-7.5V301
	C452,296.857,448.643,293.5,444.5,293.5z"/>
<path d="M256,278.5c4.143,0,7.5-3.357,7.5-7.5v-30c0-4.143-3.357-7.5-7.5-7.5c-4.142,0-7.5,3.357-7.5,7.5v30
	C248.5,275.143,251.858,278.5,256,278.5z"/>
<path d="M219.071,273.87c1.196,2.889,3.989,4.632,6.932,4.632c0.957,0,1.929-0.185,2.867-0.573c3.827-1.585,5.644-5.972,4.059-9.799
	l-11.48-27.717c-1.585-3.827-5.974-5.644-9.799-4.059c-3.827,1.585-5.644,5.972-4.059,9.799L219.071,273.87z"/>
<path d="M283.13,277.929c0.938,0.39,1.91,0.573,2.867,0.573c2.943,0,5.735-1.744,6.932-4.632l11.48-27.717
	c1.586-3.827-0.231-8.214-4.059-9.799c-3.825-1.587-8.214,0.232-9.799,4.059l-11.48,27.717
	C277.485,271.957,279.303,276.344,283.13,277.929z"/>
<g>
</g>
<g>
</g>
<g>
</g>
<g>
</g>
<g>
</g>
<g>
</g>
<g>
</g>
<g>
</g>
<g>
</g>
<g>
</g>
<g>
</g>
<g>
</g>
<g>
</g>
<g>
</g>
<g>
</g>
</svg>
