<?xml version="1.0" encoding="utf-8"?>
<!-- Generator: Adobe Illustrator 19.0.0, SVG Export Plug-In . SVG Version: 6.00 Build 0)  -->
<svg version="1.1" id="Capa_1" xmlns="https://www.w3.org/2000/svg" xmlns:xlink="https://www.w3.org/1999/xlink" x="0px" y="0px"
	 viewBox="-41 164.9 512 512" style="enable-background:new -41 164.9 512 512;" xml:space="preserve">
<style type="text/css">
	.st0{fill:#6DA8D6;}
	.st1{fill:#4A87AF;}
	.st2{fill:#FFCC75;}
	.st3{fill:#082947;}
</style>
<path class="st0" d="M353.4,358.4c-17.8-60.2-73.6-104.1-139.5-104.1c-80.4,0-145.5,65.2-145.5,145.5c0,0.1,0,0.2,0,0.3
	c-2.5-0.2-5-0.3-7.6-0.3c-51.9,0-94,42.1-94,94c0,50.3,39.3,91.4,89.3,93.9v0.3h292.5c63.4,0,114.8-51.5,114.8-114.9
	C463.3,411.4,414.5,360.9,353.4,358.4z"/>
<g>
	<circle class="st1" cx="214.3" cy="399.8" r="145.4"/>
	<circle class="st1" cx="348.5" cy="473.1" r="114.8"/>
</g>
<path class="st2" d="M238,431.1v-77.7c0-14.7-11.7-26.6-26.4-26.6h0c-14.7,0-26.6,11.9-26.6,26.6v77.7h-26.7
	c-10.3,0-16.1,11.5-10,19.8l54.4,73.4c5,6.8,15.1,6.7,20.1-0.1l54-73.3c6.1-8.2,0.2-19.8-10.1-19.8L238,431.1L238,431.1z"/>
<path class="st3" d="M436.8,388.2c-20.7-21.5-48.2-34.6-77.7-37.1c-2-5.9-4.4-11.8-7.1-17.4c-1.8-3.8-6.4-5.4-10.2-3.6
	c-3.8,1.8-5.4,6.4-3.6,10.2c3.1,6.5,5.8,13.4,7.8,20.3c0.9,3.1,3.8,5.3,7,5.5c27.7,1.1,53.5,12.8,72.7,32.8
	c19.3,20.1,29.9,46.4,29.9,74.2c0,59.1-48.1,107.1-107.1,107.1H111.8c-4.2,0-7.7,3.3-7.7,7.5s3.4,7.5,7.7,7.5h236.7
	c67.5,0,122.5-54.7,122.5-122.2C471,441.1,458.9,411.1,436.8,388.2z"/>
<path class="st3" d="M77.8,580.1H57.3c-0.3,0-0.6,0-1,0c-46-2.3-82-40.1-82-86.2c0-47.6,38.7-86.3,86.4-86.3c2.1,0,4.4,0.1,7,0.3
	c2.1,0.2,4.2-0.6,5.8-2c1.6-1.5,2.5-3.5,2.5-5.6l0-0.3c0-76,61.8-137.9,137.9-137.9c43.3,0,83.3,19.8,109.6,54.2
	c2.6,3.4,7.4,4,10.7,1.4c3.4-2.6,4-7.4,1.4-10.7c-29.3-38.3-73.6-60.3-121.8-60.3c-81.9,0-149,64.5-153,145.5c0,0-0.1,0-0.1,0
	C4.6,392.1-41,437.8-41,493.8c0,53.8,41.7,97.9,95.2,101.3c0.6,0.1,1.2,0,1.8,0h21.9c4.2,0,7.7-3.3,7.7-7.5
	C85.5,583.4,82.1,580.1,77.8,580.1z"/>
<path class="st3" d="M212,319.1c-18.9,0-34,15.4-34,34.3v69.7h-19.7c-7.7,0-14.6,4.3-18,11.1c-3.4,6.8-2.8,14.9,1.8,21.1l54.4,73.6
	c3.8,5.2,9.7,8.3,16.2,8.3c0,0,0,0,0,0c6.5,0,12.4-3.1,16.2-8.3l54-73.5c4.5-6.2,5.2-14.3,1.7-21.1c-3.4-6.8-10.3-11.1-18-11.1H246
	v-69.7C246,334.5,230.9,319.1,212,319.1z M266.6,438.1c2.7,0,3.9,2,4.3,2.8c0.4,0.8,1.2,3-0.4,5.1l-54,73.3c-1.3,1.7-3,1.8-3.9,1.8
	c0,0,0,0,0,0c-0.9,0-2.6,0-3.9-1.7l-54.4-73.3c-1.6-2.2-0.8-4.4-0.4-5.2c0.4-0.8,1.6-2.8,4.3-2.8h26.9c4.2,0,7.8-3.1,7.8-7.3v-77.4
	c0-10.4,8.6-18.9,19-18.9s19,8.5,19,18.9v77.4c0,4.2,3.2,7.3,7.4,7.3L266.6,438.1L266.6,438.1z"/>
</svg>
