<?xml version="1.0" encoding="utf-8"?>
<!-- Generator: Adobe Illustrator 19.0.0, SVG Export Plug-In . SVG Version: 6.00 Build 0)  -->
<svg version="1.1" id="Capa_1" xmlns="https://www.w3.org/2000/svg" xmlns:xlink="https://www.w3.org/1999/xlink" x="0px" y="0px"
	 viewBox="-58 182.4 477.5 477.5" style="enable-background:new -58 182.4 477.5 477.5;" xml:space="preserve">
<style type="text/css">
	.st0{fill:#694B4B;}
	.st1{fill:#563B3B;}
	.st2{fill:#6DA8D6;}
	.st3{fill:#FFCC75;}
	.st4{fill:#EDBA89;}
	.st5{fill:#EFF2F9;}
	.st6{fill:#EF4C35;}
	.st7{fill:#DF3126;}
	.st8{fill:#082947;}
</style>
<path class="st0" d="M169.7,189.4c0,0-90.3,0.8-90.3,103.3s0,40.1,0,40.1S199,308.3,215,274.7c0,0,1.6,42.8,69.4,55.3
	C284.4,329.8,294.3,189.4,169.7,189.4z"/>
<path class="st1" d="M101.9,292.6c0-84.2,57.1-99.8,81.7-102.6c-4.4-0.4-9.1-0.7-14-0.7c0,0-90.3,0.8-90.3,103.3c0,18.1,0,31,0,40.1
	c0,0,9.1-1.9,22.5-5.3C101.9,318.8,101.9,307.5,101.9,292.6z"/>
<g>
	<path class="st2" d="M66.5,518.6c-0.1,0-0.2,0.1-0.4,0.1c-1.9,0.7-46.8,16.8-46.8,73.3v56.1h48.5v-58.9c0-2.9,2.3-5.2,5.2-5.2
		s5.2,2.3,5.2,5.2v66.1h72.1l-45-153L66.5,518.6z"/>
	<path class="st2" d="M307.5,525c-7-4.5-12.3-6.4-12.3-6.4c-0.1,0-0.2-0.1-0.3-0.1l-37-15.4L217.3,648h66v-58.9
		c0-2.9,2.3-5.2,5.2-5.2c2.9,0,5.2,2.3,5.2,5.2V648h48.5v-56.1C342,555.2,323.3,535.3,307.5,525z"/>
</g>
<path class="st3" d="M216.2,286.7l-1.5-3.6l-2.7,2.8c-32.4,33.7-82.4,40.3-102.5,41.5l-2.4,0.2v56.2c0,36.8,29.9,66.7,66.7,66.7
	h15.6c36.8,0,66.7-29.9,66.7-66.7v-57.2l-1.7-0.6C233.7,318.7,222.2,300.6,216.2,286.7z M172.1,357.9c0-2.9,2.3-5.2,5.2-5.2
	s5.2,2.3,5.2,5.2v20h8c2.9,0,5.2,2.3,5.2,5.2s-2.3,5.2-5.2,5.2h-13.2c-2.9,0-5.2-2.3-5.2-5.2V357.9L172.1,357.9z"/>
<g>
	<path class="st4" d="M119.5,383.8v-56.2l2.4-0.2c18.8-1.2,64.3-7.1,96.5-35.9c-0.8-1.7-1.6-3.3-2.3-4.9l-1.5-3.6l-2.7,2.8
		c-32.4,33.7-82.4,40.3-102.5,41.5l-2.4,0.2v56.2c0,36.8,29.9,66.7,66.7,66.7h12.4C149.5,450.5,119.5,420.5,119.5,383.8z"/>
	<path class="st3" d="M269.6,335.4l-3.1-0.6V382l3.1-0.6c11.1-2.1,19.1-11.8,19.1-23C288.7,347.2,280.6,337.5,269.6,335.4z"/>
</g>
<path class="st3" d="M212,457.5l-3.2,0.8c-6.3,1.6-12.8,2.5-19.4,2.5h-15.6c-6.5,0-13.1-0.8-19.4-2.5l-3.2-0.8v29
	c0,0.2,0,0.5-0.1,0.8l-0.2,1.3l30.4,29.6l30.7-31.9V457.5L212,457.5L212,457.5z"/>
<g>
	<path class="st4" d="M163.4,488.6l0.2-1.3c0.1-0.3,0.1-0.6,0.1-0.8v-26.4c-3.1-0.4-6.2-1-9.2-1.8l-3.2-0.8v29c0,0.2,0,0.5-0.1,0.8
		l-0.2,1.3l30.4,29.6l6-6.2L163.4,488.6z"/>
	<path class="st3" d="M96.8,382v-47.2l-3.1,0.6c-11.1,2.1-19.1,11.8-19.1,23c0,11.3,8,20.9,19.1,23L96.8,382z"/>
</g>
<g>
	<path class="st5" d="M223.9,565.1c-1.6,0-3.3-0.5-4.6-1.5l-8.7-6.4l-5.5,14.7l7.4,45.6l14.9-53.1c-0.5,0.2-1,0.4-1.5,0.5
		C225.1,565.1,224.5,565.1,223.9,565.1z"/>
	<path class="st5" d="M225,486.5c0,0.3,0,0.6-0.1,1c0.3,2.3-0.4,4.6-2.1,6.4l-29.9,31l28.1,20.7l22.8-46.8L225,486.4V486.5z"/>
	<path class="st5" d="M158.2,572.1l-6.3-15.1l-9.1,6.7c-1.3,1-3,1.5-4.6,1.5c-0.6,0-1.2-0.1-1.9-0.2h-0.1l14.7,52.3L158.2,572.1z"/>
	<path class="st5" d="M118.4,498.8l22.8,46.8l28.3-20.9l-28.8-28.1c-2.2-2.1-2.8-5.2-2-7.8c-0.2-0.7-0.4-1.5-0.4-2.3v-0.9
		L118.4,498.8z"/>
</g>
<g>
	<polygon class="st6" points="191.8,577.3 171.5,577.3 160.3,647.1 203,647.1 	"/>
	<polygon class="st6" points="192.7,564.9 199.4,547.1 181.1,533.6 162.8,547 170.4,564.9 	"/>
</g>
<g>
	<polygon class="st7" points="171.5,577.3 160.3,647.1 172.7,647.1 183.9,577.3 	"/>
	<polygon class="st7" points="187.3,538.1 181.1,533.6 162.8,547 170.4,564.9 182.8,564.9 175.3,547 	"/>
</g>
<g>
	<path class="st8" d="M314.5,514.3L314.5,514.3c-7.5-4.8-13.5-7.1-14.9-7.7l-43.3-18l-30.5-20.2c-0.3-0.2-0.6-0.4-0.9-0.5v-13.1
		c23.1-11.5,39.8-33.9,43.4-60.4c18.6-1.5,33.3-17.1,33.3-36.1c0-9.4-3.6-17.9-9.5-24.4v-46.3c0-58.4-59.5-106-117.9-106H166
		c-58.4,0-94,47.5-94,106v45.8c-6.2,6.5-10,15.3-10,24.9c0,19,14.7,34.6,33.3,36.1c3.6,26.5,20.3,48.9,43.4,60.4V467l-31.8,21
		c-0.4,0.1-0.9,0.2-1.3,0.4l-43.5,18.1c-2.2,0.8-15,5.7-27.7,17.7c-12.6,11.9-27.6,33.2-27.6,67.6v61.3c0,4.2,3.4,7.6,7.6,7.6h89.9
		c4.2,0,7.6-3.4,7.6-7.6c0-4.2-3.4-7.6-7.6-7.6H80.6V589c0-4.2-3.4-7.6-7.6-7.6s-7.6,3.4-7.6,7.6v56.5H21.8v-53.7
		c0-54.8,43.4-70.4,45.2-71c0.2-0.1,0.3-0.1,0.5-0.2l36.3-15.1l39.2,140h-15.1c-4.2,0-7.6,3.4-7.6,7.6s3.4,7.6,7.6,7.6h25l0,0l0,0
		h57.3l0,0h0.1l0,0l0,0H347c4.2,0,7.6-3.4,7.6-7.6v-61.3C354.8,547.2,329.5,524.1,314.5,514.3z M152,556.7l6.4,15.3l-7.4,45.9
		l-14.9-53.3c0.1,0,0.2,0.1,0.4,0.1c0.6,0.1,1.2,0.2,1.8,0.2c1.6,0,3.2-0.5,4.5-1.5L152,556.7z M171.3,563.5l-6.7-16.1l16.5-12.1
		l16.7,12.3l-6,15.9L171.3,563.5L171.3,563.5L171.3,563.5z M204.9,571.9l5.6-14.9l8.9,6.6c1.3,1,2.9,1.5,4.5,1.5
		c0.6,0,1.2-0.1,1.8-0.2c0.6-0.2,1.2-0.4,1.8-0.7l-15.2,54.1L204.9,571.9z M244,498.7l-22.9,47.1l-28.4-20.9l30-31.2
		c1.7-1.7,2.3-4,2.1-6.3c0-0.3,0.1-0.6,0.1-1V486L244,498.7z M268.9,379.1v-41.3c9.8,1.8,17.3,10.3,17.3,20.6
		C286.2,368.8,278.7,377.3,268.9,379.1z M177.8,197h8.2c50.1,0,90.8,40.7,90.8,90.8v36.4c-2.5-0.8-5.1-1.4-7.8-1.7v-0.1
		c0-0.2,0-0.3,0-0.5c0-0.1,0-0.2,0-0.3c0-0.1,0-0.3-0.1-0.4c0-0.1-0.1-0.2-0.1-0.4c0-0.1-0.1-0.2-0.1-0.3c0-0.1-0.1-0.3-0.1-0.4
		s-0.1-0.2-0.1-0.3c-0.1-0.1-0.1-0.3-0.2-0.4c0-0.1-0.1-0.2-0.1-0.3c-0.1-0.1-0.1-0.3-0.2-0.4c0-0.1-0.1-0.2-0.2-0.2
		c-0.1-0.1-0.2-0.2-0.2-0.3c-0.1-0.1-0.1-0.2-0.2-0.3c-0.1-0.1-0.2-0.2-0.2-0.3c-0.1-0.1-0.2-0.2-0.2-0.3c-0.1-0.1-0.2-0.2-0.2-0.2
		c-0.1-0.1-0.2-0.2-0.3-0.3c-0.1-0.1-0.2-0.1-0.3-0.2c-0.1-0.1-0.2-0.2-0.3-0.2c-0.1-0.1-0.2-0.1-0.3-0.2c-0.1-0.1-0.2-0.1-0.3-0.2
		c-0.1-0.1-0.2-0.1-0.3-0.2c-0.1-0.1-0.2-0.1-0.3-0.1c-0.1-0.1-0.3-0.1-0.4-0.2c-0.1,0-0.2-0.1-0.3-0.1c-0.2-0.1-0.3-0.1-0.5-0.1
		c-0.1,0-0.1,0-0.2-0.1c-29.8-6.8-38.8-44.3-38.8-44.6c-0.7-2.9-3-5.2-5.9-5.8c-2.9-0.6-5.9,0.6-7.7,3
		C177.1,314.6,103.5,315,102.3,315l0,0l0,0c-0.3,0-0.5,0-0.8,0c-0.1,0-0.2,0-0.2,0c-0.2,0-0.3,0-0.5,0.1c-0.1,0-0.2,0.1-0.3,0.1
		c-0.1,0-0.3,0.1-0.4,0.1c-0.1,0-0.2,0.1-0.4,0.1c-0.1,0-0.2,0.1-0.3,0.1c-0.1,0.1-0.3,0.1-0.4,0.2c-0.1,0-0.2,0.1-0.3,0.1
		c-0.1,0.1-0.3,0.2-0.4,0.2c-0.1,0-0.2,0.1-0.2,0.1c-0.1,0.1-0.2,0.2-0.4,0.3c-0.1,0.1-0.2,0.1-0.2,0.2c-0.1,0.1-0.2,0.2-0.3,0.3
		c-0.1,0.1-0.2,0.1-0.2,0.2c-0.1,0.1-0.2,0.2-0.3,0.3c-0.1,0.1-0.1,0.2-0.2,0.2c-0.1,0.1-0.2,0.2-0.2,0.3c-0.1,0.1-0.1,0.2-0.2,0.3
		c-0.1,0.1-0.1,0.2-0.2,0.3c-0.1,0.1-0.1,0.2-0.2,0.3c-0.1,0.1-0.1,0.2-0.1,0.3c-0.1,0.1-0.1,0.2-0.2,0.4c0,0.1-0.1,0.2-0.1,0.3
		c0,0.1-0.1,0.3-0.1,0.4s-0.1,0.2-0.1,0.3c0,0.1-0.1,0.3-0.1,0.4s0,0.2-0.1,0.3c0,0.1,0,0.3-0.1,0.4c0,0.1,0,0.2,0,0.4
		c0,0.1,0,0.2,0,0.3c-2.5,0.3-5,0.8-7.3,1.5v-36.2C87,237.7,127.7,197,177.8,197z M77,358.5c0-10.3,7.5-18.9,17.3-20.6v41.3
		C84.5,377.3,77,368.8,77,358.5z M109.6,383.8v-53.9c19.4-1.2,71.1-7.6,104.4-42.5c5.7,13.5,17.6,33.2,39.8,40.8v55.5
		c0,35.4-28.8,64.3-64.3,64.3h-15.6C138.4,448,109.6,419.2,109.6,383.8z M173.8,463.3h15.6c7,0,13.7-0.9,20.2-2.6v24.7l-28.3,29.4
		l-27.7-27c0.1-0.4,0.1-0.8,0.1-1.3v-15.2l0,0v-10.6C160.1,462.3,166.9,463.3,173.8,463.3z M138.5,485.4v1.2c0,0.8,0.1,1.6,0.4,2.3
		c-0.8,2.7-0.2,5.7,1.9,7.7l29,28.2l-28.6,21.1l-22.9-47.1L138.5,485.4z M161.9,645.7l10.8-66.9h17.9l10.8,66.9H161.9z M339.6,645.7
		H296v-56.5c0-4.2-3.4-7.6-7.6-7.6s-7.6,3.4-7.6,7.6v56.5h-60.3l39-139.2l34.5,14.4c0.1,0.1,0.3,0.1,0.5,0.2c0.1,0,5.1,1.8,11.8,6.1
		l0,0c15.2,9.9,33.4,29.2,33.4,64.9L339.6,645.7L339.6,645.7z"/>
	<path class="st8" d="M190.5,390.7c4.2,0,7.6-3.4,7.6-7.6s-3.4-7.6-7.6-7.6h-5.6v-17.6c0-4.2-3.4-7.6-7.6-7.6
		c-4.2,0-7.6,3.4-7.6,7.6v25.2c0,4.2,3.4,7.6,7.6,7.6H190.5z"/>
</g>
</svg>
