<?xml version="1.0" encoding="utf-8"?>
<!-- Generator: Adobe Illustrator 19.0.0, SVG Export Plug-In . SVG Version: 6.00 Build 0)  -->
<svg version="1.1" id="Layer_1" xmlns="https://www.w3.org/2000/svg" xmlns:xlink="https://www.w3.org/1999/xlink" x="0px" y="0px"
	 viewBox="-62 185.9 470 470" style="enable-background:new -62 185.9 470 470;" xml:space="preserve">
<style type="text/css">
	.st0{fill:#1D3977;}
	.st1{fill:#EA5959;}
	.st2{fill:none;stroke:#1D3977;stroke-width:13;stroke-miterlimit:10;}
</style>
<g>
	<g>
		<g>
			<path class="st0" d="M370.5,198.4h-395c-20.7,0-37.5,16.8-37.5,37.5v300c0,20.7,16.8,37.5,37.5,37.5h145v55H68
				c-4.1,0-7.5,3.4-7.5,7.5c0,4.1,3.4,7.5,7.5,7.5h210c4.1,0,7.5-3.4,7.5-7.5c0-4.1-3.4-7.5-7.5-7.5h-52.5v-55h145
				c20.7,0,37.5-16.8,37.5-37.5v-300C408,215.2,391.2,198.4,370.5,198.4z M210.5,628.4h-75v-55h75V628.4z M393,535.9
				c0,12.4-10.1,22.5-22.5,22.5h-395c-12.4,0-22.5-10.1-22.5-22.5v-22.5h440V535.9z M393,498.4H-47V235.9
				c0-12.4,10.1-22.5,22.5-22.5h395c12.4,0,22.5,10.1,22.5,22.5V498.4z"/>
			<path class="st0" d="M370.5,228.4h-395c-4.1,0-7.5,3.4-7.5,7.5v240c0,4.1,3.4,7.5,7.5,7.5h355c4.1,0,7.5-3.4,7.5-7.5
				s-3.4-7.5-7.5-7.5H-17v-225h380v225h-32.5c-4.1,0-7.5,3.4-7.5,7.5s3.4,7.5,7.5,7.5h40c4.1,0,7.5-3.4,7.5-7.5v-240
				C378,231.7,374.6,228.4,370.5,228.4z"/>
		</g>
	</g>
</g>
<rect x="-22" y="270.7" class="st1" width="390" height="122.1"/>
<rect x="-22" y="270.7" class="st2" width="390" height="122.1"/>
</svg>
