<?xml version="1.0" encoding="utf-8"?>
<!-- Generator: Adobe Illustrator 19.0.0, SVG Export Plug-In . SVG Version: 6.00 Build 0)  -->
<svg version="1.1" id="Layer_1" xmlns="https://www.w3.org/2000/svg" xmlns:xlink="https://www.w3.org/1999/xlink" x="0px" y="0px"
	 viewBox="-41 164.9 512 512" style="enable-background:new -41 164.9 512 512;" xml:space="preserve">
<style type="text/css">
	.st0{fill:#A4B7EA;}
</style>
<g>
	<path class="st0" d="M76.7,540.2H57.3v-33.7h19.4v5.9H64.4v7.4h11.4v5.9H64.4v8.7h12.3V540.2z"/>
	<path class="st0" d="M111.7,523c0,5.6-1.6,9.8-4.7,12.8s-7.7,4.4-13.7,4.4h-9.6v-33.7h10.6c5.5,0,9.8,1.5,12.8,4.4
		C110.2,513.7,111.7,517.8,111.7,523z M104.3,523.2c0-7.2-3.2-10.9-9.6-10.9h-3.8v22H94C100.9,534.3,104.3,530.6,104.3,523.2z"/>
	<path class="st0" d="M118.7,540.2v-33.7h7.2v33.7H118.7z"/>
	<path class="st0" d="M147.4,540.2h-7.2v-27.8h-9.2v-6h25.5v6h-9.2V540.2z"/>
	<path class="st0" d="M182.4,540.2l-2.4-8h-12.3l-2.4,8h-7.7l11.9-33.9h8.7l12,33.9H182.4z M178.2,526.2c-2.3-7.3-3.5-11.4-3.8-12.3
		c-0.3-1-0.5-1.7-0.6-2.3c-0.5,2-2,6.8-4.4,14.6H178.2z"/>
	<path class="st0" d="M201.5,527.3v12.9h-7.2v-33.7h9.8c4.6,0,8,0.8,10.2,2.5c2.2,1.7,3.3,4.2,3.3,7.6c0,2-0.5,3.8-1.6,5.3
		c-1.1,1.5-2.6,2.8-4.6,3.6c5.1,7.6,8.4,12.5,9.9,14.7h-7.9l-8.1-12.9H201.5z M201.5,521.5h2.3c2.3,0,3.9-0.4,5-1.1
		c1.1-0.8,1.6-1.9,1.6-3.6c0-1.6-0.6-2.7-1.6-3.4c-1.1-0.7-2.8-1-5.1-1h-2.2V521.5z"/>
	<path class="st0" d="M258.5,540.2l-2.4-8h-12.3l-2.4,8h-7.7l11.9-33.9h8.7l12,33.9H258.5z M254.3,526.2c-2.3-7.3-3.5-11.4-3.8-12.3
		c-0.3-1-0.5-1.7-0.6-2.3c-0.5,2-2,6.8-4.4,14.6H254.3z"/>
	<path class="st0" d="M270.4,540.2v-33.7h7.2v27.8h13.7v5.9H270.4z"/>
	<path class="st0" d="M297.1,506.5h10.5c4.8,0,8.3,0.7,10.4,2c2.2,1.4,3.2,3.5,3.2,6.5c0,2-0.5,3.7-1.4,5c-0.9,1.3-2.2,2.1-3.8,2.3
		v0.2c2.1,0.5,3.7,1.4,4.6,2.7s1.4,3,1.4,5.2c0,3.1-1.1,5.5-3.3,7.2c-2.2,1.7-5.2,2.6-9.1,2.6h-12.6V506.5z M304.3,519.8h4.2
		c1.9,0,3.3-0.3,4.2-0.9c0.9-0.6,1.3-1.6,1.3-3c0-1.3-0.5-2.2-1.4-2.8c-0.9-0.6-2.4-0.8-4.5-0.8h-3.8V519.8z M304.3,525.5v8.8h4.7
		c2,0,3.4-0.4,4.4-1.1s1.4-1.9,1.4-3.5c0-2.8-2-4.2-6-4.2H304.3z"/>
	<path class="st0" d="M356.3,506.5v21.8c0,2.5-0.6,4.7-1.7,6.6c-1.1,1.9-2.7,3.3-4.8,4.3c-2.1,1-4.6,1.5-7.5,1.5
		c-4.3,0-7.7-1.1-10.1-3.3c-2.4-2.2-3.6-5.3-3.6-9.1v-21.7h7.1v20.7c0,2.6,0.5,4.5,1.6,5.7c1,1.2,2.8,1.8,5.2,1.8
		c2.3,0,4-0.6,5.1-1.8c1.1-1.2,1.6-3.1,1.6-5.8v-20.6H356.3z"/>
	<path class="st0" d="M378.9,540.2l-8.1-26.5h-0.2c0.3,5.4,0.4,9,0.4,10.8v15.7h-6.4v-33.7h9.7l8,25.8h0.1l8.5-25.8h9.7v33.7H394
		v-16c0-0.8,0-1.6,0-2.6c0-1,0.1-3.6,0.3-7.8h-0.2l-8.7,26.4H378.9z"/>
</g>
<g>
	<g>
		<path class="st0" d="M288.1,440.9c-10.1,10.2-20.2,20.4-30.3,30.6c-35.4,0-70.8,0-106.4,0c0-52.9,0-105.9,0-158.8
			c23.6,0,47.3,0.1,70.9,0.1c6.3,0,12.6,0.1,19,0.1c0.4,0.5,0.7,0.9,1.1,1.4c0,0-0.1,0-0.1,0c-0.5,0-0.8,0.3-0.8,0.8
			c-4.5,4.5-9,9-13.5,13.5c-0.4,0.2-0.7,0.4-1.1,0.5c-19.4,0-38.8,0-58.2,0c-0.3-0.4-0.5-0.3-0.7,0.1c0,11.4-0.1,22.7-0.1,34.1
			c0,28.9,0,57.9,0,86.8c0,1.4,0,2.8,0,4.3c0.5,0.2,0.8,0.5,1.1,0.5c26.2,0,52.4,0,78.6-0.1c1.4-0.9,0.8-2.4,0.8-3.6
			c0-7,0-13.9,0-20.9c7.9,0,15.7,0,23.3,0c1.2-1.5,0.8-2.9,0.8-4.2c0-12.3,0.1-24.6,0-36.9c0-2.1,0.6-3.6,2.1-5
			c4.4-4.2,8.7-8.6,13-12.8c0.4,0.1,0.7,0.1,1.1,0.2c0,0.5,0,1,0,1.4c-0.7,0.6-0.7,1.5-0.7,2.3C288,397.2,288.1,419,288.1,440.9z"/>
		<path class="st0" d="M241,395.1c-9.5-9.5-18.8-18.8-28.4-28.4c0.1-0.8,1.3-1.4,2.1-2.2c19.4-19.5,38.9-38.9,58.4-58.4
			c3.4-3.4,3.4-3.4,7,0.1c7.6,7.6,15.2,15.3,22.9,22.8c1.6,1.6,1.9,2.6,0.1,4.4c-20.3,20.2-40.5,40.4-60.7,60.6
			C241.9,394.4,241.4,394.7,241,395.1z"/>
		<path class="st0" d="M195.2,411.8c3.1-11.8,5.4-23.3,8.9-34.4c0.4-0.1,0.8-0.3,1.2-0.4c8.5,9,17,18,25.4,26.8
			C219.4,406.3,207.6,409,195.2,411.8z"/>
		<path class="st0" d="M288.1,440.9c0-21.9-0.1-43.7-0.1-65.6c0-0.8,0-1.7,0.7-2.3c0,22,0.1,44,0.1,65.9
			C288.8,439.7,288.8,440.4,288.1,440.9z"/>
		<path class="st0" d="M248.4,430.4c0,7,0,13.9,0,20.9c0,1.2,0.5,2.6-0.8,3.6c0-7.1,0-14.2,0-21.4
			C247.6,432.4,246.9,431.1,248.4,430.4z"/>
		<path class="st0" d="M242.3,314.3c-0.4-0.5-0.7-0.9-1.1-1.4c0.6-0.2,1.4-0.5,1.8,0.1C243.5,313.6,242.8,314,242.3,314.3z"/>
		<path class="st0" d="M241.4,315.1c0-0.5,0.3-0.8,0.8-0.8C241.9,314.6,241.7,314.9,241.4,315.1z"/>
		<path class="st0" d="M168,329.3c0.2-0.4,0.4-0.5,0.7-0.1C168.4,329.2,168.2,329.2,168,329.3z"/>
		<path class="st0" d="M226.9,329.1c0.4-0.2,0.7-0.4,1.1-0.5C227.6,328.8,227.2,329,226.9,329.1z"/>
		<path class="st0" d="M288.7,371.6c-0.4-0.1-0.7-0.1-1.1-0.2C288.1,370.7,288.5,370.3,288.7,371.6z"/>
	</g>
</g>
</svg>
