<?xml version="1.0" encoding="utf-8"?>
<!-- Generator: Adobe Illustrator 19.0.0, SVG Export Plug-In . SVG Version: 6.00 Build 0)  -->
<svg version="1.1" id="Capa_1" xmlns="https://www.w3.org/2000/svg" xmlns:xlink="https://www.w3.org/1999/xlink" x="0px" y="0px"
	 viewBox="-41 164.9 512 512" style="enable-background:new -41 164.9 512 512;" xml:space="preserve">
<style type="text/css">
	.st0{opacity:0.1;enable-background:new    ;}
	.st1{fill:#C4C4C4;}
	.st2{opacity:0.1;}
	.st3{fill:#054FD1;}
	.st4{fill:#FFFFFF;}
	.st5{fill:#054FD1;stroke:#000000;stroke-width:14;stroke-miterlimit:10;}
	.st6{fill:#C4C4C4;stroke:#000000;stroke-width:14;stroke-miterlimit:10;}
	.st7{fill:#EFEFEF;stroke:#000000;stroke-width:8;stroke-miterlimit:10;}
	.st8{fill:#FFFFFC;}
	.st9{fill:none;stroke:#000000;stroke-width:12;stroke-miterlimit:10;}
</style>
<path class="st0" d="M174.6,313.9v-11.7c0-4.3,3.6-7.9,7.9-7.9h-21.7c-4.3,0-7.9,3.6-7.9,7.9v11.7
	C152.8,313.9,174.6,313.9,174.6,313.9z"/>
<path class="st0" d="M137.2,341.9c0-0.3-0.1-0.6-0.1-0.9v-19.1c0-4.3,3.6-7.9,7.9-7.9h-26.1c-4.3,0-7.9,3.6-7.9,7.9v19.1
	c0,0.3,0,0.6,0.1,0.9C111.1,341.9,137.2,341.9,137.2,341.9z"/>
<path class="st1" d="M113.3,374.5l8.7,123.1c24.2,17.7,40,46.2,40,78.5v30.4c0,13.6-2.8,26.7-8.2,39c-1.5,3.5-4.9,5.7-8.7,5.7h132.4
	c-12.8-8.2-21.3-22.5-21.3-38.8c0-25.5,20.6-46.1,46.1-46.1c7.3,0,14.1,1.7,20.2,4.7l19.9-196.4L113.3,374.5L113.3,374.5z"/>
<path class="st0" d="M113.3,374.5l8.7,123.1c10.2,7.4,18.9,16.8,25.6,27.5l-10.7-150.6H113.3L113.3,374.5z"/>
<g class="st2">
	<path d="M118.7,370.6v-24.8c0-2.2,1.8-3.9,3.9-3.9H99.4c-2.2,0-3.9,1.8-3.9,3.9v24.8c0,2.2,1.8,3.9,3.9,3.9h23.3
		C120.5,374.5,118.7,372.8,118.7,370.6z"/>
</g>
<circle class="st3" cx="302.4" cy="612.4" r="46.1"/>
<g>
	<circle class="st3" cx="302.4" cy="612.4" r="17.3"/>
	<path class="st3" d="M96.6,406.2H33.5c-2.2,0-3.1,1.5-2,3.4l20.4,35.4h26.2l20.4-35.4C99.7,407.8,98.8,406.2,96.6,406.2z"/>
</g>
<g>
	<path class="st3" d="M62.7,445.1l-3.6-34.9c-0.2-2.2-2.2-3.9-4.4-3.9H33.5c-2.2,0-3.1,1.5-2,3.4l20.4,35.4L62.7,445.1
		C62.7,445.1,62.7,445.1,62.7,445.1z"/>
	<path class="st3" d="M93.4,483.3H36.7C-3,495.5-32,532.5-32,576.1v30.4c0,13.6,2.8,26.7,8.2,39c1.5,3.5,4.9,5.7,8.7,5.7h160.2
		c3.8,0,7.2-2.2,8.7-5.7c5.4-12.3,8.2-25.5,8.2-39v-30.4C162,532.5,133.1,495.5,93.4,483.3z"/>
</g>
<path class="st0" d="M58.4,483.3H36.7C-3,495.5-32,532.5-32,576.1v30.4c0,13.6,2.8,26.7,8.2,39c1.5,3.5,4.9,5.7,8.7,5.7H6.6
	c-3.8,0-7.2-2.2-8.7-5.7c-5.4-12.3-8.2-25.5-8.2-39v-30.4C-10.3,532.5,18.7,495.5,58.4,483.3z"/>
<path class="st3" d="M90.4,460.1V449c0-2.2-1.8-3.9-3.9-3.9H43.6c-2.2,0-3.9,1.8-3.9,3.9v11.1H90.4z"/>
<path class="st3" d="M103.1,479.5c0.6,2.1-0.8,3.8-2.9,3.8H29.9c-2.2,0-3.5-1.7-2.9-3.8l4.4-15.6c0.6-2.1,2.8-3.8,5-3.8H94
	c2.2,0,4.4,1.7,5,3.8L103.1,479.5z"/>
<g class="st2">
	<path d="M48.6,479.5l4.4-15.6c0.6-2.1,2.8-3.8,5-3.8H36.4c-2.2,0-4.4,1.7-5,3.8L27,479.5c-0.6,2.1,0.7,3.8,2.9,3.8h21.6
		C49.3,483.3,48,481.6,48.6,479.5z"/>
</g>
<path d="M356.7,335.9H355l0-14.1c0-7.6-6.2-13.8-13.8-13.8h-28v-5.8c0-7.6-6.2-13.8-13.8-13.8H160.7c-7.6,0-13.8,6.2-13.8,13.8v5.8
	h-28c-7.6,0-13.8,6.2-13.8,13.8v14.1h-5.7c-5.4,0-9.9,4.4-9.9,9.9v24.8c0,5.4,4.4,9.9,9.9,9.9h8.4l7.5,105.9
	c-2.1-1.2-4.3-2.3-6.5-3.3c0.5-1.6,0.5-3.3,0-5l-4.2-15.6c-1-3.9-4.4-7-8.4-7.9V449c0-4.8-3.5-8.8-8-9.7l15.4-26.7
	c1.6-2.7,1.7-5.9,0.2-8.3c-1.4-2.5-4.2-4-7.3-4H54.7H33.5c-3.2,0-5.9,1.5-7.3,4c-1.3,2.2-1.3,4.8-0.3,7.3c0.2,0.4,0.3,0.7,0.5,1
	l15.4,26.7c-4.6,0.9-8,4.9-8,9.7v5.5c-3.8,1-7,4-8.1,7.8l-4.4,15.6c-0.5,1.7-0.5,3.4,0,5c-34.9,16.5-59.2,52-59.2,93.1v30.4
	c0,14.4,2.9,28.3,8.7,41.4c2.5,5.6,8,9.2,14.1,9.2h82.8c3.3,0,5.9-2.7,5.9-5.9c0-3.3-2.7-5.9-5.9-5.9h-82.8c-1.4,0-2.7-0.8-3.3-2.1
	c-5.1-11.6-7.7-23.9-7.7-36.6v-30.4c0-40.7,26.8-75.2,63.6-86.9h54.9c36.9,11.7,63.7,46.2,63.7,86.9v30.4c0,12.7-2.6,25.1-7.7,36.6
	c-0.6,1.3-1.9,2.1-3.3,2.1H59.3c-3.3,0-5.9,2.7-5.9,5.9c0,3.3,2.7,5.9,5.9,5.9h216.6c7.8,4.6,16.8,7.3,26.5,7.3
	c28.7,0,52-23.3,52-52c0-19-10.3-35.7-25.5-44.8l19-187.2h8.8c5.4,0,9.9-4.4,9.9-9.9v-24.8C366.5,340.4,362.1,335.9,356.7,335.9z
	 M158.8,302.2c0-1.1,0.9-2,2-2h138.6c1.1,0,2,0.9,2,2v5.8l-142.6,0V302.2z M33.8,477.4l3.2-11.4h56.4l3,11.4H33.8z M84.4,451v3.2
	H45.6V451H84.4z M74.7,439.1H68l-2.8-27h25L74.7,439.1z M53.3,412.2l2.8,27h-0.8l-15.6-27H53.3z M317.5,562.6
	c-4.8-1.5-9.9-2.2-15.1-2.2c-11.3,0-22,3.5-31,10.3c-2.6,2-3.2,5.7-1.2,8.3c2,2.6,5.7,3.2,8.3,1.2c7-5.2,15.3-7.9,24-7.9
	c22.2,0,40.2,18,40.2,40.2s-18,40.2-40.2,40.2c-22.2,0-40.2-18-40.2-40.2c0-4,0.6-8,1.8-11.8c1-3.1-0.8-6.4-3.9-7.4
	c-3.1-1-6.4,0.8-7.4,3.9c-1.5,4.9-2.3,10.1-2.3,15.3c0,12.5,4.4,23.9,11.8,32.9H160.4c5-12.3,7.6-25.4,7.6-38.8v-30.4
	c0-33.2-15.8-62.7-40.2-81.6l-8.1-114.1H336L317.5,562.6z M354.7,368.6H101.3v-20.8h172c3.3,0,5.9-2.7,5.9-5.9s-2.7-5.9-5.9-5.9
	H116.9v-14.1c0-1.1,0.9-2,2-2l222.3,0c1.1,0,2,0.9,2,2l0,14.1h-36.7c-3.3,0-5.9,2.7-5.9,5.9s2.7,5.9,5.9,5.9h48.2V368.6z"/>
<path d="M302.4,635.6c12.8,0,23.2-10.4,23.2-23.2c0-12.8-10.4-23.2-23.2-23.2c-12.8,0-23.2,10.4-23.2,23.2
	C279.2,625.2,289.6,635.6,302.4,635.6z M302.4,601c6.3,0,11.4,5.1,11.4,11.4c0,6.3-5.1,11.4-11.4,11.4c-6.3,0-11.4-5.1-11.4-11.4
	C291,606.1,296.1,601,302.4,601z"/>
<path d="M181.7,457.8c2.8,1.7,6.4,0.8,8.1-2c7.6-12.6,20.9-20,35.5-20c19.7,0,36.2,13.8,40.4,32.2l-0.2-0.2c-2.3-2.3-6.1-2.3-8.4,0
	c-2.3,2.3-2.3,6.1,0,8.4l10.7,10.7c1.1,1.1,2.6,1.7,4.2,1.7c1.6,0,3.1-0.6,4.2-1.7l10.7-10.7c2.3-2.3,2.3-6.1,0-8.4
	c-2.3-2.3-6.1-2.3-8.4,0l-0.6,0.6c-4.3-25.2-26.2-44.4-52.6-44.4c-18.8,0-35.9,9.6-45.7,25.8C178,452.5,178.9,456.1,181.7,457.8z"/>
<path d="M171.7,483.9l0.7-0.7c3,26.6,25.6,47.3,53,47.3c19.4,0,37.3-10.6,46.7-27.5c1.6-2.9,0.5-6.5-2.3-8.1s-6.5-0.5-8.1,2.3
	c-7.3,13.2-21.2,21.4-36.3,21.4c-20.7,0-37.8-15.2-41-35l0.3,0.3c1.2,1.2,2.7,1.7,4.2,1.7c1.5,0,3-0.6,4.2-1.7
	c2.3-2.3,2.3-6.1,0-8.4l-10.7-10.7c-2.3-2.3-6.1-2.3-8.4,0l-10.7,10.7c-2.3,2.3-2.3,6.1,0,8.4C165.6,486.2,169.3,486.2,171.7,483.9z
	"/>
<rect x="67.7" y="246.8" class="st4" width="369.3" height="137.2"/>
<path d="M347.3,386.3H109v-13.1h236.8c1.5,0,2.6,1.2,2.5,2.7L347.3,386.3z"/>
<path class="st5" d="M267.7,238.9l-5.2-10.2c-1.9-3.8-6.6-5.3-10.4-3.4l-121,62.1c-3.8,1.9-5.3,6.6-3.4,10.4l5.2,10.2L267.7,238.9z"
	/>
<path class="st6" d="M316.7,244.6c-0.1-0.3-0.2-0.6-0.4-0.8l-8.6-16.7c-1.9-3.8-6.6-5.3-10.4-3.4l-194,99.6
	c-3.8,1.9-5.3,6.6-3.4,10.4l8.6,16.7c0.1,0.3,0.3,0.5,0.5,0.8C109.1,351.2,316.7,244.6,316.7,244.6z"/>
<path class="st6" d="M339.7,264.4c1,1.9,0.2,4.2-1.7,5.2L113.5,384.9c-1.9,1-4.2,0.2-5.2-1.7l-11.1-21.6c-1-1.9-0.2-4.2,1.7-5.2
	l224.5-115.3c1.9-1,4.2-0.2,5.2,1.7L339.7,264.4z"/>
<path class="st7" d="M447.6,300.2l-63.4-40c-3.1-1.9-7.2-1-9.1,2.1l-40,63.4c-1.9,3.1-1,7.2,2.1,9.1l63.4,40c3.1,1.9,7.2,1,9.1-2.1
	l40-63.4C451.6,306.2,450.7,302.2,447.6,300.2z"/>
<polygon class="st3" points="390.5,318.1 417.1,312 421.8,332.6 438.5,306.1 382.8,271 362.2,303.6 386,298.2 "/>
<polygon points="417.1,312 390.5,318.1 386,298.2 362.2,303.6 353,318.2 408.8,353.3 421.8,332.6 "/>
<circle class="st8" cx="403" cy="299.7" r="5.8"/>
<circle class="st9" cx="302.4" cy="612.4" r="46.1"/>
</svg>
