<?xml version="1.0" encoding="utf-8"?>
<!-- Generator: Adobe Illustrator 19.0.0, SVG Export Plug-In . SVG Version: 6.00 Build 0)  -->
<svg version="1.1" id="Layer_1" xmlns="https://www.w3.org/2000/svg" xmlns:xlink="https://www.w3.org/1999/xlink" x="0px" y="0px"
	 viewBox="-41 164.9 512 512" style="enable-background:new -41 164.9 512 512;" xml:space="preserve">
<style type="text/css">
	.st0{fill:#FF7866;}
	.st1{fill:#32A8EA;}
</style>
<rect x="-33.4" y="351.6" class="st0" width="496.8" height="265.6"/>
<circle class="st1" cx="215" cy="248.2" r="23.6"/>
<path d="M393.4,609.6H-25.8v-182c0-4.2-3.4-7.6-7.6-7.6s-7.6,3.4-7.6,7.6v189.6c0,4.2,3.4,7.6,7.6,7.6h426.8c4.2,0,7.6-3.4,7.6-7.6
	S397.6,609.6,393.4,609.6z"/>
<path d="M463.4,344H321.5l-79.7-79.7c7.2-12,5.6-27.8-4.7-38.1c-12.2-12.2-32-12.2-44.2,0c-10.3,10.3-11.9,26.1-4.7,38.1L108.5,344
	H-33.4c-4.2,0-7.6,3.4-7.6,7.6v50.7c0,4.2,3.4,7.6,7.6,7.6s7.6-3.4,7.6-7.6v-43.1h481.6v250.4h-37c-4.2,0-7.6,3.4-7.6,7.6
	c0,4.2,3.4,7.6,7.6,7.6h44.6c4.2,0,7.6-3.4,7.6-7.6V351.6C471,347.4,467.6,344,463.4,344z M203.7,236.9c3.1-3.1,7.2-4.7,11.3-4.7
	s8.2,1.6,11.3,4.7c6.3,6.3,6.3,16.4,0,22.7c-6.3,6.3-16.4,6.3-22.7,0C197.4,253.3,197.4,243.1,203.7,236.9z M198.9,275
	c4.9,2.9,10.5,4.4,16.1,4.4s11.1-1.5,16.1-4.4l69,69H130L198.9,275z"/>
<g>
	<path d="M66,459.8c-0.7,1.1-1.6,2.8-2.8,5.1c-0.4,1.1-1,2.6-2,4.5c-0.2,0.3-0.5,0.5-0.8,0.5c0,0-1.6-0.6-4.9-1.8
		c-3.3-1.2-6.1-1.8-8.2-1.8c-6.3,0-9.4,2.8-9.4,8.3c0,3.1,2.2,5.7,6.6,8c7.4,3.9,11.5,6.1,12.3,6.7c4.4,3.5,6.6,8.3,6.6,14.2
		c0,7.6-3,13.7-9.1,18.1c-5.4,4-12.1,5.9-20,5.9c-3.7,0-5.7-0.4-5.9-1.2c-0.1-1.3-0.4-3.2-0.9-5.7c-0.3-1-0.7-2.6-1.3-4.6
		c-0.1-0.3-0.2-0.6-0.2-0.9c0-0.5,0.3-0.7,0.8-0.7c0.8,0,2.1,0.1,3.8,0.3c1.7,0.2,3,0.3,3.8,0.3c10.6,0,15.9-3.4,15.9-10.2
		c0-3.3-2.1-6.2-6.4-8.7c-7.8-4.4-11.8-6.7-11.9-6.9c-4.3-3.5-6.4-8.2-6.4-14c0-6.3,2.1-11.4,6.2-15.2c4.1-3.7,9.3-5.5,15.8-5.5
		c2.7,0,5.9,0.4,9.4,1.3c3.9,1,6.8,2.2,8.7,3.6C65.7,459.3,65.9,459.5,66,459.8z"/>
	<path d="M163.5,525.8c0,0.4-0.4,0.6-1.2,0.6c-0.6,0-1.6-0.1-2.8-0.2c-1.2-0.1-2.2-0.2-2.8-0.2c-0.6,0-1.6,0.1-2.9,0.2
		c-1.3,0.1-2.3,0.2-2.9,0.2c-1,0-2.2-2.6-3.7-7.8s-3-7.8-4.5-7.9c-1.3-0.1-4.6-0.1-9.9-0.1h-8.1c-5.6,0-8.8,0-9.6,0.1
		c-1.2,0.1-2.5,2.7-3.9,7.9c-1.4,5.2-2.4,7.7-3.2,7.7H96.3c-0.7,0-1-0.2-1-0.7c0-0.3,0.2-1.1,0.7-2.3l12.5-34.3
		c1.1-2.8,4.3-10.7,9.6-23.9c1-2.2,2.3-5.5,3.9-9.9c0.4-1.3,0.9-1.9,1.3-1.9c0.6,0,1.6,0.1,2.9,0.3c1.3,0.2,2.2,0.3,2.9,0.3
		c0.6,0,1.5-0.1,2.8-0.3c1.2-0.2,2.2-0.3,2.7-0.3c0.3,0,0.7,0.6,1.3,1.9c0.8,1.9,4.9,12.2,12.1,30.9
		C158.3,512.3,163.5,525.6,163.5,525.8z M139.6,497.5c0-1-1.5-5.4-4.6-13.3c-3-7.6-5.1-12.7-6.3-15c-7.1,18-10.6,27.4-10.6,28.3
		c0,1.2,1.3,1.8,3.9,2c0.1,0,1.8,0.1,5,0.1h5.3C137.2,499.6,139.6,498.9,139.6,497.5z"/>
	<path d="M217.9,439.7c-0.5,1.4-4.3,4-11.3,7.8c-6.9,3.7-11.1,5.6-12.7,5.6c-0.6,0-1.1-0.9-1.6-2.6c-0.3-1.3-0.5-2.5-0.5-3.4
		c0-0.3,0.3-0.7,1-1c5.6-2.8,11.5-6.5,17.5-11.1c0.1-0.1,0.4-0.3,0.8-0.5c0.2,0.1,0.4,0.2,0.7,0.5c1.5,1.2,3.4,2.6,5.7,4
		C217.5,439.1,217.7,439.3,217.9,439.7z M209.5,525.3c0,0.7-0.5,1.1-1.5,1.1c-0.6,0-1.6-0.1-2.8-0.2c-1.3-0.1-2.2-0.2-2.8-0.2
		c-0.6,0-1.6,0.1-2.9,0.2c-1.3,0.1-2.2,0.2-2.8,0.2c-0.9,0-1.3-0.4-1.3-1.2c0-3.9,0.2-9.7,0.5-17.6c0.4-7.8,0.5-13.7,0.5-17.6
		c0-3.8-0.2-9.5-0.5-17.1c-0.4-7.6-0.5-13.3-0.5-17.1c0-0.9,0.4-1.3,1.2-1.3c0.6,0,1.6,0.1,3,0.2c1.3,0.1,2.3,0.2,3,0.2
		c0.6,0,1.5-0.1,2.8-0.2s2.1-0.2,2.8-0.2c0.9,0,1.3,0.3,1.3,1c0,3.8-0.1,9.6-0.4,17.2c-0.3,7.6-0.4,13.4-0.4,17.2
		c0,3.9,0.1,9.8,0.4,17.7C209.4,515.5,209.5,521.4,209.5,525.3z"/>
	<path d="M309.5,490.1c0,9.6-2.7,17.9-8.2,24.9c-5.9,7.6-13.5,11.4-22.8,11.4c-1.8,0-4.4-0.1-8-0.2c-3.6-0.1-6.2-0.2-8-0.2
		c-1.6,0-4,0.1-7.2,0.2c-3.2,0.1-5.6,0.2-7.2,0.2c-0.9,0-1.3-0.4-1.3-1.3c0-3.7,0.1-9.3,0.4-16.8c0.3-7.5,0.4-13.1,0.4-16.9
		c0-4-0.1-9.9-0.4-17.9s-0.4-13.9-0.4-17.9c0-0.7,0.4-1.1,1.3-1.1c1.3,0,3.1,0,5.7,0.1c2.5,0,4.4,0.1,5.7,0.1c1.2,0,2.9,0,5.3-0.1
		c2.4,0,4.2-0.1,5.4-0.1c11.8,0,20.7,2.2,26.5,6.7c4.2,3.2,7.4,7.5,9.7,12.9C308.4,479.3,309.5,484.6,309.5,490.1z M296.9,490.1
		c0-7.4-2.1-13.4-6.3-18c-4.4-4.8-10.2-7.2-17.5-7.2c-6,0-8.5,0-7.3-0.1c-4,0.2-6,0.9-6,2.2c0,2.6-0.1,6.6-0.2,11.8
		c-0.1,5.2-0.2,9.2-0.2,11.8c0,2.6,0.1,6.5,0.2,11.7c0.1,5.2,0.2,9.1,0.2,11.7c0,1.3,2,2,6.1,2.3c-0.5,0,1.9-0.1,7.5-0.1
		c3.9,0,7-0.4,9.4-1.2c2.9-1,5.4-2.9,7.7-5.7C294.8,504,296.9,497.7,296.9,490.1z"/>
	<path d="M407.2,525.8c0,0.4-0.4,0.6-1.2,0.6c-0.6,0-1.6-0.1-2.8-0.2c-1.2-0.1-2.2-0.2-2.8-0.2c-0.6,0-1.6,0.1-2.9,0.2
		c-1.3,0.1-2.3,0.2-2.9,0.2c-1,0-2.2-2.6-3.7-7.8c-1.5-5.2-3-7.8-4.5-7.9c-1.3-0.1-4.6-0.1-9.9-0.1h-8.1c-5.6,0-8.8,0-9.6,0.1
		c-1.2,0.1-2.5,2.7-3.9,7.9c-1.4,5.2-2.4,7.7-3.2,7.7h-11.5c-0.7,0-1-0.2-1-0.7c0-0.3,0.2-1.1,0.7-2.3l12.5-34.3
		c1.1-2.8,4.3-10.7,9.6-23.9c1-2.2,2.3-5.5,3.9-9.9c0.4-1.3,0.9-1.9,1.3-1.9c0.6,0,1.6,0.1,2.9,0.3s2.2,0.3,2.9,0.3
		c0.6,0,1.5-0.1,2.8-0.3c1.2-0.2,2.2-0.3,2.7-0.3c0.3,0,0.7,0.6,1.3,1.9c0.8,1.9,4.9,12.2,12.1,30.9
		C402.1,512.3,407.2,525.6,407.2,525.8z M383.4,497.5c0-1-1.5-5.4-4.6-13.3c-3-7.6-5.1-12.7-6.3-15c-7.1,18-10.6,27.4-10.6,28.3
		c0,1.2,1.3,1.8,3.9,2c0.1,0,1.8,0.1,5,0.1h5.3C381,499.6,383.4,498.9,383.4,497.5z"/>
</g>
</svg>
