<?xml version="1.0" encoding="utf-8"?>
<!-- Generator: Adobe Illustrator 19.0.0, SVG Export Plug-In . SVG Version: 6.00 Build 0)  -->
<svg version="1.1" id="Layer_1" xmlns="https://www.w3.org/2000/svg" xmlns:xlink="https://www.w3.org/1999/xlink" x="0px" y="0px"
	 viewBox="0 0 88.7 125.5" style="enable-background:new 0 0 88.7 125.5;" xml:space="preserve">
<style type="text/css">
	.st0{fill:#010101;}
	.st1{fill:#FFFFFF;}
	.st2{fill:#3875A9;}
	.st3{fill:#7CACDC;}
</style>
<g id="XMLID_488_">
	<path id="XMLID_507_" class="st0" d="M68.4,86.9l-14.6,2.9l-28.4-4.4l-8.5-43.2c-0.3-1.6,0.7-3.2,2.4-3.5l41.1-8.1
		c1.6-0.3,3.2,0.7,3.5,2.4l9,45.7c0.7,3.4-1.1,6.8-4.2,8.2L68.4,86.9z M53.7,86.7L67.4,84c1.8-0.9,2.7-2.9,2.4-4.8l-9-45.7
		l-41.1,8.1l8.1,41.2L53.7,86.7z"/>
	<path id="XMLID_34_" class="st1" d="M53.7,86.7L67.4,84c1.8-0.9,2.7-2.9,2.4-4.8l-9-45.7l-41.1,8.1l8.1,41.2L53.7,86.7z"/>
	<g id="XMLID_502_">
		<circle id="XMLID_33_" class="st1" cx="71.4" cy="60.1" r="10.8"/>
		<g id="XMLID_503_">
			<circle id="XMLID_32_" class="st2" cx="71.4" cy="60.1" r="8.2"/>
		</g>
	</g>
	<g id="XMLID_497_">
		<path id="XMLID_31_" class="st3" d="M66.4,85.8c-3.2,0.6-6.3-1.6-6.9-4.8l-0.7-3.5l-0.1,0l-36.4,7.2c0,0.1,0,0.2,0.1,0.3
			c1,5,5.9,8.4,11,7.4L66.4,85.8z"/>
		<path id="XMLID_498_" class="st0" d="M66.6,87.2l-33.1,6.5c-5.9,1.2-11.6-2.7-12.7-8.5c0-0.1,0-0.2-0.1-0.3l-0.2-1.5l39.4-7.8l1,5
			c0.5,2.4,2.8,4.1,5.2,3.7L66.6,87.2z M24.1,85.8c1.3,3.6,5,5.8,8.9,5l27.4-5.4c-1.2-1.1-2-2.5-2.4-4.2l-0.4-2L24.1,85.8z"/>
	</g>
	<path id="XMLID_28_" class="st0" d="M53.9,46.3L30,51c-0.8,0.2-1.6-0.4-1.8-1.2c-0.2-0.8,0.4-1.6,1.2-1.8l23.9-4.7
		c0.8-0.2,1.6,0.4,1.8,1.2C55.3,45.3,54.7,46.1,53.9,46.3z"/>
	<path id="XMLID_27_" class="st0" d="M55.8,55.9l-23.9,4.7c-0.8,0.2-1.6-0.4-1.8-1.2c-0.2-0.8,0.4-1.6,1.2-1.8L55.2,53
		c0.8-0.2,1.6,0.4,1.8,1.2C57.2,55,56.6,55.8,55.8,55.9z"/>
	<path id="XMLID_26_" class="st0" d="M46.6,68.4L34,70.9c-0.8,0.2-1.6-0.4-1.8-1.2c-0.2-0.8,0.4-1.6,1.2-1.8L46,65.5
		c0.8-0.2,1.6,0.4,1.8,1.2C47.9,67.5,47.4,68.3,46.6,68.4z"/>
	<polygon id="XMLID_25_" class="st1" points="75.4,59 70.5,55.6 67.3,60.6 69.7,60.2 70.6,65.1 74,64.4 73,59.5 	"/>
	<g id="XMLID_489_">
		<circle id="XMLID_24_" class="st1" cx="14.9" cy="44.1" r="9"/>
		<circle id="XMLID_23_" class="st2" cx="14.9" cy="44.1" r="6.8"/>
		<polygon id="XMLID_22_" class="st1" points="11.1,45.5 15.4,48.6 18.3,44.1 16.2,44.5 15.3,40.2 12.3,40.8 13.2,45.1 		"/>
	</g>
</g>
</svg>
