<?xml version="1.0" encoding="utf-8"?>
<!-- Generator: Adobe Illustrator 19.0.0, SVG Export Plug-In . SVG Version: 6.00 Build 0)  -->
<svg version="1.1" id="Capa_1" xmlns="https://www.w3.org/2000/svg" xmlns:xlink="https://www.w3.org/1999/xlink" x="0px" y="0px"
	 viewBox="-41 164.9 512 512" style="enable-background:new -41 164.9 512 512;" xml:space="preserve">
<style type="text/css">
	.st0{fill:#D2EFFA;}
	.st1{fill:#6C85C2;}
	.st2{fill:#4C50A1;}
</style>
<path class="st0" d="M463,622.7c0,25.5-20.7,46.2-46.2,46.2H13.2c-25.5,0-46.2-20.7-46.2-46.2V219.1c0-25.5,20.7-46.2,46.2-46.2
	h403.5c25.5,0,46.2,20.7,46.2,46.2V622.7z"/>
<path class="st1" d="M421,614.4c0,7.5-6,13.5-13.5,13.5h-388c-7.5,0-13.5-6-13.5-13.5v-388c0-7.5,6-13.5,13.5-13.5h388
	c7.5,0,13.5,6,13.5,13.5V614.4z"/>
<path class="st0" d="M399,593.9c0,6.6-5.4,12-12,12H42c-6.6,0-12-5.4-12-12v-345c0-6.6,5.4-12,12-12h345c6.6,0,12,5.4,12,12V593.9z"
	/>
<path class="st1" d="M41.5,604.9h345c6.6,0,12.5-4.9,12.5-11.5v-98.5l-82.2-82c-5-5-13.2-5-18.2,0L198.4,513.1l-53-53
	c-5-5-12.9-5-17.8,0L30,557.9v35.5C30,600,34.9,604.9,41.5,604.9z"/>
<circle class="st1" cx="207.6" cy="356.9" r="33.5"/>
<path class="st1" d="M127.6,460.1L30,557.9v35.5c0,6.6,4.9,11.5,11.5,11.5h249.1l-92.3-92.1L145.5,460
	C140.5,455,132.6,455.1,127.6,460.1z"/>
<path class="st2" d="M416.7,164.9H13.3c-30,0-54.3,24.4-54.3,54.3v403.3c0,30,24.4,54.3,54.3,54.3h403.3c30,0,54.3-24.4,54.3-54.3
	V219.2C471,189.3,446.6,164.9,416.7,164.9z M455,622.5c0,21-17.3,38.3-38.3,38.3H13.3c-21,0-38.3-17.3-38.3-38.3V219.2
	c0-21,17.3-38.3,38.3-38.3h403.3c21,0,38.3,17.3,38.3,38.3V622.5z"/>
<path class="st2" d="M386.5,227.9h-345c-11.1,0-20.5,9.4-20.5,20.5V516c0,4.5,4,8.1,8.5,8.1s8.5-3.6,8.5-8.1V248.4
	c0-2.1,1.4-3.5,3.5-3.5h345c2.1,0,3.5,1.4,3.5,3.5v345c0,2.1-1.3,3.5-3.5,3.5h-345c-2.1,0-3.5-1.4-3.5-3.5v-32.1l98.6-98.7
	l56.2,56.3c1.5,1.5,3.5,2.4,5.7,2.4s4.2-0.9,5.7-2.4l103.4-103.4l54.5,54.5c3.2,3.2,8.3,3.2,11.5,0c3.2-3.2,3.2-8.3,0-11.5
	l-60.2-60.2c-1.5-1.5-3.6-2.4-5.7-2.4s-4.2,0.9-5.7,2.4L198.4,501.6l-56.3-56.3c-1.5-1.5-3.6-2.4-5.7-2.4s-4.2,0.9-5.7,2.4
	L23.8,552.2c-1.8,1.8-2.9,3.7-2.8,5.7v35.5c0,11.1,9.4,20.5,20.5,20.5h345c11.1,0,20.5-9.4,20.5-20.5v-345
	C407,237.3,397.6,227.9,386.5,227.9z"/>
<path class="st0" d="M249.2,356.9c0-22.9-18.7-41.6-41.6-41.6S166,334,166,356.9s18.7,41.6,41.6,41.6S249.2,379.8,249.2,356.9z
	 M182.2,356.9c0-14,11.4-25.4,25.4-25.4c14,0,25.4,11.4,25.4,25.4s-11.4,25.4-25.4,25.4S182.2,370.9,182.2,356.9z"/>
</svg>
