<?xml version="1.0" encoding="iso-8859-1"?>
<!-- Generator: Adobe Illustrator 19.0.0, SVG Export Plug-In . SVG Version: 6.00 Build 0)  -->
<svg version="1.1" id="Capa_1" xmlns="https://www.w3.org/2000/svg" xmlns:xlink="https://www.w3.org/1999/xlink" x="0px" y="0px"
	 viewBox="0 0 512 512" style="enable-background:new 0 0 512 512;" xml:space="preserve">
<path style="fill:#D2EFFA;" d="M504,457.767C504,483.301,483.301,504,457.767,504H54.233C28.699,504,8,483.301,8,457.767V54.233
	C8,28.699,28.699,8,54.233,8h403.534C483.301,8,504,28.699,504,54.233V457.767z"/>
<path style="fill:#6CA5FF;" d="M462,449.492c0,7.46-6.048,13.508-13.508,13.508H60.508C53.048,463,47,456.952,47,449.492V61.508
	C47,54.048,53.048,48,60.508,48h387.983C455.952,48,462,54.048,462,61.508V449.492z"/>
<path style="fill:#D2EFFA;" d="M440,428.997c0,6.629-5.374,12.003-12.003,12.003H83.003C76.374,441,71,435.626,71,428.997V84.003
	C71,77.374,76.374,72,83.003,72h344.994C434.626,72,440,77.374,440,84.003V428.997z"/>
<path style="fill:#FF5600;" d="M82.538,440h344.991c6.629,0,12.471-4.875,12.471-11.505v-98.463l-82.216-81.982
	c-4.986-4.986-13.187-4.986-18.172,0L239.42,348.182l-52.989-52.959c-4.986-4.986-12.851-4.986-17.837,0L71,393.035v35.46
	C71,435.124,75.908,440,82.538,440z"/>
<circle style="fill:#EDA500;" cx="248.63" cy="192.01" r="33.505"/>
<path style="fill:#FFAB6B;" d="M168.58,295.223L71,393.035v35.46C71,435.124,75.908,440,82.538,440h249.14l-92.316-92.067
	l-52.843-52.835C181.533,290.112,173.566,290.237,168.58,295.223z"/>
<path d="M457.661,0H54.339C24.376,0,0,24.376,0,54.339V457.66C0,487.623,24.376,512,54.339,512h403.322
	C487.624,512,512,487.623,512,457.66V54.339C512,24.376,487.624,0,457.661,0z M496,457.66c0,21.024-17.316,38.34-38.339,38.34
	H54.339C33.315,496,16,478.684,16,457.66V54.339C16,33.316,33.315,16,54.339,16h403.322C478.684,16,496,33.316,496,54.339V457.66z"
	/>
<path d="M427.529,63H82.537C71.449,63,62,72.415,62,83.504V351.1c0,4.477,4.023,8.106,8.5,8.106s8.5-3.629,8.5-8.106V83.504
	C79,81.355,80.388,80,82.537,80h344.992c2.149,0,3.471,1.355,3.471,3.504v344.992c0,2.149-1.322,3.504-3.471,3.504H82.537
	c-2.149,0-3.537-1.355-3.537-3.504v-32.103l98.555-98.735l56.165,56.256c1.52,1.52,3.537,2.374,5.687,2.374s4.189-0.854,5.709-2.374
	l103.418-103.429l54.51,54.517c3.165,3.164,8.295,3.164,11.461,0c3.166-3.166,3.164-8.298-0.001-11.464l-60.248-60.248
	c-1.52-1.52-3.582-2.374-5.732-2.374s-4.212,0.854-5.732,2.374l-103.43,103.429l-56.255-56.256c-1.52-1.52-3.582-2.374-5.732-2.374
	s-4.212,0.854-5.732,2.374L64.802,387.303c-1.789,1.807-2.863,3.716-2.802,5.735v35.458C62,439.583,71.449,449,82.537,449h344.992
	c11.088,0,20.471-9.417,20.471-20.504V83.504C448,72.415,438.617,63,427.529,63z"/>
<path d="M290.245,192.007c0-22.944-18.666-41.611-41.611-41.611s-41.611,18.667-41.611,41.611s18.666,41.611,41.611,41.611
	S290.245,214.951,290.245,192.007z M223.236,192.007c0-14.005,11.394-25.399,25.399-25.399c14.005,0,25.399,11.394,25.399,25.399
	s-11.394,25.399-25.399,25.399S223.236,206.012,223.236,192.007z"/>
<g>
</g>
<g>
</g>
<g>
</g>
<g>
</g>
<g>
</g>
<g>
</g>
<g>
</g>
<g>
</g>
<g>
</g>
<g>
</g>
<g>
</g>
<g>
</g>
<g>
</g>
<g>
</g>
<g>
</g>
</svg>
