<?xml version="1.0" encoding="utf-8"?>
<!-- Generator: Adobe Illustrator 19.0.0, SVG Export Plug-In . SVG Version: 6.00 Build 0)  -->
<svg version="1.1" id="Layer_1" xmlns="https://www.w3.org/2000/svg" xmlns:xlink="https://www.w3.org/1999/xlink" x="0px" y="0px"
	 viewBox="-7 321 595.3 152" style="enable-background:new -7 321 595.3 152;" xml:space="preserve">
<style type="text/css">
	.st0{fill:#FFFFFF;}
	.st1{fill:#109346;}
	.st2{fill:#FECF0A;}
	.st3{fill:#EE2424;}
	.st4{fill:#19A64A;}
	.st5{fill:#CA2027;}
	.st6{fill:#EE2524;}
	.st7{fill:#108F45;}
	.st8{enable-background:new    ;}
</style>
<path id="XMLID_21_" class="st0" d="M127.2,374.9l21.5-22.8h-40.6c-4.3,0-8.6,1-12.7,2.7c-5.4,2.4-11.5,5.7-17.5,10.5
	c-19.8,15.6-26.3,36.6-28.4,44.8c-0.5,1.9-1.1,4.6-1,8c0,3,0.6,5.6,1,7c2.1,6.7,8.4,12.4,11.9,12.4c5.6,0,45.1,0,45.1,0l24.4-50.6
	l-50.3,0.3v21.5h22.3l-3.7,7.6c0,0-18.3,1.3-24.4,0c-2.5-0.6-5.6-2.5-5.6-8.8c0-5.9,4.8-24.7,22.3-31.9c1.4-0.6,3.2-1,4.8-1
	C106.7,374.7,116.9,374.7,127.2,374.9z"/>
<path id="XMLID_20_" class="st0" d="M153.7,352.1H172c0,0-23.6,47-24.7,52.2c-1.1,5.3-2.1,11.8,11.1,11c13.2-0.8,23.1-1.4,29.1-14
	c6.1-12.6,23.9-49.2,23.9-49.2h16.4l-28.7,60.5c-3.3,8.1-18.8,24.7-44.3,24.7c-21.2,0-29.8-1.6-29-16.9c0.3-5.9,1.9-11.6,4.3-16.9
	C142,377.6,153.7,352.1,153.7,352.1z"/>
<polygon id="XMLID_19_" class="st0" points="293.7,352.1 233.3,352.1 191.9,437.3 242.7,437.3 262.9,416.3 219.9,416.3 224.6,405.8 
	255.8,405.8 277.1,384.4 235.5,384.4 240.5,374.2 273.1,374.2 "/>
<path id="XMLID_18_" class="st0" d="M286,374.7l22.1-22.1h40.8c0,0,14,1.3,14,15.1c0,17.2-10.5,29.6-29.9,44.4l-1.4,1.3l8,25.2
	h-25.2l-7.3-22.1h-22.6l-11,22.1h-17.7l20.5-43.6h50.8c4.3,0,10.4-5.3,12.7-8.8c1-1.4-1.1,2.1,0,0c6.4-11.3-5.1-11.3-5.1-11.3H286
	V374.7z"/>
<path id="XMLID_17_" class="st0" d="M373.8,374.7l22.1-22.1h40.8c0,0,14,1.3,14,15.1c0,17.2-10.5,29.6-29.9,44.4l-1.4,1.3l8,25.2
	h-25l-7.4-22.2h-22.8l-11,22.1h-17.7l20.5-43.6h50.8c4.3,0,10.4-5.3,12.7-8.8c1-1.4-1.1,2.1,0,0c6.4-11.3-5.1-11.3-5.1-11.3h-48.7
	v-0.1H373.8z"/>
<path id="XMLID_16_" class="st0" d="M431.1,438.4h19.6l51.4-52.7v31.2h-23.6l-19.3,21.5H524V360c0,0-0.8-5.7-4.1-6.5
	s-9.2,0.3-20.4,11.3C488.3,375.8,431.1,438.4,431.1,438.4z"/>
<rect id="XMLID_15_" x="45.5" y="353" class="st1" width="37.1" height="3.2"/>
<rect id="XMLID_14_" x="45.5" y="358.6" class="st2" width="31.4" height="3.2"/>
<rect id="XMLID_13_" x="45.5" y="363.5" class="st3" width="26.4" height="3.2"/>
<rect id="XMLID_12_" x="45.5" y="368.8" class="st4" width="21.7" height="3.2"/>
<rect id="XMLID_11_" x="45.5" y="442.9" class="st4" width="224.3" height="3.2"/>
<rect id="XMLID_10_" x="45.5" y="448.4" class="st2" width="224.3" height="3.2"/>
<rect id="XMLID_9_" x="45.5" y="453.9" class="st5" width="224.3" height="3.2"/>
<rect id="XMLID_8_" x="45.5" y="374.9" class="st2" width="15.4" height="3.2"/>
<rect id="XMLID_7_" x="45.5" y="380.3" class="st6" width="10.8" height="3.2"/>
<rect id="XMLID_6_" x="45.5" y="386" class="st7" width="6.5" height="3.2"/>
<g id="XMLID_4_" class="st8">
	<path id="XMLID_34_" class="st0" d="M321.7,455.9h-3l-2.6-8.1h3.4l0.9,3.5c0.2,1,0.4,1.6,0.4,1.9c0.1-0.1,0.3-0.4,0.8-1
		s0.8-0.9,0.9-1l3.2-3.4h3.7L321.7,455.9z"/>
	<path id="XMLID_36_" class="st0" d="M349.4,452.5h-8.7c0,0.1,0,0.2,0,0.2c0,0.5,0.2,1,0.7,1.3s1.1,0.5,1.8,0.5c1.1,0,2-0.4,2.7-1.1
		l3.1,0.3c-0.6,0.8-1.4,1.4-2.4,1.8s-2.1,0.6-3.4,0.6c-1.7,0-3.1-0.3-4.2-1s-1.6-1.6-1.6-2.7c0-1.1,0.5-2.1,1.5-3
		c1.3-1.2,3.2-1.8,5.7-1.8c1.6,0,2.8,0.3,3.7,0.9c0.9,0.6,1.4,1.5,1.4,2.6C349.6,451.6,349.5,452.1,349.4,452.5z M346.5,451.2
		c0-0.1,0-0.2,0-0.2c0-0.6-0.2-1.1-0.6-1.4c-0.4-0.3-1-0.5-1.7-0.5s-1.4,0.2-1.9,0.5c-0.6,0.3-0.9,0.8-1.1,1.5h5.3V451.2z"/>
	<path id="XMLID_39_" class="st0" d="M361.3,447.7h3.5l-2.7,8.1h-3.5L361.3,447.7z M364.1,444.4h3.7l-3.9,2.3h-2.3L364.1,444.4z"/>
	<path id="XMLID_42_" class="st0" d="M382.1,452.8l3.4,0.3c-0.6,1-1.4,1.7-2.5,2.2s-2.3,0.7-3.8,0.7c-1.6,0-2.9-0.3-3.9-0.9
		s-1.4-1.5-1.4-2.6c0-0.9,0.3-1.7,0.9-2.5s1.4-1.4,2.6-1.9s2.4-0.7,3.8-0.7c1.5,0,2.7,0.3,3.6,0.8s1.4,1.2,1.5,2l-3.3,0.2
		c-0.1-0.5-0.3-0.8-0.7-1c-0.4-0.2-0.8-0.3-1.4-0.3c-0.7,0-1.3,0.2-1.9,0.5s-1,0.8-1.3,1.4c-0.3,0.6-0.5,1.2-0.5,1.8
		c0,0.5,0.2,0.9,0.6,1.1c0.4,0.3,0.8,0.4,1.4,0.4s1.1-0.1,1.6-0.4S381.8,453.3,382.1,452.8z"/>
	<path id="XMLID_44_" class="st0" d="M397.8,447.7h3.5l-1.6,4.8c-0.2,0.6-0.3,0.9-0.3,1.1c0,0.2,0.1,0.4,0.4,0.6s0.6,0.3,1,0.3
		c0.3,0,0.6,0,0.9-0.1c0.3-0.1,0.6-0.2,0.9-0.3c0.3-0.2,0.6-0.3,0.8-0.5c0.2-0.2,0.5-0.4,0.7-0.8c0.2-0.2,0.3-0.6,0.5-1.1l1.3-3.9
		h3.5l-2.7,8.1h-3.2l0.4-1.1c-1.4,0.9-2.9,1.3-4.6,1.3c-1.1,0-1.9-0.2-2.5-0.6c-0.6-0.4-0.9-0.9-0.9-1.5c0-0.3,0.1-0.8,0.4-1.7
		L397.8,447.7z"/>
	<path id="XMLID_46_" class="st0" d="M418.1,455.9l3.7-11.2h3.4l-3.7,11.2H418.1z"/>
	<path id="XMLID_48_" class="st0" d="M433.4,452.5c0-1.5,0.7-2.7,2-3.6s3.1-1.3,5.3-1.3c1.9,0,3.4,0.3,4.4,1c1,0.7,1.6,1.6,1.6,2.7
		c0,1.3-0.7,2.5-2,3.4c-1.3,1-3.1,1.4-5.3,1.4c-1.2,0-2.3-0.2-3.2-0.5c-0.9-0.3-1.6-0.7-2.1-1.3S433.4,453.2,433.4,452.5z
		 M443.3,450.9c0-0.5-0.2-0.9-0.7-1.3c-0.5-0.3-1.1-0.5-1.8-0.5c-0.7,0-1.4,0.1-2,0.4s-1,0.7-1.3,1.3s-0.5,1.1-0.5,1.5
		c0,0.6,0.2,1,0.7,1.4c0.5,0.3,1.1,0.5,1.9,0.5c0.9,0,1.7-0.3,2.4-0.8C442.8,452.9,443.3,452,443.3,450.9z"/>
	<path id="XMLID_51_" class="st0" d="M455.5,453.6l3.3-0.3c0.3,0.4,0.7,0.8,1.1,1c0.4,0.2,1,0.3,1.8,0.3s1.4-0.1,1.9-0.3
		c0.3-0.2,0.5-0.3,0.5-0.6c0-0.1-0.1-0.3-0.3-0.4c-0.2-0.1-0.7-0.3-1.4-0.4c-2.1-0.4-3.4-0.8-3.9-1c-0.8-0.4-1.2-0.9-1.2-1.6
		c0-0.6,0.4-1.2,1.1-1.7c1-0.6,2.6-1,4.7-1c1.6,0,2.9,0.2,3.7,0.6c0.8,0.4,1.4,0.9,1.6,1.6l-3.2,0.4c-0.2-0.3-0.4-0.5-0.8-0.7
		c-0.5-0.2-1.1-0.3-1.9-0.3s-1.2,0.1-1.6,0.2s-0.5,0.3-0.5,0.5s0.2,0.4,0.5,0.5c0.2,0.1,0.8,0.2,1.9,0.4c1.7,0.3,2.8,0.6,3.4,0.9
		c0.8,0.4,1.2,0.9,1.2,1.5c0,0.8-0.5,1.4-1.5,2s-2.5,0.9-4.3,0.9s-3.3-0.2-4.3-0.6C456.6,455,455.9,454.4,455.5,453.6z"/>
</g>
<g id="XMLID_2_" class="st8">
	<path id="XMLID_5_" class="st0" d="M477.7,454.1h1.8l-0.4,1.8h-1.8L477.7,454.1z"/>
	<path id="XMLID_54_" class="st0" d="M485.6,453.3l1.8,0.3c-0.3,0.8-0.7,1.4-1.3,1.8c-0.6,0.4-1.3,0.6-2,0.6c-0.9,0-1.6-0.3-2.1-0.8
		s-0.8-1.2-0.8-2.1c0-0.7,0.2-1.4,0.5-2.1s0.8-1.2,1.4-1.6s1.3-0.6,2-0.6c0.8,0,1.4,0.2,1.9,0.6s0.8,1,0.8,1.7l-1.8,0.2
		c0-0.4-0.2-0.7-0.4-0.8c-0.2-0.2-0.4-0.3-0.7-0.3c-0.4,0-0.7,0.1-1,0.4s-0.5,0.7-0.7,1.2s-0.2,1-0.2,1.5c0,0.4,0.1,0.7,0.3,0.9
		c0.2,0.2,0.4,0.3,0.7,0.3c0.3,0,0.6-0.1,0.9-0.3C485.2,454,485.4,453.7,485.6,453.3z"/>
	<path id="XMLID_56_" class="st0" d="M488.6,453.1c0-1.3,0.4-2.3,1.1-3c0.7-0.8,1.7-1.1,2.8-1.1c1,0,1.8,0.3,2.4,0.8
		c0.6,0.6,0.8,1.3,0.8,2.2c0,1.1-0.4,2.1-1.1,2.9s-1.7,1.2-2.8,1.2c-0.6,0-1.2-0.1-1.7-0.4c-0.5-0.3-0.9-0.6-1.1-1.1
		C488.7,454.1,488.6,453.6,488.6,453.1z M493.8,451.7c0-0.4-0.1-0.8-0.4-1.1c-0.3-0.3-0.6-0.4-1-0.4s-0.8,0.1-1.1,0.4
		c-0.3,0.2-0.5,0.6-0.7,1.1s-0.3,0.9-0.3,1.3c0,0.5,0.1,0.9,0.4,1.2c0.3,0.3,0.6,0.4,1,0.4c0.5,0,0.9-0.2,1.3-0.6
		C493.6,453.4,493.8,452.6,493.8,451.7z"/>
	<path id="XMLID_59_" class="st0" d="M497.7,449.1h1.7l-0.2,0.8c0.7-0.7,1.4-1,2.1-1c0.5,0,0.9,0.1,1.2,0.3c0.3,0.2,0.5,0.5,0.5,0.9
		c0.2-0.3,0.6-0.6,1-0.9s0.9-0.3,1.4-0.3s1,0.1,1.3,0.4c0.3,0.3,0.5,0.7,0.5,1.2c0,0.2-0.1,0.6-0.2,1.2l-0.9,4.2h-1.8l0.9-4.2
		c0.1-0.5,0.2-0.8,0.2-0.9c0-0.2-0.1-0.3-0.2-0.4c-0.1-0.1-0.3-0.2-0.5-0.2c-0.5,0-0.9,0.2-1.2,0.7c-0.3,0.3-0.5,1-0.7,1.8l-0.6,3.1
		h-1.8l0.9-4.1c0.1-0.5,0.1-0.8,0.1-0.9c0-0.2-0.1-0.3-0.2-0.4s-0.3-0.2-0.5-0.2s-0.4,0.1-0.6,0.2c-0.2,0.1-0.4,0.3-0.6,0.5
		s-0.3,0.5-0.4,0.8c-0.1,0.2-0.1,0.5-0.3,1l-0.7,3.1h-1.8L497.7,449.1z"/>
	<path id="XMLID_61_" class="st0" d="M508.5,454.1h1.8l-0.4,1.8h-1.8L508.5,454.1z"/>
	<path id="XMLID_63_" class="st0" d="M511.6,455.9l2-9.4h1.9l-0.7,3.1c0.3-0.3,0.7-0.4,0.9-0.5c0.3-0.1,0.6-0.2,1-0.2
		c0.7,0,1.3,0.2,1.7,0.7s0.6,1.2,0.6,2.1c0,0.6-0.1,1.2-0.3,1.8s-0.5,1.1-0.8,1.4s-0.7,0.6-1.1,0.8c-0.4,0.2-0.8,0.3-1.2,0.3
		c-1,0-1.7-0.4-2.2-1.3l-0.2,1.1h-1.6V455.9z M514.1,453.1c0,0.5,0.1,0.8,0.4,1.1c0.3,0.3,0.6,0.4,0.9,0.4c0.3,0,0.6-0.1,0.9-0.3
		c0.3-0.2,0.5-0.6,0.7-1.1s0.3-1,0.3-1.5s-0.1-0.9-0.4-1.1c-0.3-0.3-0.6-0.4-0.9-0.4c-0.5,0-0.9,0.2-1.2,0.6
		C514.4,451.4,514.1,452.2,514.1,453.1z"/>
	<path id="XMLID_66_" class="st0" d="M521.1,449.1h1.7l-0.3,1.3c0.6-1,1.3-1.5,2.1-1.5c0.3,0,0.6,0.1,0.9,0.2l-0.7,1.5
		c-0.2-0.1-0.3-0.1-0.5-0.1c-0.3,0-0.6,0.1-1,0.4c-0.3,0.2-0.6,0.6-0.8,1s-0.4,1-0.5,1.9l-0.4,2.1h-1.8L521.1,449.1z"/>
</g>
</svg>
