<?xml version="1.0" encoding="utf-8"?>
<!-- Generator: Adobe Illustrator 19.0.0, SVG Export Plug-In . SVG Version: 6.00 Build 0)  -->
<svg version="1.1" id="Layer_1" xmlns="https://www.w3.org/2000/svg" xmlns:xlink="https://www.w3.org/1999/xlink" x="0px" y="0px"
	 viewBox="-158 352.9 278.2 136" style="enable-background:new -158 352.9 278.2 136;" xml:space="preserve">
<style type="text/css">
	.st0{fill:#FFFFFF;}
	.st1{opacity:0.8;fill:#FFFFFF;enable-background:new    ;}
	.st2{opacity:0.6;fill:#FFFFFF;enable-background:new    ;}
	.st3{opacity:0.8;clip-path:url(#SVGID_4_);fill:#FFFFFF;enable-background:new    ;}
	.st4{opacity:0.8;clip-path:url(#SVGID_7_);fill:#FFFFFF;enable-background:new    ;}
	.st5{opacity:0.8;clip-path:url(#SVGID_9_);fill:#FFFFFF;enable-background:new    ;}
</style>
<polygon id="XMLID_2238_" class="st0" points="18.4,355.4 18.4,373.9 -30.6,373.9 -30.6,461.7 -61.5,461.7 -61.5,373.9 -86.6,373.9 
	-86.6,355.4 "/>
<path id="XMLID_2235_" class="st0" d="M81.6,443.8c0,0,15.1-2.5,24.4-10.7c10.5-9.3,9.1-21.6,9.1-21.6s0.7-12.3-10.2-21.2
	c-11-9-23.4-10.5-23.4-10.5H-24.4v82.7H7.4v-16.8H45l36.2,40.6h38L81.6,443.8z M61,428.4H7.3v-29l53.7,0.2c7.9,0,14.4,6.4,14.4,14.4
	S69,428.4,61,428.4z"/>
<rect id="XMLID_2234_" x="-61.5" y="420.1" class="st1" width="30.8" height="13"/>
<rect id="XMLID_2233_" x="-24.4" y="452.8" class="st1" width="31.8" height="6.5"/>
<rect id="XMLID_2232_" x="-61.5" y="441.3" class="st1" width="30.8" height="16"/>
<polygon id="XMLID_2231_" class="st2" points="-57.3,461.8 -43.6,441.3 -61.5,441.3 -61.5,461.8 "/>
<g id="XMLID_2225_">
	<g>
		<g>
			<g>
				<polygon id="SVGID_1_" class="st0" points="44.9,445.7 81.1,486.3 119.1,486.3 81.5,443.8 				"/>
			</g>
			<g>
				<defs>
					<polygon id="SVGID_2_" points="44.9,445.7 81.1,486.3 119.1,486.3 81.5,443.8 					"/>
				</defs>
				<use xlink:href="#SVGID_2_"  style="overflow:visible;fill:#FFFFFF;"/>
				<clipPath id="SVGID_4_">
					<use xlink:href="#SVGID_2_"  style="overflow:visible;"/>
				</clipPath>
				<rect id="XMLID_2230_" x="47.4" y="452.8" class="st3" width="49.9" height="6.5"/>
			</g>
		</g>
	</g>
	<g>
		<g>
			<g>
				<polygon id="SVGID_3_" class="st0" points="44.9,445.7 81.1,486.3 119.1,486.3 81.5,443.8 				"/>
			</g>
			<g>
				<defs>
					<polygon id="SVGID_6_" points="44.9,445.7 81.1,486.3 119.1,486.3 81.5,443.8 					"/>
				</defs>
				<use xlink:href="#SVGID_6_"  style="overflow:visible;fill:#FFFFFF;"/>
				<clipPath id="SVGID_7_">
					<use xlink:href="#SVGID_6_"  style="overflow:visible;"/>
				</clipPath>
				<rect id="XMLID_2229_" x="65.5" y="468.7" class="st4" width="45.6" height="6.5"/>
			</g>
		</g>
	</g>
	<g>
		<g>
			<g>
				<polygon id="SVGID_5_" class="st0" points="44.9,445.7 81.1,486.3 119.1,486.3 81.5,443.8 				"/>
			</g>
			<g>
				<defs>
					<polygon id="SVGID_8_" points="44.9,445.7 81.1,486.3 119.1,486.3 81.5,443.8 					"/>
				</defs>
				<use xlink:href="#SVGID_8_"  style="overflow:visible;fill:#FFFFFF;"/>
				<clipPath id="SVGID_9_">
					<use xlink:href="#SVGID_8_"  style="overflow:visible;"/>
				</clipPath>
				<polygon id="XMLID_2228_" class="st5" points="115.6,471.7 75.5,493.4 72.4,487.7 112.5,466 				"/>
			</g>
		</g>
	</g>
</g>
<path id="XMLID_2172_" class="st0" d="M-53.2,446h-24.6c-0.7,0-1.3,0.6-1.3,1.3v20.1c0,0.7,0.6,1.3,1.3,1.3h24.5
	c0.7,0,1.3-0.6,1.3-1.3v-20.1C-51.9,446.6-52.5,446-53.2,446z M-55.2,447.5c0.5,0,1,0.5,1,1c0,0.6-0.5,1-1,1c-0.6,0-1-0.4-1-1
	S-55.8,447.5-55.2,447.5z M-75.9,447.6h16.1c0.5,0,0.8,0.4,0.8,0.8c0,0.5-0.4,0.8-0.8,0.8h-16.1c-0.5,0-0.8-0.4-0.8-0.8
	C-76.8,448-76.4,447.6-75.9,447.6z M-53.9,467h-23.2v-16h23.2V467z M-54.6,451.7h-21.8v14.6h21.9L-54.6,451.7L-54.6,451.7z"/>
<path id="XMLID_2211_" class="st0" d="M-76.5,386.6h-76.3c-2.3,0-4.2,1.9-4.2,4.2v62.4c0,2.3,1.9,4.2,4.2,4.2h76.3
	c2.3,0,4.2-1.9,4.2-4.2v-62.4C-72.3,388.5-74.2,386.6-76.5,386.6z M-82.7,391.3c1.7,0,3.1,1.4,3.1,3.1s-1.4,3.1-3.1,3.1
	s-3.1-1.4-3.1-3.1S-84.4,391.3-82.7,391.3z M-147,391.8h49.9c1.4,0,2.6,1.2,2.6,2.6c0,1.5-1.2,2.6-2.6,2.6H-147
	c-1.5,0-2.6-1.2-2.6-2.6C-149.7,393-148.5,391.8-147,391.8z M-78.5,451.8h-72.2v-49.6h72.2V451.8z M-80.6,404.3h-68v45.5h68
	C-80.6,449.8-80.6,404.3-80.6,404.3z"/>
<path id="XMLID_2204_" class="st0" d="M-76.6,454.4h-23.8c-0.7,0-1.3,0.6-1.3,1.3v19.5c0,0.7,0.6,1.3,1.3,1.3h23.8
	c0.7,0,1.3-0.6,1.3-1.3v-19.5C-75.3,455-75.9,454.4-76.6,454.4z M-78.5,455.8c0.5,0,1,0.4,1,1c0,0.5-0.4,1-1,1c-0.5,0-1-0.4-1-1
	C-79.5,456.3-79.1,455.8-78.5,455.8z M-98.6,456H-83c0.4,0,0.8,0.4,0.8,0.8c0,0.5-0.4,0.8-0.8,0.8h-15.6c-0.5,0-0.8-0.4-0.8-0.8
	S-99.1,456-98.6,456z M-77.2,474.7h-22.6v-15.5h22.5L-77.2,474.7L-77.2,474.7z M-77.9,459.9h-21.2v14.2h21.2V459.9z"/>
<path id="XMLID_2197_" class="st0" d="M-58.5,465.4h-21.8c-0.7,0-1.2,0.5-1.2,1.2v17.8c0,0.7,0.5,1.2,1.2,1.2h21.8
	c0.7,0,1.2-0.5,1.2-1.2v-17.8C-57.3,466-57.8,465.4-58.5,465.4z M-60.3,466.8c0.5,0,0.9,0.4,0.9,0.9s-0.4,0.9-0.9,0.9
	s-0.9-0.4-0.9-0.9S-60.8,466.8-60.3,466.8z M-78.6,466.9h14.3c0.4,0,0.7,0.3,0.7,0.7c0,0.4-0.3,0.7-0.7,0.7h-14.3
	c-0.4,0-0.7-0.3-0.7-0.7C-79.4,467.2-79.1,466.9-78.6,466.9z M-59.1,484h-20.6v-14.2h20.6V484z M-59.7,470.5h-19.4v13h19.4V470.5z"
	/>
<g id="XMLID_2169_">
	<path id="XMLID_2194_" class="st0" d="M-43.1,481.8c-0.5,0.2-1.5,0.6-2.7,0.6c-2.9,0-4.8-2-4.8-4.9s2-5.1,5.1-5.1
		c1,0,1.9,0.3,2.4,0.5l-0.4,1.3c-0.4-0.2-1.1-0.5-2-0.5c-2.2,0-3.4,1.6-3.4,3.6c0,2.2,1.4,3.6,3.3,3.6c1,0,1.6-0.3,2.1-0.5
		L-43.1,481.8z"/>
	<path id="XMLID_2191_" class="st0" d="M-30.3,477.3c0,3.5-2.5,5.1-4.8,5.1c-2.6,0-4.6-1.9-4.6-4.9c0-3.2,2.1-5.1,4.7-5.1
		C-32.2,472.4-30.3,474.4-30.3,477.3z M-37.9,477.4c0,2.1,1.2,3.7,2.9,3.7s2.9-1.6,2.9-3.7c0-1.6-0.8-3.7-2.9-3.7
		C-37,473.7-37.9,475.6-37.9,477.4z"/>
	<path id="XMLID_2189_" class="st0" d="M-26,475.2c0-1,0-1.8-0.1-2.6h1.5l0.1,1.6l0,0c0.5-0.9,1.6-1.8,3.2-1.8
		c1.3,0,3.4,0.8,3.4,4.1v5.7h-1.7v-5.5c0-1.5-0.6-2.8-2.2-2.8c-1.1,0-2,0.8-2.3,1.8c-0.1,0.2-0.1,0.5-0.1,0.8v5.8H-26V475.2z"/>
	<path id="XMLID_2187_" class="st0" d="M-13.1,480.4c0.5,0.3,1.4,0.7,2.3,0.7c1.3,0,1.9-0.6,1.9-1.4s-0.5-1.3-1.8-1.8
		c-1.7-0.6-2.5-1.6-2.5-2.7c0-1.5,1.2-2.8,3.3-2.8c1,0,1.8,0.3,2.4,0.6l-0.4,1.3c-0.4-0.2-1.1-0.6-2-0.6c-1,0-1.6,0.6-1.6,1.3
		c0,0.8,0.6,1.1,1.8,1.6c1.7,0.6,2.5,1.5,2.5,2.9c0,1.7-1.3,2.9-3.6,2.9c-1,0-2-0.3-2.7-0.7L-13.1,480.4z"/>
	<path id="XMLID_2185_" class="st0" d="M5.1,479.6c0,1,0,1.9,0.1,2.6H3.7l-0.1-1.6l0,0c-0.5,0.8-1.5,1.8-3.2,1.8
		c-1.5,0-3.3-0.8-3.3-4.2v-5.6h1.7v5.3c0,1.8,0.6,3,2.1,3c1.2,0,2-0.8,2.3-1.6c0.1-0.3,0.2-0.6,0.2-0.9v-5.9h1.7
		C5.1,472.5,5.1,479.6,5.1,479.6z"/>
	<path id="XMLID_2183_" class="st0" d="M10.1,468.2h1.7v14h-1.7V468.2z"/>
	<path id="XMLID_2181_" class="st0" d="M19,469.9v2.7h2.5v1.3H19v5.2c0,1.2,0.3,1.9,1.3,1.9c0.5,0,0.8-0.1,1-0.1l0.1,1.3
		c-0.3,0.1-0.9,0.2-1.5,0.2c-0.8,0-1.5-0.3-1.9-0.7c-0.5-0.5-0.7-1.4-0.7-2.5V474h-1.5v-1.3h1.5v-2.3L19,469.9z"/>
	<path id="XMLID_2171_" class="st0" d="M34.1,477.3c0,3.5-2.5,5.1-4.8,5.1c-2.6,0-4.6-1.9-4.6-4.9c0-3.2,2.1-5.1,4.7-5.1
		C32.2,472.4,34.1,474.4,34.1,477.3z M26.5,477.4c0,2.1,1.2,3.7,2.9,3.7s2.9-1.6,2.9-3.7c0-1.6-0.8-3.7-2.9-3.7
		S26.5,475.6,26.5,477.4z"/>
	<path id="XMLID_2176_" class="st0" d="M38.4,475.6c0-1.1,0-2.1-0.1-3h1.5l0.1,1.9H40c0.4-1.3,1.5-2.1,2.7-2.1c0.2,0,0.3,0,0.5,0.1
		v1.6c-0.2,0-0.4-0.1-0.6-0.1c-1.2,0-2.1,0.9-2.3,2.2c0,0.2-0.1,0.5-0.1,0.8v5.1h-1.7L38.4,475.6L38.4,475.6z"/>
	<path id="XMLID_2173_" class="st0" d="M49,469.9c0,0.6-0.4,1.1-1.1,1.1c-0.6,0-1-0.5-1-1.1s0.5-1.1,1.1-1.1
		C48.6,468.9,49,469.3,49,469.9z M47.1,482.2v-9.6h1.7v9.6H47.1z"/>
	<path id="XMLID_2170_" class="st0" d="M59.2,482.2l-0.1-1.2H59c-0.5,0.8-1.6,1.4-2.9,1.4c-1.9,0-2.9-1.4-2.9-2.7
		c0-2.3,2.1-3.6,5.8-3.6v-0.2c0-0.8-0.2-2.2-2.2-2.2c-0.9,0-1.8,0.3-2.5,0.7l-0.4-1.1c0.8-0.5,1.9-0.8,3.1-0.8c2.9,0,3.6,2,3.6,3.9
		v3.6c0,0.8,0,1.6,0.2,2.3L59.2,482.2C59.2,482.3,59.2,482.2,59.2,482.2z M58.9,477.3c-1.9,0-4.1,0.3-4.1,2.2c0,1.1,0.8,1.7,1.6,1.7
		c1.2,0,2-0.8,2.3-1.6c0.1-0.2,0.1-0.4,0.1-0.6L58.9,477.3L58.9,477.3z"/>
</g>
<g id="XMLID_3_">
	<path id="XMLID_1770_" class="st0" d="M-119.4,430.4h-5.5v-10.6c0-1.3,0-2.5,0.1-3.5c-0.3,0.4-0.8,0.8-1.3,1.3l-2.2,1.8l-2.8-3.4
		l6.9-5.6h4.9v20L-119.4,430.4L-119.4,430.4z"/>
	<path id="XMLID_1772_" class="st0" d="M-100.5,420.4c0,3.5-0.6,6.1-1.8,7.8c-1.2,1.6-3,2.5-5.4,2.5s-4.2-0.9-5.4-2.6
		c-1.2-1.7-1.8-4.3-1.8-7.7c0-3.6,0.6-6.2,1.8-7.8c1.2-1.7,3-2.5,5.4-2.5s4.2,0.9,5.4,2.6S-100.5,417-100.5,420.4z M-109.5,420.4
		c0,2.3,0.1,3.8,0.4,4.7c0.3,0.8,0.8,1.3,1.4,1.3c0.7,0,1.2-0.4,1.4-1.3c0.3-0.9,0.4-2.4,0.4-4.6s-0.1-3.8-0.4-4.7
		c-0.2-0.9-0.7-1.4-1.4-1.4c-0.7,0-1.1,0.4-1.4,1.3C-109.4,416.6-109.5,418.1-109.5,420.4z"/>
	<path id="XMLID_1775_" class="st0" d="M-126.1,444.8l-0.4-1.6h-2.8l-0.4,1.6h-2.5l2.8-8.6h3.1l2.8,8.6H-126.1z M-127,441.3
		l-0.4-1.4c-0.1-0.3-0.2-0.7-0.3-1.2s-0.2-0.9-0.2-1.1c0,0.2-0.1,0.5-0.2,1c-0.1,0.5-0.3,1.4-0.7,2.7H-127z"/>
	<path id="XMLID_1778_" class="st0" d="M-114.5,444.8h-3l-3.1-6h-0.1c0.1,0.9,0.1,1.7,0.1,2.2v3.9h-2.1v-8.6h3l3.1,6l0,0
		c-0.1-0.9-0.1-1.6-0.1-2.1v-3.9h2.1L-114.5,444.8L-114.5,444.8z"/>
	<path id="XMLID_1780_" class="st0" d="M-104.6,440.5c0,1.4-0.4,2.5-1.1,3.3s-1.7,1.1-3.1,1.1c-1.3,0-2.4-0.4-3.1-1.1
		s-1.1-1.9-1.1-3.3s0.4-2.5,1.1-3.3s1.7-1.1,3.1-1.1s2.4,0.4,3.1,1.1C-105,437.9-104.6,439.1-104.6,440.5z M-110.5,440.5
		c0,1.7,0.6,2.5,1.7,2.5c0.6,0,1-0.2,1.3-0.6s0.4-1,0.4-1.9s-0.1-1.5-0.4-1.9s-0.7-0.6-1.3-0.6C-109.9,438-110.5,438.8-110.5,440.5z
		"/>
	<path id="XMLID_1783_" class="st0" d="M-97.5,442.2c0,0.5-0.1,1-0.4,1.4s-0.7,0.7-1.2,1s-1.1,0.3-1.8,0.3c-0.6,0-1,0-1.4-0.1
		s-0.8-0.2-1.2-0.4v-2.1c0.4,0.2,0.9,0.4,1.4,0.5s0.9,0.2,1.3,0.2c0.3,0,0.6-0.1,0.8-0.2c0.2-0.1,0.2-0.3,0.2-0.5
		c0-0.1,0-0.2-0.1-0.3s-0.2-0.2-0.3-0.3c-0.1-0.1-0.5-0.3-1.1-0.6c-0.6-0.3-1-0.5-1.3-0.7s-0.5-0.5-0.6-0.8s-0.2-0.7-0.2-1.1
		c0-0.8,0.3-1.4,0.9-1.8s1.4-0.7,2.4-0.7c0.9,0,1.8,0.2,2.7,0.6l-0.7,1.8c-0.8-0.4-1.5-0.6-2.1-0.6c-0.3,0-0.5,0.1-0.7,0.2
		s-0.2,0.2-0.2,0.4s0.1,0.3,0.3,0.5c0.2,0.2,0.6,0.4,1.4,0.7c0.7,0.3,1.3,0.7,1.5,1.1C-97.7,441.1-97.5,441.6-97.5,442.2z"/>
</g>
</svg>
