<?xml version="1.0" encoding="utf-8"?>
<!-- Generator: Adobe Illustrator 19.0.0, SVG Export Plug-In . SVG Version: 6.00 Build 0)  -->
<svg version="1.1" id="Layer_1" xmlns="https://www.w3.org/2000/svg" xmlns:xlink="https://www.w3.org/1999/xlink" x="0px" y="0px"
	 viewBox="-41 164.9 512 512" style="enable-background:new -41 164.9 512 512;" xml:space="preserve">
<style type="text/css">
	.st0{fill:#A4B7EA;}
</style>
<g>
	<path class="st0" d="M205.2,375.6v-49.9c0-4.4,1.6-8.1,4.8-11.2c3.2-3.1,7.2-4.6,11.8-4.6c4.4,0,8.1,1.5,11.2,4.6
		c3.1,3.1,4.6,6.8,4.6,11.2v49.9h49.9c4.5,0,8.4,1.6,11.7,4.7c3.3,3.2,4.9,7,4.9,11.5c0,4.5-1.6,8.4-4.9,11.5
		c-3.3,3.2-7.2,4.7-11.7,4.7h-49.5V458c0,4.6-1.6,8.6-4.9,11.8c-3.3,3.2-7.2,4.8-11.7,4.8c-4.5,0-8.4-1.6-11.5-4.8
		c-3.2-3.2-4.7-7.2-4.7-11.8v-49.9h-49.9c-4.4,0-8.2-1.6-11.4-4.7c-3.2-3.2-4.8-7-4.8-11.5c0-4.4,1.6-8.2,4.8-11.4
		c3.2-3.2,7-4.8,11.4-4.8H205.2z"/>
</g>
<g>
	<path class="st0" d="M33.4,539.3l-2.5-8H18.6l-2.5,8H8.5l11.9-33.9h8.8l12,33.9H33.4z M29.3,525.3c-2.3-7.3-3.5-11.4-3.8-12.4
		c-0.3-1-0.5-1.7-0.6-2.3c-0.5,2-2,6.9-4.4,14.6H29.3z"/>
	<path class="st0" d="M73.4,522.1c0,5.6-1.6,9.8-4.8,12.8c-3.2,3-7.7,4.4-13.7,4.4h-9.6v-33.8H56c5.5,0,9.8,1.5,12.9,4.4
		S73.4,516.9,73.4,522.1z M66,522.3c0-7.3-3.2-10.9-9.6-10.9h-3.8v22h3.1C62.5,533.4,66,529.7,66,522.3z"/>
	<path class="st0" d="M80.4,539.3v-33.8h7.2v33.8H80.4z"/>
	<path class="st0" d="M110.5,511c-2.7,0-4.8,1-6.3,3c-1.5,2-2.2,4.9-2.2,8.5c0,7.5,2.8,11.3,8.5,11.3c2.4,0,5.2-0.6,8.6-1.8v6
		c-2.8,1.2-5.9,1.7-9.3,1.7c-4.9,0-8.7-1.5-11.3-4.5c-2.6-3-3.9-7.3-3.9-12.8c0-3.5,0.6-6.6,1.9-9.2c1.3-2.6,3.1-4.7,5.5-6.1
		c2.4-1.4,5.2-2.1,8.4-2.1c3.3,0,6.6,0.8,9.9,2.4l-2.3,5.8c-1.3-0.6-2.5-1.1-3.8-1.6C113,511.2,111.7,511,110.5,511z"/>
	<path class="st0" d="M126.3,539.3v-33.8h7.2v33.8H126.3z"/>
	<path class="st0" d="M172.6,522.4c0,5.6-1.4,9.9-4.2,12.9c-2.8,3-6.8,4.5-11.9,4.5s-9.2-1.5-11.9-4.5c-2.8-3-4.2-7.3-4.2-12.9
		c0-5.6,1.4-9.9,4.2-12.9c2.8-3,6.8-4.5,12-4.5s9.2,1.5,11.9,4.5C171.3,512.5,172.6,516.8,172.6,522.4z M148,522.4
		c0,3.8,0.7,6.6,2.2,8.5c1.4,1.9,3.6,2.9,6.4,2.9c5.7,0,8.6-3.8,8.6-11.4c0-7.6-2.8-11.4-8.5-11.4c-2.9,0-5,1-6.4,2.9
		C148.7,515.7,148,518.6,148,522.4z"/>
	<path class="st0" d="M209.6,539.3h-9.1l-14.7-25.6h-0.2c0.3,4.5,0.4,7.7,0.4,9.7v15.9h-6.4v-33.8h9l14.7,25.3h0.2
		c-0.2-4.4-0.3-7.5-0.3-9.3v-16h6.5V539.3z"/>
	<path class="st0" d="M238.8,539.3l-2.5-8h-12.3l-2.5,8h-7.7l11.9-33.9h8.8l12,33.9H238.8z M234.7,525.3c-2.3-7.3-3.5-11.4-3.8-12.4
		c-0.3-1-0.5-1.7-0.6-2.3c-0.5,2-2,6.9-4.4,14.6H234.7z"/>
	<path class="st0" d="M258,526.3v13h-7.2v-33.8h9.8c4.6,0,8,0.8,10.2,2.5c2.2,1.7,3.3,4.2,3.3,7.6c0,2-0.5,3.8-1.6,5.3
		c-1.1,1.5-2.6,2.8-4.6,3.6c5.1,7.6,8.4,12.5,9.9,14.7h-8l-8.1-13H258z M258,520.5h2.3c2.3,0,3.9-0.4,5-1.1c1.1-0.8,1.6-1.9,1.6-3.6
		c0-1.6-0.6-2.7-1.7-3.4c-1.1-0.7-2.8-1-5.1-1H258V520.5z"/>
	<path class="st0" d="M301.4,539.3h-7.1v-33.8h19.4v5.9h-12.3v8.7h11.5v5.8h-11.5V539.3z"/>
	<path class="st0" d="M351,522.4c0,5.6-1.4,9.9-4.2,12.9c-2.8,3-6.8,4.5-11.9,4.5s-9.2-1.5-11.9-4.5c-2.8-3-4.2-7.3-4.2-12.9
		c0-5.6,1.4-9.9,4.2-12.9c2.8-3,6.8-4.5,12-4.5c5.2,0,9.2,1.5,11.9,4.5C349.7,512.5,351,516.8,351,522.4z M326.4,522.4
		c0,3.8,0.7,6.6,2.1,8.5c1.4,1.9,3.6,2.9,6.4,2.9c5.7,0,8.6-3.8,8.6-11.4c0-7.6-2.8-11.4-8.5-11.4c-2.9,0-5,1-6.4,2.9
		C327.1,515.7,326.4,518.6,326.4,522.4z"/>
	<path class="st0" d="M371.1,539.3h-7.2v-27.8h-9.2v-6h25.5v6h-9.2V539.3z"/>
	<path class="st0" d="M416.1,522.4c0,5.6-1.4,9.9-4.2,12.9c-2.8,3-6.8,4.5-11.9,4.5s-9.2-1.5-11.9-4.5c-2.8-3-4.2-7.3-4.2-12.9
		c0-5.6,1.4-9.9,4.2-12.9c2.8-3,6.8-4.5,12-4.5c5.2,0,9.2,1.5,11.9,4.5C414.8,512.5,416.1,516.8,416.1,522.4z M391.5,522.4
		c0,3.8,0.7,6.6,2.1,8.5c1.4,1.9,3.6,2.9,6.4,2.9c5.7,0,8.6-3.8,8.6-11.4c0-7.6-2.8-11.4-8.5-11.4c-2.9,0-5,1-6.4,2.9
		C392.2,515.7,391.5,518.6,391.5,522.4z"/>
	<path class="st0" d="M443.1,529.9c0,3.1-1.1,5.5-3.3,7.2c-2.2,1.8-5.3,2.6-9.2,2.6c-3.6,0-6.8-0.7-9.6-2v-6.7
		c2.3,1,4.2,1.7,5.8,2.2c1.6,0.4,3,0.6,4.3,0.6c1.6,0,2.8-0.3,3.6-0.9c0.8-0.6,1.3-1.5,1.3-2.7c0-0.7-0.2-1.3-0.6-1.8
		c-0.4-0.5-0.9-1-1.6-1.5c-0.7-0.5-2.2-1.2-4.4-2.3c-2.1-1-3.6-1.9-4.6-2.8c-1-0.9-1.9-1.9-2.5-3.1c-0.6-1.2-0.9-2.6-0.9-4.2
		c0-3,1-5.3,3-7.1c2-1.7,4.8-2.6,8.4-2.6c1.8,0,3.4,0.2,5,0.6c1.6,0.4,3.3,1,5,1.8l-2.3,5.6c-1.8-0.7-3.3-1.3-4.5-1.5
		c-1.2-0.3-2.3-0.4-3.5-0.4c-1.4,0-2.4,0.3-3.1,0.9c-0.7,0.6-1.1,1.5-1.1,2.5c0,0.6,0.1,1.2,0.4,1.7s0.8,0.9,1.4,1.4
		c0.6,0.4,2.2,1.2,4.5,2.4c3.2,1.5,5.3,3,6.5,4.5C442.5,525.9,443.1,527.7,443.1,529.9z"/>
</g>
</svg>
