<?xml version="1.0" encoding="utf-8"?>
<!-- Generator: Adobe Illustrator 19.0.0, SVG Export Plug-In . SVG Version: 6.00 Build 0)  -->
<svg version="1.1" id="Layer_1" xmlns="https://www.w3.org/2000/svg" xmlns:xlink="https://www.w3.org/1999/xlink" x="0px" y="0px"
	 viewBox="-41 164.9 512 512" style="enable-background:new -41 164.9 512 512;" xml:space="preserve">
<style type="text/css">
	.st0{fill:#A4B7EA;}
	.st1{fill:none;stroke:#A4B7EA;stroke-width:4;stroke-miterlimit:10;stroke-dasharray:11.9873,11.9873;}
</style>
<g>
	<path class="st0" d="M193.2,406v-75.2c0-6.6,2.4-12.2,7.3-16.9c4.9-4.7,10.8-7,17.8-7c6.6,0,12.2,2.3,16.9,7s7,10.3,7,16.9V406
		h75.2c6.8,0,12.7,2.4,17.6,7.1c5,4.8,7.4,10.5,7.4,17.3c0,6.8-2.5,12.6-7.4,17.3c-5,4.8-10.8,7.1-17.6,7.1h-74.6v75.2
		c0,7-2.5,12.9-7.4,17.8c-5,4.9-10.8,7.3-17.6,7.3c-6.8,0-12.6-2.4-17.3-7.3c-4.8-4.9-7.1-10.8-7.1-17.8V455H118
		c-6.6,0-12.3-2.4-17.2-7.1c-4.9-4.8-7.3-10.5-7.3-17.3c0-6.6,2.4-12.3,7.3-17.2c4.9-4.9,10.6-7.3,17.2-7.3H193.2z"/>
</g>
<g>
	<path class="st1" d="M426.6,670.9H3.4c-17.4,0-31.4-14.1-31.4-31.4V202.3c0-17.4,14.1-31.4,31.4-31.4h423.1
		c17.4,0,31.4,14.1,31.4,31.4v437.1C458,656.8,443.9,670.9,426.6,670.9z"/>
</g>
</svg>
