<?xml version="1.0" encoding="iso-8859-1"?>
<!-- Generator: Adobe Illustrator 19.0.0, SVG Export Plug-In . SVG Version: 6.00 Build 0)  -->
<svg version="1.1" id="Capa_1" xmlns="https://www.w3.org/2000/svg" xmlns:xlink="https://www.w3.org/1999/xlink" x="0px" y="0px"
	 viewBox="0 0 512 512" style="enable-background:new 0 0 512 512;" xml:space="preserve">
<g>
	<path style="fill:#EDF2FA;" d="M52.449,98.654h363.645v95.906H52.449V98.654L52.449,98.654z M10.49,56.695v357.534
		c0,23.238,19.135,42.076,42.74,42.076H459.27c23.507,0,42.74-18.935,42.74-42.076V98.654h-42.958V56.695H10.49L10.49,56.695z
		 M116.841,245.318c35.261,0,64.11,28.849,64.11,64.11c0,35.26-28.85,64.11-64.11,64.11s-64.11-28.85-64.11-64.11
		C52.731,274.167,81.581,245.318,116.841,245.318z"/>
	<rect x="52.449" y="98.654" style="fill:#87C4FF;" width="363.645" height="95.906"/>
	<path style="fill:#FFC66C;" d="M180.951,309.427c0-35.262-28.85-64.11-64.11-64.11s-64.11,28.849-64.11,64.11
		c0,35.26,28.85,64.11,64.11,64.11S180.951,344.688,180.951,309.427z"/>
</g>
<path d="M502.01,88.664h-32.968V55.696c0-5.517-4.474-9.99-9.99-9.99H10.49c-5.517,0-9.99,4.474-9.99,9.99v354.936
	c-0.321,0.979-0.5,2.022-0.5,3.108c0,27.438,21.622,49.971,48.927,51.903c1.097,0.414,2.28,0.65,3.522,0.65h406.603
	c29.197,0,52.948-23.356,52.948-52.065V98.654C512,93.138,507.526,88.664,502.01,88.664z M492.02,414.23
	c0,17.692-14.79,32.085-32.968,32.085H55.841c-0.98-0.322-2.024-0.501-3.111-0.501c-17.239,0-31.399-13.114-32.65-29.69
	c0.256-0.883,0.4-1.813,0.4-2.777V65.686h428.581v32.968v314.693c0,5.517,4.474,9.99,9.99,9.99c5.517,0,9.99-4.474,9.99-9.99
	V108.644h22.978V414.23z"/>
<path d="M416.094,277.48H223.282c-5.517,0-9.99,4.474-9.99,9.99c0,5.517,4.474,9.99,9.99,9.99h192.812c5.517,0,9.99-4.474,9.99-9.99
	C426.084,281.953,421.61,277.48,416.094,277.48z"/>
<path d="M223.282,339.419h96.905c5.517,0,9.99-4.474,9.99-9.99c0-5.517-4.474-9.99-9.99-9.99h-96.905c-5.517,0-9.99,4.474-9.99,9.99
	C213.292,334.945,217.765,339.419,223.282,339.419z"/>
<path d="M416.094,403.357H223.282c-5.517,0-9.99,4.474-9.99,9.99c0,5.517,4.474,9.99,9.99,9.99h192.812
	c5.517,0,9.99-4.474,9.99-9.99C426.084,407.83,421.61,403.357,416.094,403.357z"/>
<path d="M116.841,235.328c-40.859,0-74.101,33.241-74.101,74.101s33.241,74.101,74.101,74.101s74.101-33.241,74.101-74.101
	S157.701,235.328,116.841,235.328z M116.841,363.547c-29.842,0-54.12-24.278-54.12-54.12s24.278-54.12,54.12-54.12
	s54.12,24.278,54.12,54.12S146.683,363.547,116.841,363.547z"/>
<path d="M281.224,255.501c0,0,0,0,0.001,0c5.517,0,9.989-4.473,9.99-9.989c0.001-5.518-4.472-9.99-9.989-9.991l-26.974-0.004
	c0,0,0,0-0.001,0c-5.516,0-9.989,4.473-9.99,9.989c-0.001,5.517,4.472,9.99,9.989,9.991L281.224,255.501z"/>
<path d="M223.282,255.501h0.999c5.518,0,9.99-4.473,9.99-9.99c0-5.517-4.473-9.99-9.99-9.99h-0.999c-5.517,0-9.99,4.474-9.99,9.99
	C213.292,251.028,217.765,255.501,223.282,255.501z"/>
<path d="M150.353,403.353l-97.904,0.004c-5.518,0-9.99,4.474-9.99,9.99c0,5.518,4.474,9.99,9.99,9.99l97.904-0.004
	c5.518,0,9.99-4.474,9.99-9.99C160.343,407.825,155.871,403.353,150.353,403.353z"/>
<path d="M181.323,403.357h-0.999c-5.517,0-9.99,4.474-9.99,9.99c0,5.517,4.474,9.99,9.99,9.99h0.999c5.518,0,9.99-4.474,9.99-9.99
	C191.313,407.83,186.841,403.357,181.323,403.357z"/>
<path d="M416.094,88.664H52.449c-5.517,0-9.99,4.474-9.99,9.99v95.906c0,5.518,4.474,9.99,9.99,9.99h363.645
	c5.517,0,9.99-4.473,9.99-9.99V98.654C426.084,93.138,421.61,88.664,416.094,88.664z M406.103,184.57H62.439v-75.926h343.664V184.57
	z"/>
<g>
</g>
<g>
</g>
<g>
</g>
<g>
</g>
<g>
</g>
<g>
</g>
<g>
</g>
<g>
</g>
<g>
</g>
<g>
</g>
<g>
</g>
<g>
</g>
<g>
</g>
<g>
</g>
<g>
</g>
</svg>
