<?xml version="1.0" encoding="utf-8"?>
<!-- Generator: Adobe Illustrator 19.0.0, SVG Export Plug-In . SVG Version: 6.00 Build 0)  -->
<svg version="1.1" id="Layer_1" xmlns="https://www.w3.org/2000/svg" xmlns:xlink="https://www.w3.org/1999/xlink" x="0px" y="0px"
	 viewBox="-41 164.9 512 512" style="enable-background:new -41 164.9 512 512;" xml:space="preserve">
<style type="text/css">
	.st0{fill:#FFCC75;}
	.st1{fill:#6DA8D6;}
	.st2{fill:#FFFFFF;}
	.st3{fill:#3D6DEB;}
</style>
<polygon class="st0" points="215,184.1 232,218.6 270.1,224.1 242.5,250.9 249,288.8 215,270.9 181,288.8 187.5,250.9 160,224.1 
	198,218.6 "/>
<path d="M260.3,304.3L215,280.5l-45.3,23.8l8.7-50.4l-36.7-35.7l50.7-7.4l22.7-45.9l22.7,45.9l50.7,7.4l-36.7,35.7L260.3,304.3z
	 M215,261.3l22.7,11.9l-4.3-25.3l18.4-17.9l-25.4-3.7l-11.3-23l-11.3,23l-25.4,3.7l18.4,17.9l-4.3,25.3L215,261.3z"/>
<polygon class="st1" points="320.1,316.6 297.2,307 252,415.3 179,415.3 178.9,415.4 133.6,307 110,316.6 158.8,434.6 173.9,521.6 
	185,668.4 245,668.4 257.6,519.9 271.3,434.6 "/>
<g>
	<rect x="208.2" y="421.6" class="st2" width="17" height="17"/>
	<rect x="207" y="449.9" class="st2" width="17" height="55.6"/>
</g>
<polygon points="312.2,313.3 263,432.3 249.2,518.6 249.1,518.9 237.2,659.9 192.9,659.9 182.4,520.6 167.2,433.1 167,432.2 
	117.9,313.3 102.1,319.8 150.6,437 165.5,522.7 177.1,676.9 252.9,676.9 266,521 279.5,436.9 327.9,319.8 "/>
<path d="M219.5,413c17.8,0,32.2-14.5,32.2-32.2v-24.6c0.6-0.5,1.3-1,1.9-1.6c5.5-5.3,8.3-12.9,8.3-22.7h-17c0,4.9-1,8.4-3.1,10.3
	c-4.3,4.1-52.2,3-54.6,3v17c2,0,44.9,0.4,47.5,0.1v18.4c0,8.4-6.8,15.2-15.2,15.2c-8.4,0-15.2-6.8-15.2-15.2l-0.3-27.5l-16.7,3v24.5
	C187.3,398.6,201.7,413,219.5,413z"/>
<path class="st1" d="M68.7,414.5H16.4l-27.2,25v77.2c0,10.7,8.6,19.3,19.3,19.3l11.5,131.6h45.4l11.3-131.6
	c10.7,0,19.3-8.6,19.3-19.3v-77.2L68.7,414.5z"/>
<g>
	<rect x="34" y="420.7" class="st2" width="17" height="17"/>
	<rect x="34" y="449.1" class="st2" width="17" height="55.6"/>
</g>
<path d="M74.5,409L63,421.6L87.4,444v73.4c0,5.9-4.8,10.8-10.8,10.8h-7.8L57.5,659.9H27.7L16.2,528.2H8.4c-5.9,0-10.8-4.8-10.8-10.8
	V444l24.5-22.4L10.6,409l-30,27.5v80.9c0,12.6,8.4,23.2,19.9,26.7l11.6,132.8h61l11.4-132.8c11.5-3.4,19.9-14.1,19.9-26.7v-80.9
	L74.5,409z"/>
<path d="M42.5,413c17.8,0,32.2-14.5,32.2-32.2v-24.6c0.6-0.5,1.3-1,1.9-1.6c5.5-5.3,8.3-12.9,8.3-22.7h-17c0,4.9-1,8.4-3.1,10.3
	c-4.3,4.1-52.2,3-54.6,3v17h47.5v18.6c0,8.4-6.8,15.2-15.2,15.2s-15.2-6.8-15.2-15.2v-23h-17v23C10.2,398.6,24.7,413,42.5,413z"/>
<path id="SVGCleanerId_0" class="st3" d="M413.7,414.5h-52.3l-27.2,25v77.2c0,10.7,8.6,19.3,19.3,19.3l11.5,131.6h45.4l11.3-131.6
	c10.7,0,19.3-8.6,19.3-19.3v-77.2L413.7,414.5z"/>
<g>
	<path id="SVGCleanerId_0_1_" class="st1" d="M413.7,414.5h-52.3l-27.2,25v77.2c0,10.7,8.6,19.3,19.3,19.3l11.5,131.6h45.4
		l11.3-131.6c10.7,0,19.3-8.6,19.3-19.3v-77.2L413.7,414.5z"/>
</g>
<g>
	<rect x="379" y="420.7" class="st2" width="17" height="17"/>
	<rect x="379" y="449.1" class="st2" width="17" height="55.6"/>
</g>
<path d="M419.4,408.8l-11.5,12.5l24.5,22.4v73.4c0,5.9-4.8,10.8-10.8,10.8h-7.8l-11.3,131.6h-29.8L361.1,528h-7.8
	c-5.9,0-10.8-4.8-10.8-10.8v-73.4l24.5-22.4l-11.5-12.5l-30,27.5v80.9c0,12.6,8.4,23.2,19.9,26.7L357,676.6h61l11.4-132.8
	c11.5-3.4,19.9-14.1,19.9-26.7v-80.9L419.4,408.8z"/>
<path d="M387.4,412.8c17.8,0,32.2-14.5,32.2-32.2v-24.6c0.6-0.5,1.3-1,1.9-1.6c5.5-5.3,8.3-12.9,8.3-22.7h-17c0,4.9-1,8.4-3.1,10.3
	c-4.3,4.1-52.2,3-54.6,3v17h47.5v18.6c0,8.4-6.8,15.2-15.2,15.2s-15.2-6.8-15.2-15.2v-18.7h-17v18.7
	C355.1,398.3,369.6,412.8,387.4,412.8z"/>
</svg>
