<?xml version="1.0" encoding="utf-8"?>
<!-- Generator: Adobe Illustrator 19.0.0, SVG Export Plug-In . SVG Version: 6.00 Build 0)  -->
<svg version="1.1" id="Layer_1" xmlns="https://www.w3.org/2000/svg" xmlns:xlink="https://www.w3.org/1999/xlink" x="0px" y="0px"
	 viewBox="-41 164.9 512 512" style="enable-background:new -41 164.9 512 512;" xml:space="preserve">
<style type="text/css">
	.st0{fill:#6DA8D6;}
	.st1{fill:#568DB2;}
	.st2{fill:#FFCC75;}
	.st3{fill:#FFF1CD;}
	.st4{fill:#082947;}
</style>
<path class="st0" d="M399.9,174.9H62.5l-22.8,21.8V647l368.8-19.1V183.4C408.4,178.7,404.6,174.9,399.9,174.9z"/>
<path class="st1" d="M79.9,174.9V647l-58.4,1.8v-453c0-11.6,9.4-20.9,20.9-20.9C42.5,174.9,79.9,174.9,79.9,174.9z"/>
<circle class="st2" cx="231.2" cy="412.4" r="69.2"/>
<path class="st2" d="M231.2,522.7c-46.5,0-86.3,28.6-102.7,69.2h205.4C317.4,551.3,277.7,522.7,231.2,522.7z"/>
<path class="st3" d="M51,627.9c-11.6,0-20.9,9.4-20.9,20.9c0,11.6,9.4,20.9,20.9,20.9h348.8v-41.9L51,627.9L51,627.9z"/>
<path class="st4" d="M309,412.2c0-42.9-34.9-77.8-77.8-77.8c-42.9,0-77.8,34.9-77.8,77.8c0,42.9,34.9,77.8,77.8,77.8
	S309,455.1,309,412.2z M170.5,412.2c0-33.5,27.2-60.7,60.7-60.7s60.7,27.2,60.7,60.7s-27.2,60.7-60.7,60.7S170.5,445.7,170.5,412.2z
	"/>
<path class="st4" d="M256.8,437.8c3.3-3.3,3.3-8.8,0-12.1c-3.3-3.3-8.8-3.3-12.1,0c-7.5,7.5-19.6,7.5-27.1,0
	c-3.3-3.3-8.8-3.3-12.1,0c-3.3,3.3-3.3,8.8,0,12.1c6.8,6.8,15.9,10.6,25.6,10.6S250,444.7,256.8,437.8z"/>
<path class="st4" d="M231.2,514.4c-48.9,0-92.3,29.3-110.6,74.6c-1.8,4.4,0.3,9.4,4.7,11.1c1.1,0.4,2.1,0.6,3.2,0.6
	c3.4,0,6.6-2,7.9-5.4c15.7-38.8,52.9-63.9,94.8-63.9s79.1,25.1,94.8,63.9c1.8,4.4,6.8,6.5,11.2,4.7c4.4-1.8,6.5-6.8,4.7-11.2
	C323.5,543.7,280,514.4,231.2,514.4z"/>
<path class="st4" d="M154.8,280.7c3.3,3,8.3,3,11.6,0l29.5-27.2l29.5,27.2c3.3,3,8.3,3,11.6,0l29.5-27.2l29.5,27.2
	c1.6,1.5,3.7,2.3,5.8,2.3s4.2-0.8,5.8-2.3l35.3-32.5c3.5-3.2,3.7-8.6,0.5-12.1c-3.2-3.5-8.6-3.7-12.1-0.5l-29.5,27.2l-29.5-27.2
	c-3.3-3-8.3-3-11.6,0l-29.5,27.2l-29.5-27.2c-3.3-3-8.3-3-11.6,0l-29.5,27.2L131,235.6c-3.5-3.2-8.9-3-12.1,0.5s-3,8.9,0.5,12.1
	L154.8,280.7z"/>
<path class="st4" d="M51,635h348.8c4.7,0,8.6-3.8,8.6-8.6v-453c0-4.7-3.8-8.6-8.6-8.6H51c-16.3,0-29.5,13.2-29.5,29.5v453
	c0,16.3,13.2,29.5,29.5,29.5h348.8c4.7,0,8.6-3.8,8.6-8.6c0-4.7-3.8-8.6-8.6-8.6H51c-6.8,0-12.4-5.5-12.4-12.4
	C38.7,640.6,44.2,635,51,635z M38.7,194.4c0-6.8,5.5-12.4,12.4-12.4h20.8v90.1c0,4.7,3.8,8.6,8.6,8.6c4.7,0,8.6-3.8,8.6-8.6V182
	h302.3v435.9H89V306.4c0-4.7-3.8-8.6-8.6-8.6s-8.6,3.8-8.6,8.6v311.5H51c-4.4,0-8.6,1-12.4,2.7C38.7,620.6,38.7,194.4,38.7,194.4z"
	/>
</svg>
