<?xml version="1.0" encoding="utf-8"?>
<!-- Generator: Adobe Illustrator 22.0.0, SVG Export Plug-In . SVG Version: 6.00 Build 0)  -->
<svg version="1.1" id="Layer_1" xmlns="https://www.w3.org/2000/svg" xmlns:xlink="https://www.w3.org/1999/xlink" x="0px" y="0px"
	 viewBox="0 0 618.8 512.6" style="enable-background:new 0 0 618.8 512.6;" xml:space="preserve">
<style type="text/css">
	.st0{fill:#062130;}
	.st1{fill:#A3C2C1;}
	.st2{fill:#FFD75A;}
	.st3{fill:#ECDBEE;}
	.st4{fill:#EFB919;}
	.st5{fill:#F9FBFC;}
	.st6{fill:#EFCD6B;}
	.st7{fill:#6B8986;}
	.st8{opacity:0.55;fill:#EFB919;}
	.st9{fill:#B7F5FF;}
	.st10{fill:#25E1FF;}
	.st11{fill:#E8596A;}
	.st12{fill:#FDFBD6;}
	.st13{fill:#D9A717;}
	.st14{fill:#0F4466;}
	.st15{clip-path:url(#SVGID_2_);}
	.st16{fill:#A65029;}
	.st17{fill:#9846EA;}
	.st18{fill:#FF7878;}
	.st19{fill:#FDC9B5;}
	.st20{fill:#ED7339;}
	.st21{fill:#540E54;}
	.st22{fill:#B1572C;}
	.st23{fill:#FFFFFF;}
	.st24{fill:#D13347;}
	.st25{fill:#ED6E32;}
	.st26{fill:#FF8C8C;}
	.st27{fill:#FDC4AE;}
	.st28{fill:#540B54;}
	.st29{fill:#B15326;}
	.st30{fill:#171D33;}
	.st31{fill:#9C6C36;}
	.st32{fill:#E65465;}
	.st33{fill:#C14656;}
	.st34{fill:#D19049;}
	.st35{opacity:0.29;fill:#FFF6CA;}
	.st36{fill:#163E55;}
	.st37{fill:#6969D6;}
	.st38{fill:#FF6B6B;}
	.st39{fill:#042030;}
	.st40{fill:#FBA79C;}
	.st41{fill:#540A54;}
	.st42{fill:#A37E11;}
	.st43{fill:#284E66;}
	.st44{opacity:0.44;fill:#B8EDDE;}
	.st45{fill:#B8EDDE;}
	.st46{fill:#647B91;}
	.st47{fill:#F9F8EA;}
	.st48{fill:#2E2515;}
	.st49{fill:#43361F;}
	.st50{fill:#17130A;}
	.st51{fill:#AC6C28;}
	.st52{fill:#8A5720;}
	.st53{fill:#203347;}
</style>
<g>
	<g>
		
			<ellipse transform="matrix(0.3787 -0.9255 0.9255 0.3787 -244.708 542.7211)" class="st0" cx="281.9" cy="453.6" rx="34.7" ry="34.7"/>
		
			<ellipse transform="matrix(0.3044 -0.9526 0.9526 0.3044 -76.5447 802.418)" class="st0" cx="511.1" cy="453.6" rx="34.7" ry="34.7"/>
	</g>
	<polygon class="st1" points="163.1,453.4 115.6,453.4 123,439.1 163.1,439.1 	"/>
	<g>
		<path class="st1" d="M410.1,254.2H207.6c-3.8,0-6.9,3.1-6.9,6.9v11.2h4.5v-11.2c0-1.3,1.1-2.4,2.4-2.4h11.1l-13.3,13.3l3.2,3.2
			l16.5-16.5h31.9l-13.3,13.3l3.2,3.2l16.5-16.5h38.9l-13.3,13.3l3.2,3.2l16.5-16.5h38.9l-13.3,13.3l3.2,3.2l16.5-16.5h38.9
			l-13.3,13.3l3.2,3.2l16.5-16.5h11c1.3,0,2.4,1.1,2.4,2.4v11.2h4.5v-11.2C417.1,257.3,414,254.2,410.1,254.2z"/>
		<g>
			<g>
				<path class="st2" d="M327.4,267.7h87.8c9.4,0,17.6,6.3,20.1,15.3l28.1,93l114.9,26.1c9.4,2.1,16,10.5,16,20.1v39.3H483.9H327.4
					V267.7z"/>
				<path class="st3" d="M538.5,393.1l-75-17l-28.1-93c-2.5-9.1-10.7-15.3-20.1-15.3h-81.5l-6.3,25.4v45l29.9,49.9l82.4,5.4h98.8
					L538.5,393.1z"/>
				<g>
					<g>
						<path class="st4" d="M392.1,376l-25.2-99.3c-1.2-5.3-6-9.1-11.4-9.1H198.9c-6.4,0-12.2,3.7-14.9,9.5l-41.8,89
							c-3.1,6.5-4.6,13.6-4.6,20.8v67.2c0,4.1,3.3,7.3,7.3,7.3h339v-39.9c0-7.3-4.6-13.9-11.5-16.4L392.1,376z"/>
						<path class="st5" d="M439.8,393.4L392.1,376l-25.2-99.3c-1.2-5.3-6-9.1-11.4-9.1H198.9c-6.4,0-12.2,3.7-14.9,9.5l-41.8,89
							c-3.1,6.5-4.6,13.6-4.6,20.8v6.4H439.8z"/>
						<path class="st6" d="M465.9,435.6c-7.1-17.1-24-29.2-43.7-29.2c-19.7,0-36.6,12.1-43.7,29.2H253.3
							c-7.1-17.1-24-29.2-43.7-29.2c-19.7,0-36.6,12.1-43.7,29.2h-28.3v18.6c0,4.1,3.3,7.3,7.3,7.3H163h93.1h119.5h93.1h15.1v-26
							H465.9z"/>
						<g>
							<path class="st1" d="M596.4,468.5H467.6c-2.3,0-4.1-1.9-4.1-4.1v-6.7c0-2.3,1.9-4.1,4.1-4.1h128.8c2.3,0,4.1,1.9,4.1,4.1v6.7
								C600.6,466.7,598.7,468.5,596.4,468.5z"/>
							<path class="st7" d="M484.2,453.5h-16.1c-2.6,0-4.7,2.1-4.7,4.7v5.7c0,2.6,2.1,4.7,4.7,4.7h16.1V453.5z"/>
						</g>
					</g>
					<g>
						<path class="st8" d="M281.7,393.3h81.1c4.1,0,7.5,3.3,7.5,7.5v53.9c0,4.1-3.3,7.5-7.5,7.5h-81.1c-4.1,0-7.5-3.3-7.5-7.5v-53.9
							C274.2,396.6,277.6,393.3,281.7,393.3z"/>
						<path class="st5" d="M281.3,409.5L281.3,409.5c0,1.4,1.1,2.7,2.5,2.8l21.9,2c1.6,0.2,3.1-1.1,3.1-2.8v-4.1
							c0-1.7-1.4-2.9-3.1-2.8l-21.9,2C282.4,406.8,281.3,408,281.3,409.5z"/>
					</g>
					<g>
						<g>
							<path class="st9" d="M371.4,294.7l20.8,81.4c0,0,26,7.6,51.5,5.7c17.3-1.3,19.8-5.7,19.8-5.7l-25.6-84.6
								c-1.5-4.9-6-8.2-11-8.2h-46.6C374.2,283.2,369.9,288.9,371.4,294.7z"/>
						</g>
					</g>
					<g>
						<path class="st9" d="M287,292.5l-5.2,83.5h94.6l-17.8-84.3c-1-4.9-5.4-8.5-10.5-8.5h-51.3C291.7,283.2,287.4,287.3,287,292.5z
							"/>
					</g>
					<path class="st10" d="M436.1,376.3h-14.5v-13.5c0-6.8-5.5-12.3-12.3-12.3h-5.1c5.2,0,9.4-4.2,9.4-9.4v-6.3
						c0-5.2-4.2-9.4-9.4-9.4h-22.7c-0.8,0-1.5,0.1-2.2,0.3l12.8,50.3c0,0,22.1,6.5,45.6,5.9L436.1,376.3z"/>
					<path class="st10" d="M343.5,373.4h-14.5v-13.5c0-6.8-5.5-12.3-12.3-12.3h-5.1c5.2,0,9.4-4.2,9.4-9.4v-6.3
						c0-5.2-4.2-9.4-9.4-9.4h-22.7c-1.3,0-2.6,0.3-3.7,0.8l-1.4,22.7c1.5,1,3.2,1.5,5.1,1.5h-5.2c0,0,0,0,0,0l-1.8,28.5h62.4
						L343.5,373.4z"/>
					<g>
						<path class="st9" d="M273.3,295.8l-5,80.2H156.9l33-81.4c2.8-6.9,9.5-11.5,17-11.5h54.7C268.4,283.2,273.8,289,273.3,295.8z"
							/>
					</g>
					<path class="st11" d="M146.4,426.2h-8.5c-2.4,0-4.3-1.9-4.3-4.3v-14.4c0-2.4,1.9-4.3,4.3-4.3h8.5V426.2z"/>
				</g>
				<g>
					<g>
						<path class="st1" d="M392.6,376.2c3.7,1,27.6,7.3,51,5.5c15.4-1.2,19.1-4.7,19.7-5.5H392.6z"/>
					</g>
				</g>
				<g>
					<g>
						<circle class="st12" cx="505.1" cy="432.1" r="12.6"/>
						<path class="st13" d="M505.1,419.5c-0.8,0-1.6,0.1-2.3,0.2c5.9,1.1,10.3,6.2,10.3,12.4c0,6.2-4.4,11.3-10.3,12.4
							c0.8,0.1,1.5,0.2,2.3,0.2c7,0,12.6-5.7,12.6-12.6C517.8,425.1,512.1,419.5,505.1,419.5z"/>
						<circle class="st12" cx="576.2" cy="432.1" r="12.6"/>
						<path class="st13" d="M576.2,419.5c-0.9,0-1.8,0.1-2.7,0.3c5.7,1.2,10,6.3,10,12.4c0,6.1-4.3,11.1-10,12.4
							c0.9,0.2,1.7,0.3,2.7,0.3c7,0,12.6-5.7,12.6-12.6C588.9,425.1,583.2,419.5,576.2,419.5z"/>
					</g>
					<g>
						<path class="st13" d="M557.5,426.6h-30.8c-1.5,0-2.7-1.2-2.7-2.7v-0.7c0-1.5,1.2-2.7,2.7-2.7h30.8c1.5,0,2.7,1.2,2.7,2.7v0.7
							C560.1,425.4,558.9,426.6,557.5,426.6z"/>
						<path class="st13" d="M557.5,435.3h-30.8c-1.5,0-2.7-1.2-2.7-2.7V432c0-1.5,1.2-2.7,2.7-2.7h30.8c1.5,0,2.7,1.2,2.7,2.7v0.7
							C560.1,434.1,558.9,435.3,557.5,435.3z"/>
						<path class="st13" d="M557.5,444h-30.8c-1.5,0-2.7-1.2-2.7-2.7v-0.7c0-1.5,1.2-2.7,2.7-2.7h30.8c1.5,0,2.7,1.2,2.7,2.7v0.7
							C560.1,442.8,558.9,444,557.5,444z"/>
					</g>
				</g>
			</g>
			<g>
				<g>
					<g>
						
							<ellipse transform="matrix(0.1593 -0.9872 0.9872 0.1593 -271.6133 588.2728)" class="st14" cx="209.6" cy="453.6" rx="34.7" ry="34.7"/>
						<circle class="st1" cx="209.6" cy="453.6" r="19.8"/>
						<path class="st7" d="M190.5,448.5c-0.4,1.6-0.7,3.3-0.7,5.1c0,10.9,8.9,19.8,19.8,19.8c9.9,0,18.1-7.3,19.5-16.7
							C210.8,459.5,198.5,454.6,190.5,448.5z"/>
					</g>
				</g>
				<g>
					<g>
						
							<ellipse transform="matrix(0.3008 -0.9537 0.9537 0.3008 -137.3935 719.8312)" class="st14" cx="422.2" cy="453.6" rx="34.7" ry="34.7"/>
						<circle class="st1" cx="422.2" cy="453.6" r="19.8"/>
						<path class="st7" d="M403.1,448.5c-0.4,1.6-0.7,3.3-0.7,5.1c0,10.9,8.9,19.8,19.8,19.8c9.9,0,18.1-7.3,19.5-16.7
							C423.4,459.5,411.1,454.6,403.1,448.5z"/>
					</g>
				</g>
			</g>
		</g>
	</g>
</g>
<g>
	<path class="st5" d="M98.6,437.1c0.6-2.3,1-4.8,1-7.3c0-15.7-12.7-28.4-28.4-28.4s-28.4,12.7-28.4,28.4c0,15.7,12.7,28.4,28.4,28.4
		c3.7,0,7.2-0.7,10.4-2c2.4,3.7,6.5,6.2,11.2,6.2c7.3,0,13.3-6,13.3-13.3C106.1,443.8,103,439.3,98.6,437.1z"/>
	<path class="st5" d="M44.9,456.4c-3.7,0-6.7,3-6.7,6.7s3,6.7,6.7,6.7s6.7-3,6.7-6.7S48.5,456.4,44.9,456.4z"/>
</g>
<g>
	<defs>
		<path id="SVGID_1_" d="M371.4,294.7l20.8,81.4c0,0,26,7.6,51.5,5.7c17.3-1.3,19.8-5.7,19.8-5.7l-25.6-84.6c-1.5-4.9-6-8.2-11-8.2
			h-46.6C374.2,283.2,369.9,288.9,371.4,294.7z"/>
	</defs>
	<clipPath id="SVGID_2_">
		<use xlink:href="#SVGID_1_"  style="overflow:visible;"/>
	</clipPath>
	<g class="st15">
		<path class="st16" d="M365.9,353.6c-4.2,0.3-6.5,4.9-4.4,8.5c4.9,8.3,12.6,19.7,18.3,19.2c8.8-0.8,35.1-23,36.7-33.4
			c1.5-10.4-8.1-11.5-8.1-11.5S393.2,351.5,365.9,353.6z"/>
		<path class="st17" d="M437.3,376.9L437.3,376.9l-3.1-8.9c-1.7-4.7-5.4-7.7-9.4-7.7h-25.8c-3.8,0-7.3,2.6-9.1,6.8l-4.2,9.8v0H437.3
			z"/>
		<path class="st18" d="M406.2,339.1l15.5,14.3l0,0l-1.7,8.9l0,0c0.2,0.1,0.4,0.3,0.6,0.4c1.3,1.2,2,2.9,2.3,4.6
			c0.4,3.2,0,6.7-3.5,7c-7.2,0.5-6.6-7.9-16.9-14l0,0C403.8,360.2,406.2,339.1,406.2,339.1L406.2,339.1z"/>
		<g>
			<g>
				<path class="st19" d="M416.5,359.1c15.3,4,20.8-8.9,20.8-19.9v-17.5c0-8.2-6.9-14.8-15.5-14.8h-10.7c-8.5,0-15.5,6.6-15.5,14.8
					v17.5C395.7,350.2,409.4,357.3,416.5,359.1z"/>
			</g>
			<path class="st20" d="M441.5,314.4c-0.1-0.8-0.3-1.7-0.5-2.5c-0.2-0.8-0.4-1.6-0.7-2.4c-0.4-1.2-0.9-2.3-1.5-3.4
				c-0.4-0.7-0.8-1.4-1.3-2.1c-0.2-0.3-0.5-0.7-0.7-1c-0.5-0.7-1-1.3-1.5-1.9c-0.4-0.5-0.8-0.9-1.3-1.3c-1.9-1.8-4-3.4-6.4-4.5
				c-0.7-0.4-1.5-0.7-2.2-1c-1.1-0.4-2.3-0.8-3.6-1c-1.6-0.3-3.3-0.5-5-0.5h0c-0.8,0-1.6,0.1-2.4,0.3c-10.6,2.4-13.3,10.5-13.3,10.5
				s-0.1,0-0.3,0c-1.1,0-2.2,0.2-3.2,0.6c-5.7,1.6-15.7,7.6-9.3,30l4.8,1.1l3.1,4l4.9-2.8c0,0,5.2-2.6,6.4-21.6
				c12,9.7,28.3,13.1,29.8,13.5v6.3c0,0,0,0,0,0c2.7-0.8,4.6-3.1,4.6-5.7v-10.5C441.7,317,441.6,315.7,441.5,314.4z"/>
			<g>
				<path class="st18" d="M430.3,339.5c0,1.9-0.8,3.4-1.9,3.4c-1,0-1.9-1.5-1.9-3.4c0-1.9,0.8-6.8,1.9-6.8
					C429.5,332.7,430.3,337.7,430.3,339.5z"/>
				<path class="st18" d="M428.1,346.8c0.3,0,0.6,0,0.8,0c0.3,0,0.5-0.3,0.5-0.6c0-0.3-0.3-0.5-0.6-0.5c-0.2,0-5.6,0.5-6.5-3.6
					c-0.1-0.3-0.3-0.5-0.6-0.4c-0.3,0.1-0.5,0.3-0.4,0.6C422,345.9,425.7,346.8,428.1,346.8z"/>
				<g>
					<g>
						<path class="st21" d="M435.9,333.6c0,1.5-0.5,2.8-1.2,2.8c-0.7,0-1.2-1.2-1.2-2.8c0-1.5,0.5-2.8,1.2-2.8
							C435.4,330.9,435.9,332.1,435.9,333.6z"/>
					</g>
					<path class="st22" d="M440.7,330.6c0,0-6.6-3.6-10.2-4.1c0,0,1-4.2,5.7-2.2C441,326.4,440.7,330.6,440.7,330.6z"/>
				</g>
				<g>
					<g>
						<path class="st21" d="M418,333.6c0,1.5,0.5,2.8,1.2,2.8c0.7,0,1.2-1.2,1.2-2.8c0-1.5-0.5-2.8-1.2-2.8
							C418.6,330.9,418,332.1,418,333.6z"/>
					</g>
					<path class="st22" d="M412.9,330.6c0,0,6.6-3.6,10.2-4c0,0-0.6-4.4-5.4-2.4C413,326.2,412.9,330.6,412.9,330.6z"/>
				</g>
				<g>
					<path class="st18" d="M416.3,343c-0.1,0-0.2,0-0.2-0.1c-0.3-0.1-0.4-0.4-0.2-0.7l1.7-3.3c0.1-0.3,0.4-0.4,0.7-0.2
						c0.3,0.1,0.4,0.4,0.2,0.7l-1.7,3.3C416.7,342.9,416.5,343,416.3,343z"/>
					<path class="st18" d="M413,343c-0.1,0-0.2,0-0.2-0.1c-0.3-0.1-0.4-0.4-0.2-0.7l1.7-3.3c0.1-0.3,0.4-0.4,0.7-0.2
						c0.3,0.1,0.4,0.4,0.2,0.7l-1.7,3.3C413.4,342.9,413.2,343,413,343z"/>
				</g>
				<g>
					<g>
						<path class="st18" d="M436.6,343c-0.2,0-0.4-0.1-0.5-0.3l-1.7-3.3c-0.1-0.3,0-0.6,0.2-0.7c0.3-0.1,0.6,0,0.7,0.2l1.7,3.3
							c0.1,0.3,0,0.6-0.2,0.7C436.8,343,436.7,343,436.6,343z"/>
					</g>
				</g>
			</g>
			<g>
				<path class="st19" d="M401.2,333.6c2.4,4.4,1.4,9.4-2.2,11.2c-3.6,1.8-8.5-0.3-10.9-4.7c-2.4-4.4-1.4-9.4,2.2-11.2
					C393.9,327.1,398.8,329.2,401.2,333.6z"/>
				<path class="st23" d="M400,344.8c0,1.1-0.9,1.9-1.9,1.9c-1.1,0-1.9-0.9-1.9-1.9c0-1.1,0.9-1.9,1.9-1.9
					C399.1,342.9,400,343.8,400,344.8z"/>
				<path class="st18" d="M399.1,341.9c0-0.2,0-0.3-0.1-0.5c0,0.1,0,0.2,0.1,0.3c0-0.9-0.2-1.6-0.4-2.2c-1.9-7.4-9.2-8.2-9.2-8.2
					c3.7,2.1,6,4.5,7.4,6.4c-2.6-1-6.6,1.1-6.6,1.1c4.8-1.2,7-0.2,8,1C398.9,341.1,399.1,341.9,399.1,341.9z"/>
			</g>
		</g>
	</g>
</g>
<g>
	<g>
		<path class="st24" d="M259.4,309c0,0,12.3-13.3,17-3.6c4.8,9.7-5.3,17.3-15.5,15.4L259.4,309z"/>
		<path class="st24" d="M259.5,306.6c0,0-0.8-16.1-8.7-14.1c-7.8,1.9-0.1,23.5-0.1,23.5L259.5,306.6z"/>
	</g>
	<g>
		<path class="st25" d="M267.5,334.2c1.3-4.1,2.5-10,0.8-16l-15.3,1.5c-0.1,2.1-0.1,5.7,0.2,9.3l-6,1.2l-7.9,11.3l-4.2-11.5l-10.2-7
			l-9.7,0.9c0,0-3.8,26.4-9,31.2c0,0,16,14.4,34.7,8.2c20.1,9.8,29.4-2.7,29.4-2.7C266.9,354.7,266,342.8,267.5,334.2z"/>
	</g>
	<path class="st17" d="M211.8,376C211.8,376,211.8,376,211.8,376l3.4-9.5c1.8-5,5.7-8.3,10.1-8.3H253c4.1,0,7.8,2.8,9.7,7.3
		l4.5,10.5c0,0,0,0,0,0H211.8z"/>
	<path class="st26" d="M245.3,335.4l-16.6,15.3l0,0l1.8,9.6l0,0c-0.2,0.1-0.4,0.3-0.6,0.5c-1.4,1.3-2.2,3.1-2.4,5
		c-0.4,3.5,0,7.2,3.8,7.5c7.7,0.6,7.1-8.5,18.1-15l0,0C247.8,358.1,245.3,335.4,245.3,335.4C245.3,335.4,245.3,335.4,245.3,335.4z"
		/>
	<g>
		<g>
			<path class="st18" d="M221.8,330c1.6,4.3,0,8.8-3.6,10c-3.6,1.2-7.8-1.4-9.3-5.8c-1.6-4.3,0-8.8,3.6-10
				C216,323,220.2,325.6,221.8,330z"/>
		</g>
		<path class="st27" d="M211.9,332.7l6.9-26l43.7,13.9l-9.7,21.6l0.5-0.4l-0.1,0.5c-2.5,10.9-9.4,18.3-25.4,16.4
			C211.8,356.7,202.5,342.5,211.9,332.7z"/>
		<path class="st25" d="M248.9,316.3c0,0-2.6,8.4,1.7,20.2l7.4-0.9l6.1-17.3l-12.7-2.8"/>
		<g>
			<path class="st18" d="M217.4,333.9c-0.3,1.3,0.6,2.6,2.1,2.9c1.4,0.3,2.9-0.4,3.1-1.7c0.3-1.3-0.1-4.9-1.5-5.3
				C219.7,329.5,217.7,332.6,217.4,333.9z"/>
			<g>
				<g>
					<path class="st28" d="M214.5,327.5c-0.4,1.5-0.1,2.9,0.6,3c0.7,0.2,1.5-1,1.8-2.5c0.4-1.5,0.1-2.9-0.6-3
						C215.7,324.9,214.8,326,214.5,327.5z"/>
				</g>
				<path class="st29" d="M213.4,323.2c0,0,5.4-2,8.1-1.5c0,0-0.1-4.4-3.8-3.6C213.9,318.9,213.4,323.2,213.4,323.2z"/>
			</g>
			<g>
				<g>
					<path class="st28" d="M232.3,331.6c-0.4,1.5-1.2,2.6-1.8,2.5c-0.7-0.2-0.9-1.5-0.6-3c0.4-1.5,1.2-2.6,1.8-2.5
						C232.4,328.7,232.6,330.1,232.3,331.6z"/>
				</g>
				<path class="st29" d="M238,329.8c0,0-5.8-5.1-9.2-6.3c0,0,1.6-4.2,5.9-1.1C239,325.4,238,329.8,238,329.8z"/>
			</g>
			<g>
				<path class="st18" d="M231.8,341.3c0.1,0,0.2,0,0.2,0c0.3-0.1,0.5-0.3,0.4-0.6l-0.9-3.7c-0.1-0.3-0.4-0.5-0.7-0.4
					c-0.3,0.1-0.5,0.3-0.4,0.6l0.9,3.7C231.5,341.1,231.6,341.3,231.8,341.3z"/>
				<path class="st18" d="M235.2,342.1c0.1,0,0.2,0,0.2,0c0.3-0.1,0.5-0.3,0.4-0.6l-0.9-3.7c-0.1-0.3-0.4-0.5-0.7-0.4
					c-0.3,0.1-0.5,0.3-0.4,0.6l0.9,3.7C234.8,341.9,235,342,235.2,342.1z"/>
			</g>
			<g>
				<g>
					<path class="st18" d="M211.7,336.7c0.2,0,0.4,0,0.5-0.2l2.4-2.9c0.2-0.2,0.1-0.6-0.1-0.7c-0.2-0.2-0.6-0.2-0.8,0.1l-2.4,2.9
						c-0.2,0.2-0.1,0.6,0.1,0.7C211.5,336.6,211.6,336.6,211.7,336.7z"/>
				</g>
			</g>
		</g>
		<g>
			<path class="st27" d="M249.1,335.4c-3.4,3.8-3.5,9-0.4,11.7c3.2,2.6,8.5,1.7,11.9-2.1c3.4-3.8,3.5-9,0.4-11.7
				C257.8,330.6,252.5,331.6,249.1,335.4z"/>
			<path class="st23" d="M247.6,346.9c-0.2,1.1,0.4,2.1,1.5,2.4c1.1,0.2,2.1-0.4,2.4-1.5c0.2-1.1-0.4-2.1-1.5-2.4
				C248.9,345.1,247.9,345.8,247.6,346.9z"/>
			<path class="st18" d="M249.2,344.2c0.1-0.2,0.1-0.3,0.2-0.5c-0.1,0.1-0.1,0.2-0.1,0.3c0.2-0.9,0.5-1.6,0.9-2.1c3.6-6.9,11-6,11-6
				c-4.1,1.3-7,3.1-8.8,4.7c2.8-0.4,6.3,2.7,6.3,2.7c-4.5-2.3-6.9-1.8-8.1-0.9C249.6,343.4,249.2,344.2,249.2,344.2z"/>
		</g>
	</g>
	<g>
		<path class="st30" d="M227.8,339.8c0.1,0.4,0,0.8-0.1,1.2c-0.9,5-3.2,7.2-5.1,8.2c-1.8,0.9-3.8,0.6-5.3-0.6
			c-3.8-3.1-3-7.9-2.3-10.2C214.9,338.4,219.1,341.7,227.8,339.8z"/>
		<path class="st24" d="M215.3,346.3c2.6-2.5,6.4-3.7,10.1-2.8c0.5,0.1,0.9,0.3,1.3,0.4c0,0,0,0,0,0c-1.2,3-2.9,4.5-4.4,5.3
			c-1.7,0.8-3.7,0.6-5.1-0.6c-0.1-0.1-0.2-0.1-0.2-0.2c-0.1-0.1-0.2-0.2-0.4-0.3c-0.1-0.1-0.2-0.2-0.2-0.2c-0.1-0.1-0.2-0.2-0.3-0.3
			c-0.1-0.2-0.3-0.3-0.4-0.5c-0.1-0.1-0.1-0.2-0.2-0.3c-0.1-0.1-0.1-0.2-0.2-0.4C215.4,346.4,215.4,346.4,215.3,346.3z"/>
	</g>
	<path class="st25" d="M223.2,298c-7,0.7-11,6-12,11.4c-0.4,2.3,1.8,4.6,4.2,4.8c2.4,0.2,4.6-1,6.6-2.2c2.1,2.8,5.2,4.8,8.6,5.6
		c0.9,0.2,1.9,0.3,2.6-0.3c0.4-0.3,0.4-1,0.3-1.4c5.2,4,12.1,6.7,18.4,8.3l17.3-0.6C268.4,318.3,269.9,293.4,223.2,298z"/>
</g>
<g>
	<path class="st31" d="M189.7,336.8c-1.6-3.6-4.1-7-7.6-9c-3.4-2-22.6-2.2-26.1-0.3c-2.8,1.5,2.2,10.3,4.2,9.2
		c2-1.1,19.7-1.2,20.6,0.9"/>
	<g>
		<path class="st31" d="M176.1,376.1C176.1,376.1,176.1,376.1,176.1,376.1c1.5-9.3,5.9-16,11.1-16.5l11.3-1.3
			c5.4-0.6,10.4,5.4,12.3,14.9l0.6,2.9H176.1z"/>
		<path class="st32" d="M148.3,338.2c-4.4,1.3-8.1,5.6-7.8,10.2c0,0.7,0.2,1.5,0.7,2.1c0.5,0.6,1.2,0.9,1.9,1.1
			c2.9,0.9,6.1,0.2,9.1,0.5c5.4,0.5,6.7,4.4,10.8,6.3c4.4,2.1,7.6-1.8,7-6.9C168.8,343.1,156,336,148.3,338.2z"/>
		<path class="st33" d="M146.3,343.9c0,0,15.9-3.6,20,9.8C166.3,353.6,162.1,344.3,146.3,343.9z"/>
		<path class="st34" d="M184.9,324L184.9,324c-5.8,0.8-10.6,4.9-12.3,10.6l-4,13.7l-10.1,8.4c-1,0.9-1.5,2.2-1.1,3.5
			c0.9,3.4,4.2,9.6,16.7,11.7c17.6,3,21-3.5,21-3.5l0,0c4.3-5.3,8.5-25.9,7.2-32c-0.8-3.7-2.8-7-5.8-9.2l-0.6-0.4
			C192.7,324.4,188.8,323.4,184.9,324z"/>
		<path class="st35" d="M166.3,350.1c1.7,1.1,3.8,1.8,6,1.8c6.1,0,11.1-5,11.1-11.1c0-5.3-3.7-9.7-8.6-10.8c-1,1.4-1.8,2.9-2.3,4.6
			l-4,13.7L166.3,350.1z"/>
	</g>
	<g>
		<path class="st36" d="M175.2,344.2c-0.4,1.8-1.4,3.1-2.2,3c-0.8-0.2-1.1-1.8-0.7-3.6c0.4-1.8,1.4-3.1,2.2-3
			C175.3,340.7,175.6,342.4,175.2,344.2z"/>
	</g>
	<g>
		<path class="st36" d="M189.1,346.7c-0.4,1.8-1.4,3.1-2.2,3c-0.8-0.2-1.1-1.8-0.7-3.6c0.4-1.8,1.4-3.1,2.2-3
			C189.3,343.3,189.6,344.9,189.1,346.7z"/>
	</g>
	<path class="st36" d="M193.5,345.2c0,0-4.6-4.1-7.4-5.1c0,0,1.3-3.4,4.7-0.9C194.2,341.7,193.5,345.2,193.5,345.2z"/>
	<path class="st36" d="M170.6,342.6c0,0,3.6-3.2,5.8-4c0,0-1-2.6-3.7-0.7C170,339.9,170.6,342.6,170.6,342.6z"/>
	<path class="st34" d="M202.3,339.8c5.7-22.8-2-26.5-5.7-28.1c-3.6-1.6-22.7,0.3-26,2.6c-2.6,1.8,3.4,10,5.2,8.7
		c1.9-1.3,22.2-5.9,20.7,6.7"/>
	<g>
		<circle class="st36" cx="178.8" cy="365.8" r="0.5"/>
		<circle class="st36" cx="183.5" cy="365.8" r="0.5"/>
		<path class="st36" d="M181.7,368.1c0,0.3-0.2,0.5-0.5,0.5c-0.3,0-0.5-0.2-0.5-0.5c0-0.3,0.2-0.5,0.5-0.5
			C181.5,367.7,181.7,367.9,181.7,368.1z"/>
	</g>
	<g>
		<circle class="st36" cx="158.5" cy="359.3" r="0.4"/>
		<path class="st36" d="M162.7,360.8c-0.1,0.2-0.3,0.3-0.5,0.2c-0.2-0.1-0.3-0.3-0.2-0.5c0.1-0.2,0.3-0.3,0.5-0.2
			C162.7,360.4,162.8,360.6,162.7,360.8z"/>
		<circle class="st36" cx="159.9" cy="361.9" r="0.4"/>
	</g>
	<path class="st36" d="M170.9,359.1c-8.9-2.6-7.7,0.1-7.7,0.1c0,3.3,2.1,5.6,4.6,6.9c-0.2,1.1-0.4,2.4-0.4,4c0.3,0.1,0.7,0.3,1,0.4
		c-0.1-1.5,0.1-2.9,0.3-4c2.2,0.8,4.4,0.7,5.7-0.4C177.3,363.6,179.8,361.7,170.9,359.1z"/>
</g>
<g>
	<g>
		<g>
			<path class="st37" d="M301.2,376l4.2-9.5c2.2-5,7.2-8.3,12.7-8.3h34.7c5.1,0,9.8,2.8,12.2,7.3l7.7,10.5H301.2z"/>
			<path class="st38" d="M331.4,335.1l16.6,15.3l-2.1,10c0.9,0.5,1.8,1.1,2.9,2c1,3.9,1.7,10.1-3.2,10.5c-7.7,0.6-7.1-8.9-18.1-15.5
				C328.9,357.3,331.4,335.1,331.4,335.1z"/>
		</g>
		<g>
			<g>
				<path class="st39" d="M356.4,315.1v26.2c0,0,12.8-5.2,6.2-29.4L356.4,315.1z"/>
				<g>
					<path class="st40" d="M336.2,361.8L336.2,361.8c20.3,6,23.8-3.7,24.1-18.7c0.1-7.7,0.2-15.4,0.3-23.1
						c0.2-11-7.8-19.9-17.7-18.9c-4.2,0.4-8.3,0.8-12.5,1.5c-10.1,1.7-18.3,10.2-18.5,17.9c-0.1,5.7,2,11.6,3.2,17.1
						C319.1,355.7,322.4,357.8,336.2,361.8z"/>
				</g>
				<g>
					<path class="st39" d="M365.7,306.5c-1.8-6.8-11.1-19.8-33.9-16.4c-2.6,0.4-5,0.9-7,1.5c-6.7,3.7-6.4,10.3-6.4,10.3
						c-5-0.2-9.1,6.2-9.1,6.2c-2.1,2.9-5,9.1-2.1,21.4l14.5,7.9c0,0,4.2-8.2,2-21.5c11.4,4.4,28.7,8.7,39.3-0.4
						C365.4,313.4,366.6,309.9,365.7,306.5z"/>
				</g>
				<g>
					<path class="st38" d="M351.1,342c0,2.3-1.1,3-2.5,2.9c-1.4,0-2.5-0.8-2.5-3c0-1.7,1.1-6,2.5-6C350,335.9,351.1,340.3,351.1,342
						z"/>
					<path class="st38" d="M348.3,349.3c0.3,0,0.6,0,0.8,0c0.3,0,0.5-0.3,0.5-0.6c0-0.3-0.3-0.6-0.6-0.5c-0.2,0-5.8,0.3-6.7-4.4
						c-0.1-0.3-0.4-0.5-0.7-0.5c-0.3,0.1-0.5,0.4-0.4,0.7C342,348.1,345.8,349.3,348.3,349.3z"/>
					<g>
						<g>
							<path class="st41" d="M356.3,334.6c0,1.7-0.5,3.1-1.2,3.1c-0.7,0-1.2-1.5-1.2-3.2c0-1.7,0.6-3.1,1.2-3.1
								C355.7,331.4,356.3,332.9,356.3,334.6z"/>
						</g>
						<path class="st39" d="M361.1,332c0,0-7.3-4.7-10.9-5.4c0,0,2-5.7,6.8-3.1C361.7,326,361.1,332,361.1,332z"/>
					</g>
					<g>
						<g>
							<path class="st41" d="M337.9,333.8c0,1.8,0.6,3.2,1.3,3.3c0.7,0,1.3-1.4,1.3-3.1c0-1.8-0.6-3.2-1.3-3.3
								C338.4,330.6,337.9,332,337.9,333.8z"/>
						</g>
						<path class="st39" d="M332.5,331.3c0,0,8.4-4.7,12.1-5c0,0-2.6-5.7-7.6-3.6C332,324.7,332.5,331.3,332.5,331.3z"/>
					</g>
					<g>
						<path class="st38" d="M336.1,344.6c-0.1,0-0.2,0-0.2-0.1c-0.3-0.2-0.4-0.5-0.3-0.8l1.8-3.8c0.1-0.3,0.5-0.4,0.7-0.2
							c0.3,0.2,0.4,0.5,0.3,0.8l-1.8,3.8C336.5,344.5,336.3,344.6,336.1,344.6z"/>
						<path class="st38" d="M332.6,344.4c-0.1,0-0.2,0-0.2-0.1c-0.3-0.2-0.4-0.5-0.3-0.8l1.8-3.8c0.1-0.3,0.5-0.4,0.7-0.2
							c0.3,0.2,0.4,0.5,0.3,0.8l-1.8,3.8C333,344.3,332.8,344.4,332.6,344.4z"/>
					</g>
					<g>
						<g>
							<path class="st38" d="M357,345.4c-0.2,0-0.4-0.1-0.5-0.3l-1.7-3.9c-0.1-0.3,0-0.6,0.3-0.8c0.3-0.1,0.6,0,0.7,0.3l1.7,3.9
								c0.1,0.3,0,0.6-0.3,0.8C357.1,345.3,357,345.4,357,345.4z"/>
							<path class="st38" d="M359.2,340.8c-0.1-0.3-0.5-0.4-0.7-0.3c-0.3,0.1-0.4,0.5-0.3,0.8l1.7,3.9c0.1,0.1,0.2,0.2,0.3,0.3
								c0-0.7,0.1-1.5,0.1-2.2L359.2,340.8z"/>
						</g>
					</g>
				</g>
				<g>
					<path class="st40" d="M320.9,333.6c2.8,5.8,1.6,12.3-2.7,14.6c-4.3,2.2-10.2-0.7-13.1-6.6c-2.9-5.9-1.7-12.5,2.7-14.7
						C312.2,324.7,318.1,327.7,320.9,333.6z"/>
					<path class="st38" d="M318.4,344.4c0-0.2-0.1-0.4-0.1-0.7c0,0.2,0.1,0.3,0.1,0.4c0-1.2-0.2-2.1-0.5-2.9
						c-2.3-9.8-11-11.2-11-11.2c4.4,3,7.2,6.2,8.9,8.8c-3.1-1.5-8,1.2-8,1.2c5.8-1.4,8.4,0.1,9.5,1.6
						C318.2,343.4,318.4,344.4,318.4,344.4z"/>
				</g>
			</g>
		</g>
		<g>
			<path class="st40" d="M361.4,376.1l-1.7-2.8c-1.2-2-3.3-3.2-5.7-3.2l-6.6-0.1c-3.4,0-6.7,1-9.4,3l-4.3,3.2l-20.4,7.3
				c0,0,9.6-11.3,9.8-15.9c0.2-5.4-5.1-8.3-8-8.5c-9.3-0.9-32.4,33.6-24.9,38c16.1,9.5,38.8-3.2,52.5-13.1c1.5-1.1,2.8-1.7,4.4-2
				c1.5-0.3,2.8-0.9,3.8-1.8c2.6-2.4,5.8-4,9.3-4L361.4,376.1z"/>
			<path class="st37" d="M295.9,376.8c4.8-1.1,11.8-1.3,21.6,1.4c2.6-3.6,5.5-8.1,5.6-10.7c0.2-5.4-5.1-8.3-8-8.5
				C310.4,358.6,302,367.4,295.9,376.8z"/>
		</g>
	</g>
	<g>
		<path class="st38" d="M403.5,354.6c-0.9,1-1.9,1.8-2.9,2.6c-2.1,0.1-6.2,0.2-8.4-0.5c-2.1-0.6-2-2.8-2-2.8s6.1-1.5,10.4-2.6
			c0.5-0.1,1-0.3,1.5-0.5C402.2,352.1,402.7,353.5,403.5,354.6z"/>
		<path class="st14" d="M374.4,366.5c-2,2.8-3.5,6-4.2,9.4h4.1c0.3-1.3,0.8-2.5,1.3-3.6L374.4,366.5z"/>
		<path class="st14" d="M395.6,355.6c-2.9,0-5.7,0.5-8.3,1.4l1,3.9c2.3-0.8,4.8-1.3,7.4-1.3c2.3,0,4.5,0.4,6.6,1l-5.3,15.6l6.7-0.3
			l8-9.6c2.5,2.6,4.5,5.9,5.4,9.6h4.1C418.4,364.3,408,355.6,395.6,355.6z"/>
		<path class="st40" d="M407.2,368.1c1.9,0.3,3.8,0.7,5.8,0.2c1.9-0.4,3.9-1.9,4.5-3.9c0.4-1.4,0-2.9-0.6-4.1
			c-1.8-4.1-5.1-7.3-9.2-8.9c-3.1-1.2-7.4-1.2-9.7,1.7c-1.1,1.4-1.5,3.1-1.8,4.8c-0.2,1.1-0.3,2.3,0.3,3.2c1.2,1.7,4.2,0.5,6,1.6
			c1.1,0.7,1.5,2.1,2.2,3.2c2,3.3,7.1,3.9,10.4,1.3"/>
	</g>
</g>
<g>
	<g>
		<g>
			<path class="st42" d="M280.1,168.6h51.6c3.9,0,7.1-3.2,7.1-7.1V72.6c0-3.9-3.2-7.1-7.1-7.1h-51.6c-3.9,0-7.1,3.2-7.1,7.1v88.9
				C272.9,165.4,276.1,168.6,280.1,168.6z"/>
			<path class="st4" d="M271.1,168.6h51.6c3.9,0,7.1-3.2,7.1-7.1V72.6c0-3.9-3.2-7.1-7.1-7.1h-51.6c-3.9,0-7.1,3.2-7.1,7.1v88.9
				C263.9,165.4,267.1,168.6,271.1,168.6z"/>
			<g>
				<path class="st43" d="M312.1,172h-30.5c-2,0-3.6-1.6-3.6-3.6l0,0c0-2,1.6-3.6,3.6-3.6h30.5c2,0,3.6,1.6,3.6,3.6l0,0
					C315.7,170.4,314.1,172,312.1,172z"/>
				<path class="st43" d="M275.4,173.4L275.4,173.4c-1.4,0-2.5-1.1-2.5-2.5v-5.4c0-1.4,1.1-2.5,2.5-2.5l0,0c1.4,0,2.5,1.1,2.5,2.5
					v5.4C278,172.3,276.8,173.4,275.4,173.4z"/>
				<path class="st43" d="M318.5,173.4L318.5,173.4c-1.4,0-2.5-1.1-2.5-2.5v-5.4c0-1.4,1.1-2.5,2.5-2.5l0,0c1.4,0,2.5,1.1,2.5,2.5
					v5.4C321,172.3,319.9,173.4,318.5,173.4z"/>
			</g>
			<path class="st42" d="M276.6,132.5c0,0,7.4,2.6,20.3,2.6c13.7,0,20.3-2.6,20.3-2.6V98.2c0,0-8.2,2.6-20.3,2.6
				c-11.5,0-20.3-2.6-20.3-2.6l0,0V132.5z"/>
			<path class="st5" d="M306.6,84.3h-19.5c-2.2,0-4-1.8-4-4V56.2h27.4v24.1C310.6,82.5,308.8,84.3,306.6,84.3z M284.9,57.9v22.4
				c0,1.2,1,2.2,2.2,2.2h19.5c1.2,0,2.2-1,2.2-2.2V57.9H284.9z"/>
			<path class="st43" d="M312.8,58.3h-32.3c-1.1,0-2-0.9-2-2c0-1.1,0.9-2,2-2h32.3c1.1,0,2,0.9,2,2
				C314.8,57.4,313.9,58.3,312.8,58.3z"/>
		</g>
		<g>
			
				<ellipse transform="matrix(0.9765 -0.2153 0.2153 0.9765 -21.72 60.6418)" class="st5" cx="267.5" cy="130" rx="24.3" ry="24.3"/>
			<path class="st44" d="M253.8,150.1c3.3,2.2,7.1,3.7,11.4,4.1c13.3,1.3,25.2-8.5,26.5-21.8c0.6-6.5-1.4-12.6-5.1-17.3
				C285.1,142.4,265.5,148.7,253.8,150.1z"/>
			<path class="st45" d="M280.4,143.8c1.5,1,3.2,1.9,5.1,2.5c-0.4,0.5-0.9,0.9-1.3,1.3c-10.7-4-14.9-16.1-15.7-19
				c-0.5,0.2-1,0.3-1.5,0.3c-1.3,0.1-2.5,0.2-3.7,0.4c0.6,3.4,3.6,16.7,15.9,22c-0.6,0.3-1.3,0.7-2,1c-12-6-15-19.3-15.6-22.7
				c-4.2,0.6-7.7,1.5-10.5,2.5c0.3,2.8,2.2,14.2,13.4,22c-1.3-0.2-2.5-0.4-3.8-0.8c-8.7-7.6-10.8-17.3-11.2-20.6c-2.3,1-4.1,2-5.5,3
				c-0.1-0.6-0.3-1.2-0.4-1.9c4.2-2.8,11.4-5.7,23.2-6.6c1.2-0.1,2.3-0.8,3-1.8c0.5-0.9,1.1-2,1.6-3.5c-3-0.7-13.5-2.3-27.7,3.2
				c0.1-0.7,0.3-1.4,0.5-2c10.2-3.8,18.5-3.9,23.4-3.5c1.9,0.2,3.4,0.5,4.2,0.7c0.5-1.9,0.7-4.1,0.6-6.7c-2.5-0.3-11.6-1.1-24.2,1.5
				c0.6-0.7,1.2-1.4,1.8-2.1c10.5-1.9,18.4-1.5,21.7-1.2c0.2,0,0.4,0,0.5,0.1c-0.2-1.8-0.7-3.8-1.4-5.9c0.6,0.1,1.3,0.2,1.9,0.4
				c3.1,10,0.3,16.9-1.6,20c-0.3,0.6-0.8,1-1.3,1.4c0.2,0.8,1,3.6,2.6,6.8c2-1.8,8-8.3,8.5-24.7c0.6,0.4,1.1,0.8,1.7,1.2
				c-0.7,16.9-7.2,23.3-9.3,25c1.3,2.3,3.1,4.7,5.5,6.6c1.5-0.7,7.6-4.5,11.4-21.1c0.4,1.1,0.7,2.1,0.9,3.2
				C287.8,138,282.8,142.4,280.4,143.8z"/>
		</g>
		<g>
			<g>
				<path class="st14" d="M365.4,110.7H322V90.9c0-5.6,4.5-10.1,10.1-10.1h23.1c5.6,0,10.1,4.5,10.1,10.1V110.7z M325.6,107h36.2
					V90.9c0-3.6-2.9-6.5-6.5-6.5h-23.1c-3.6,0-6.5,2.9-6.5,6.5V107z"/>
				<path class="st46" d="M391,165.5h-94.6c-4.9,0-8.8-4-8.8-8.8v-54c0-4.9,4-8.8,8.8-8.8H391c4.9,0,8.8,4,8.8,8.8v54
					C399.8,161.5,395.9,165.5,391,165.5z"/>
				<path class="st14" d="M287.5,122.8v33.3c0,5.2,4.2,9.4,9.3,9.4h93.6c5.2,0,9.3-4.2,9.3-9.4v-31.6
					C354.4,142,313.7,133.2,287.5,122.8z"/>
				<g>
					<path class="st14" d="M399.8,108.8v-5.7c0-5.2-4.2-9.3-9.3-9.3h-2.7c0,0.3,0,0.5,0,0.8C387.8,101.7,393,107.7,399.8,108.8z"/>
					<path class="st14" d="M297.5,94.6c0-0.3,0-0.5,0-0.8h-0.5c-5.2,0-9.3,4.2-9.3,9.3v5.2C293.3,106.4,297.5,101,297.5,94.6z"/>
					<path class="st5" d="M399.8,156.1v-4.9c-6.8,1.2-12,7.1-12,14.3h2.7C395.6,165.5,399.8,161.3,399.8,156.1z"/>
					<path class="st47" d="M287.5,151.7v4.4c0,5.2,4.2,9.4,9.3,9.4h0.6C297.5,159.1,293.3,153.6,287.5,151.7z"/>
					<rect x="372.3" y="93.8" class="st5" width="3" height="71.7"/>
					<rect x="311.2" y="93.8" class="st5" width="3" height="71.7"/>
				</g>
			</g>
		</g>
		<g>
			<path class="st48" d="M371,131.3h2.4V123c0-0.3,0.2-0.5,0.5-0.5h22.1c0.3,0,0.5,0.2,0.5,0.5v5.1h2.4V123c0-1.6-1.3-2.9-2.9-2.9
				h-22.1c-1.6,0-2.9,1.3-2.9,2.9V131.3z"/>
			<g>
				<path class="st4" d="M364.7,165.5h42c3.1,0,5.7-2.5,5.7-5.7V133c0-3.1-2.5-5.7-5.7-5.7h-42c-3.1,0-5.7,2.5-5.7,5.7v26.9
					C359.1,162.9,361.6,165.5,364.7,165.5z"/>
			</g>
			<g>
				
					<ellipse transform="matrix(0.9225 -0.386 0.386 0.9225 -25.8977 163.7796)" class="st48" cx="395" cy="146.4" rx="13.9" ry="13.9"/>
				
					<ellipse transform="matrix(0.987 -0.1607 0.1607 0.987 -18.3958 65.3938)" class="st49" cx="395" cy="146.4" rx="11.3" ry="11.3"/>
				<path class="st50" d="M390.2,146.4c0,2.6,2.1,4.7,4.7,4.7c2.6,0,4.7-2.1,4.7-4.7c0-2.6-2.1-4.7-4.7-4.7
					C392.3,141.7,390.2,143.8,390.2,146.4z"/>
			</g>
			<g>
				<path class="st48" d="M364,137.8h12.4c0.7,0,1.2-0.5,1.2-1.2c0-0.7-0.5-1.2-1.2-1.2H364c-0.7,0-1.2,0.5-1.2,1.2
					C362.8,137.3,363.3,137.8,364,137.8z"/>
				<path class="st48" d="M364,143.2h12.4c0.7,0,1.2-0.5,1.2-1.2c0-0.7-0.5-1.2-1.2-1.2H364c-0.7,0-1.2,0.5-1.2,1.2
					C362.8,142.7,363.3,143.2,364,143.2z"/>
				<path class="st48" d="M364,148.6h12.4c0.7,0,1.2-0.5,1.2-1.2c0-0.7-0.5-1.2-1.2-1.2H364c-0.7,0-1.2,0.5-1.2,1.2
					C362.8,148,363.3,148.6,364,148.6z"/>
			</g>
		</g>
		<g>
			<g>
				<g>
					<path class="st51" d="M358.7,165.5H231c-2.5,0-4.6-2-4.6-4.6v-21.6c0-2.5,2-4.6,4.6-4.6h127.7c2.5,0,4.6,2,4.6,4.6v21.6
						C363.3,163.4,361.2,165.5,358.7,165.5z"/>
					<path class="st52" d="M226.5,159.3c0,3.4,2.8,6.2,6.2,6.2h124.5c3.4,0,6.2-2.8,6.2-6.2v-9.8H226.5V159.3z"/>
				</g>
				<g>
					<path class="st5" d="M253.1,153.9h-8.7c-2.1,0-3.8-1.7-3.8-3.8l0,0c0-2.1,1.7-3.8,3.8-3.8h8.7c2.1,0,3.8,1.7,3.8,3.8l0,0
						C256.9,152.2,255.2,153.9,253.1,153.9z"/>
					<path class="st5" d="M345.4,153.9h-8.7c-2.1,0-3.8-1.7-3.8-3.8l0,0c0-2.1,1.7-3.8,3.8-3.8h8.7c2.1,0,3.8,1.7,3.8,3.8l0,0
						C349.1,152.2,347.4,153.9,345.4,153.9z"/>
				</g>
			</g>
			<g>
				<path class="st53" d="M309.9,158.2h-30.2v-11.3c0-0.7,0.5-1.2,1.2-1.2c0.7,0,1.2,0.5,1.2,1.2v8.8h25.3v-8.8
					c0-0.7,0.5-1.2,1.2-1.2s1.2,0.5,1.2,1.2V158.2z"/>
				<path class="st53" d="M308.7,160H281c-1.7,0-3.1-1.4-3.1-3.1c0-1.7,1.4-3.1,3.1-3.1h27.7c1.7,0,3.1,1.4,3.1,3.1
					C311.8,158.6,310.4,160,308.7,160z"/>
			</g>
		</g>
	</g>
	<g>
		<path class="st5" d="M451.8,116.9l-12.5-3.9l-2.1,4.4l0,0l-1.8,3.8c-0.9-1.6-2.8-2.4-4.7-2c-2.3,0.5-3.8,2.8-3.3,5.2
			c0.5,2.3,2.8,3.8,5.2,3.3c1.4-0.3,2.4-1.2,3-2.4l0,0l0-0.1c0-0.1,0.1-0.1,0.1-0.2l3-6.9l9.1,3.6l-2.4,5.5c-1-1.5-2.7-2.3-4.6-1.9
			c-2.3,0.5-3.8,2.8-3.3,5.2c0.5,2.3,2.8,3.8,5.2,3.3c1.6-0.3,2.7-1.5,3.2-2.9L451.8,116.9z"/>
		<path class="st5" d="M421.9,102.2l-1.5-3.6l-5.1,2.1l-1.6,0.7l2,5.6c-0.6-0.1-1.3-0.1-1.9,0.2c-1.6,0.7-2.4,2.5-1.7,4.1
			c0.7,1.6,2.5,2.4,4.1,1.7c1.6-0.7,2.4-2.5,1.7-4.1c0,0,0,0,0,0l-1.6-4.7L421.9,102.2z"/>
		<path class="st5" d="M426.9,143.3l0.6-2.7l-3.7-0.9l-1.2-0.3l-1.2,4c-0.3-0.3-0.7-0.6-1.1-0.7c-1.2-0.3-2.4,0.4-2.6,1.6
			c-0.3,1.2,0.4,2.4,1.6,2.6c1.2,0.3,2.4-0.4,2.6-1.6c0,0,0,0,0,0l1.1-3.3L426.9,143.3z"/>
	</g>
</g>
</svg>
