<?xml version="1.0" encoding="utf-8"?>
<!-- Generator: Adobe Illustrator 19.0.0, SVG Export Plug-In . SVG Version: 6.00 Build 0)  -->
<svg version="1.1" id="Capa_1" xmlns="https://www.w3.org/2000/svg" xmlns:xlink="https://www.w3.org/1999/xlink" x="0px" y="0px"
	 viewBox="-267 390.9 60 60" style="enable-background:new -267 390.9 60 60;" xml:space="preserve">
<style type="text/css">
	.st0{fill:#EA5959;}
	.st1{fill:#1D3977;}
	.st2{fill:#FFFFFF;}
	.st3{fill:none;stroke:#1D3977;stroke-miterlimit:10;}
</style>
<rect x="-254.5" y="403.3" class="st0" width="32" height="14.6"/>
<g>
	<path class="st1" d="M-223.5,403.3v14.6h1v-14.6H-223.5z M-254.5,403.3v14.6h1v-14.6H-254.5z"/>
	<path class="st1" d="M-238.5,439.9c-2.2,0-4,1.8-4,4s1.8,4,4,4s4-1.8,4-4S-236.3,439.9-238.5,439.9z M-238.5,445.9
		c-1.1,0-2-0.9-2-2s0.9-2,2-2s2,0.9,2,2S-237.4,445.9-238.5,445.9z"/>
	<path class="st1" d="M-242.5,395.9h4c0.6,0,1-0.4,1-1c0-0.6-0.4-1-1-1h-4c-0.6,0-1,0.4-1,1C-243.5,395.4-243.1,395.9-242.5,395.9z"
		/>
	<path class="st1" d="M-235.5,395.9h1c0.6,0,1-0.4,1-1c0-0.6-0.4-1-1-1h-1c-0.6,0-1,0.4-1,1C-236.5,395.4-236.1,395.9-235.5,395.9z"
		/>
</g>
<path class="st2" d="M-223.3,450c-0.4,0.3-0.8,0.5-1.3,0.7C-224.1,450.5-223.7,450.3-223.3,450C-223.3,450-223.3,450-223.3,450z"/>
<rect x="-254.5" y="403.3" class="st3" width="32" height="14.6"/>
<path class="st1" d="M-240.5,443.9c0,1.1,0.9,2,2,2v2c-2.2,0-4-1.8-4-4s1.8-4,4-4v2C-239.6,441.9-240.5,442.8-240.5,443.9z"/>
<path class="st1" d="M-253.5,438.9v7.6c0,1.3,1.1,2.4,2.4,2.4h12.6v2h-12.6c-2.4,0-4.4-2-4.4-4.4v-23.9h2v14.3h15v2H-253.5z"/>
<path class="st1" d="M-225.9,390.9h-25.2c-2.4,0-4.4,2-4.4,4.4v27.3h2v-4.7h-1v-14.6h1v-4.4h30v4.4h1v14.6h-1v19h-15v2h15v7.6
	c0,0.4-0.1,0.8-0.3,1.1c-0.3,0.7-1,1.2-1.7,1.3c-0.1,0-0.3,0-0.4,0h-12.6v2h12.6c0.1,0,0.2,0,0.4,0c0.1,0,0.2,0,0.3,0
	c0.1,0,0.2,0,0.3-0.1c0.1,0,0.2,0,0.2-0.1c0.1,0,0.2,0,0.2-0.1c0.4-0.2,0.9-0.4,1.2-0.7c0,0,0,0,0,0c0.6-0.4,1-1,1.3-1.6
	c0.3-0.6,0.4-1.2,0.4-1.9v-51.2C-221.5,392.9-223.5,390.9-225.9,390.9z M-223.5,396.9h-30v-1.6c0-1.3,1.1-2.4,2.4-2.4h25.2
	c1.3,0,2.4,1.1,2.4,2.4V396.9z"/>
<path class="st1" d="M-223.3,450c-0.4,0.3-0.8,0.5-1.3,0.7C-224.1,450.5-223.7,450.3-223.3,450C-223.3,450-223.3,450-223.3,450z"/>
</svg>
