<?xml version="1.0" encoding="utf-8"?>
<!-- Generator: Adobe Illustrator 19.0.0, SVG Export Plug-In . SVG Version: 6.00 Build 0)  -->
<svg version="1.1" id="Capa_1" xmlns="https://www.w3.org/2000/svg" xmlns:xlink="https://www.w3.org/1999/xlink" x="0px" y="0px"
	 viewBox="-58 182.4 477.5 477.5" style="enable-background:new -58 182.4 477.5 477.5;" xml:space="preserve">
<style type="text/css">
	.st0{fill:#6DA8D6;}
	.st1{fill:#FCFCFC;}
	.st2{fill:#FFCC75;}
	.st3{fill:#203C51;}
</style>
<g>
	<rect x="24.8" y="491.3" class="st0" width="16" height="112"/>
	<path class="st1" d="M348.9,510.9l-147.6,25.7l6.5,6.5c5.8,5.8,9,13.5,9,21.7c0,16.9-13.7,30.6-30.6,30.6c-8.2,0-15.9-3.2-21.7-9
		L123.1,545l11.3-11.3l41.4,41.4c2.7,2.7,6.5,4.3,10.3,4.3c8.1,0,14.6-6.6,14.6-14.6c0-3.9-1.6-7.6-4.3-10.3l-63-63H56.8v96h24
		c1.2,0,2.5,0.3,3.6,0.8l87.2,43.6c3.1,1.5,6.7,1.4,9.7-0.3l174.5-101.8c3.1-1.8,5-5.2,5-8.8c0-3-1.3-5.8-3.6-7.8
		C354.9,511.2,351.9,510.4,348.9,510.9z"/>
</g>
<g>
	<circle class="st2" cx="108.8" cy="307.3" r="8"/>
	<path class="st2" d="M68.8,419.3c52.9,0,96-43.1,96-96s-43.1-96-96-96s-96,43.1-96,96S15.8,419.3,68.8,419.3z M108.8,283.3
		c13.2,0,24,10.8,24,24s-10.8,24-24,24s-24-10.8-24-24C84.8,294.1,95.5,283.3,108.8,283.3z M108.8,387.3h-16c0-13.2-10.8-24-24-24
		s-24,10.8-24,24h-16c0-22.1,17.9-40,40-40S108.8,365.3,108.8,387.3z M28.8,283.3c13.2,0,24,10.8,24,24s-10.8,24-24,24
		s-24-10.8-24-24C4.8,294.1,15.5,283.3,28.8,283.3z"/>
</g>
<circle class="st0" cx="344.8" cy="315.3" r="8"/>
<circle class="st2" cx="28.8" cy="307.3" r="8"/>
<g>
	<path class="st0" d="M304.8,235.3c-52.9,0-96,43.1-96,96s43.1,96,96,96s96-43.1,96-96S357.8,235.3,304.8,235.3z M240.9,315.3
		c0-13.2,10.8-24,24-24s24,10.8,24,24s-10.8,24-24,24S240.9,328.6,240.9,315.3z M304.8,403.3c-22.1,0-40-17.9-40-40h16
		c0,13.2,10.8,24,24,24s24-10.8,24-24h16C344.8,385.4,326.8,403.3,304.8,403.3z M344.8,339.3c-13.2,0-24-10.8-24-24s10.8-24,24-24
		s24,10.8,24,24S358,339.3,344.8,339.3z"/>
	<circle class="st0" cx="264.8" cy="315.3" r="8"/>
</g>
<rect x="-55.2" y="491.3" class="st0" width="64" height="112"/>
<g>
	<path class="st3" d="M346.1,495.2l-158.7,27.6l-45.1-45.1c-1.5-1.5-3.5-2.3-5.7-2.3h-88h-32h-72v16l0,0h64v112h-64l0,0v16h72h32
		c4.4,0,8-3.6,8-8v-8h22.1l85.5,42.8C168,648,172,649,176,649c4.5,0,9.1-1.2,13.2-3.6l174.5-101.8c8-4.7,13-13.3,13-22.6
		c0-7.7-3.4-15-9.3-20C361.5,495.9,353.8,493.8,346.1,495.2z M40.8,603.3h-16v-112h16V603.3z M355.8,529.7L181.3,631.5
		c-3,1.7-6.6,1.9-9.7,0.3l-87.2-43.6c-1.1-0.6-2.3-0.8-3.6-0.8h-24v-96h76.7l63,63c2.7,2.7,4.3,6.5,4.3,10.3
		c0,8.1-6.6,14.6-14.6,14.6c-3.8,0-7.6-1.6-10.3-4.3l-41.4-41.4L123.1,545l41.4,41.4c5.8,5.8,13.5,9,21.7,9
		c16.9,0,30.6-13.7,30.6-30.6c0-8.2-3.2-15.9-9-21.7l-6.5-6.5L349,510.9c3-0.5,6,0.3,8.3,2.2c2.3,1.9,3.6,4.8,3.6,7.8
		C360.8,524.5,358.8,527.9,355.8,529.7z"/>
	<path class="st3" d="M68.8,435.3c61.8,0,112-50.2,112-112s-50.2-112-112-112s-112,50.2-112,112S7,435.3,68.8,435.3z M68.8,227.3
		c52.9,0,96,43.1,96,96s-43.1,96-96,96s-96-43.1-96-96S15.8,227.3,68.8,227.3z"/>
	<path class="st3" d="M304.8,219.3c-61.8,0-112,50.2-112,112s50.2,112,112,112s112-50.2,112-112S366.5,219.3,304.8,219.3z
		 M304.8,427.3c-52.9,0-96-43.1-96-96s43.1-96,96-96s96,43.1,96,96S357.8,427.3,304.8,427.3z"/>
	<path class="st3" d="M28.8,331.3c13.2,0,24-10.8,24-24s-10.8-24-24-24s-24,10.8-24,24C4.8,320.6,15.5,331.3,28.8,331.3z
		 M28.8,299.3c4.4,0,8,3.6,8,8s-3.6,8-8,8s-8-3.6-8-8S24.4,299.3,28.8,299.3z"/>
	<path class="st3" d="M108.8,331.3c13.2,0,24-10.8,24-24s-10.8-24-24-24s-24,10.8-24,24C84.8,320.6,95.5,331.3,108.8,331.3z
		 M108.8,299.3c4.4,0,8,3.6,8,8s-3.6,8-8,8s-8-3.6-8-8S104.4,299.3,108.8,299.3z"/>
	<path class="st3" d="M288.8,315.3c0-13.2-10.8-24-24-24s-24,10.8-24,24s10.8,24,24,24C278,339.3,288.8,328.6,288.8,315.3z
		 M256.8,315.3c0-4.4,3.6-8,8-8s8,3.6,8,8s-3.6,8-8,8S256.8,319.8,256.8,315.3z"/>
	<path class="st3" d="M344.8,291.3c-13.2,0-24,10.8-24,24s10.8,24,24,24s24-10.8,24-24S358,291.3,344.8,291.3z M344.8,323.3
		c-4.4,0-8-3.6-8-8s3.6-8,8-8s8,3.6,8,8C352.8,319.8,349.3,323.3,344.8,323.3z"/>
	<path class="st3" d="M28.8,387.3h16c0-13.2,10.8-24,24-24s24,10.8,24,24h16c0-22.1-17.9-40-40-40S28.8,365.3,28.8,387.3z"/>
	<path class="st3" d="M304.8,387.3c-13.2,0-24-10.8-24-24h-16c0,22.1,17.9,40,40,40s40-17.9,40-40h-16
		C328.8,376.6,318,387.3,304.8,387.3z"/>
</g>
</svg>
