<?xml version="1.0" encoding="utf-8"?>
<!-- Generator: Adobe Illustrator 24.1.1, SVG Export Plug-In . SVG Version: 6.00 Build 0)  -->
<svg version="1.1" id="Layer_1" xmlns="http://www.w3.org/2000/svg" xmlns:xlink="http://www.w3.org/1999/xlink" x="0px" y="0px"
	 viewBox="0 0 512 512" style="enable-background:new 0 0 512 512;" xml:space="preserve">
<g id="Page-1">
	<g id="_x30_12---Stacked-Boxes">
		<path id="Shape" d="M411.7,221.9H353c3-3.3,4.7-7.5,4.7-12V96c0-9.9-8.1-18-18-18H225.9c-4.6,0-9,1.8-12.3,4.9l-55.2,38.8
			c-6.3,2.9-10.4,9.3-10.4,16.3v83.9c-4.6,0-9,1.8-12.3,4.9l-55.2,38.8c-6.3,2.9-10.4,9.3-10.4,16.3v119.9c0,9.9,8.1,18,18,18h125.9
			c4.4,0,8.7-1.7,12-4.7c3.3,3,7.6,4.7,12,4.7h125.9c4.9,0,9.5-2,12.9-5.5l47.7-47.7c3.4-3.4,5.3-8,5.3-12.7V239.9
			C429.6,229.9,421.6,221.9,411.7,221.9z M371.7,265.8c-2.5-1.3-5.2-1.9-8-2h-52.5l30-30h67.1L371.7,265.8z M213.9,263.8h-48
			c-3.3,0-6-2.7-6-6V137.9c0-3.3,2.7-6,6-6h125.9c3.3,0,6,2.7,6,6v119.9c0,1.6-0.6,3.1-1.7,4.2l-0.1,0.1c-1.1,1.1-2.6,1.7-4.2,1.7
			H213.9z M308.1,130.5l37.6-32.9v112.2c0,1.6-0.7,3.1-1.8,4.2l-34.2,34.2V137.9C309.8,135.4,309.2,132.9,308.1,130.5z M299.8,121.9
			c-2.5-1.3-5.2-1.9-8-2h-42.5l38.5-30h48.4L299.8,121.9z M220.8,92.4c0.3-0.2,0.6-0.5,0.8-0.7c1.1-1.1,2.6-1.7,4.2-1.7l42.5,0
			l-38.5,30h-48.1L220.8,92.4z M142.9,236.3c0.3-0.2,0.6-0.5,0.8-0.7c1.1-1.1,2.6-1.7,4.2-1.7v24c0,2,0.4,4.1,1.1,6h-45.3
			L142.9,236.3z M88,407.7c-3.3,0-6-2.7-6-6V281.8c0-3.3,2.7-6,6-6h125.9c3.3,0,6,2.7,6,6v119.9c0,1.6-0.6,3.1-1.7,4.2L218,406
			c-1.1,1.1-2.6,1.7-4.2,1.7H88z M237.8,407.7c-3.3,0-6-2.7-6-6V281.8c0-3.3,2.7-6,6-6h125.9c3.3,0,6,2.7,6,6v119.9
			c0,1.5-0.6,3-1.7,4.1l-0.1,0.1l-0.1,0.1c-1.1,1.1-2.6,1.7-4.1,1.7H237.8z M415.9,358l-34.2,34.2V281.8c0-2.6-0.6-5.1-1.6-7.4
			l37.6-32.9v112.2C417.7,355.3,417,356.9,415.9,358z"/>
		<path id="Shape_1_" d="M207.9,215.9h-24c-6.6,0-12,5.4-12,12v12c0,6.6,5.4,12,12,12h24c6.6,0,12-5.4,12-12v-12
			C219.9,221.2,214.5,215.9,207.9,215.9z M183.9,239.9v-12h24v12H183.9z"/>
		<path id="Shape_2_" d="M279.8,215.9h-18c-3.3,0-6,2.7-6,6c0,3.3,2.7,6,6,6h18c3.3,0,6-2.7,6-6
			C285.8,218.6,283.1,215.9,279.8,215.9z"/>
		<path id="Shape_3_" d="M279.8,239.9h-18c-3.3,0-6,2.7-6,6c0,3.3,2.7,6,6,6h18c3.3,0,6-2.7,6-6
			C285.8,242.5,283.1,239.9,279.8,239.9z"/>
		<path id="Shape_4_" d="M129.9,359.8h-24c-6.6,0-12,5.4-12,12v12c0,6.6,5.4,12,12,12h24c6.6,0,12-5.4,12-12v-12
			C141.9,365.1,136.6,359.8,129.9,359.8z M106,383.7v-12h24v12H106z"/>
		<path id="Shape_5_" d="M201.9,359.8h-18c-3.3,0-6,2.7-6,6s2.7,6,6,6h18c3.3,0,6-2.7,6-6S205.2,359.8,201.9,359.8z"/>
		<path id="Shape_6_" d="M201.9,383.7h-18c-3.3,0-6,2.7-6,6s2.7,6,6,6h18c3.3,0,6-2.7,6-6S205.2,383.7,201.9,383.7z"/>
		<path id="Shape_7_" d="M279.8,359.8h-24c-6.6,0-12,5.4-12,12v12c0,6.6,5.4,12,12,12h24c6.6,0,12-5.4,12-12v-12
			C291.8,365.1,286.4,359.8,279.8,359.8z M255.8,383.7v-12h24v12H255.8z"/>
		<path id="Shape_8_" d="M351.7,359.8h-18c-3.3,0-6,2.7-6,6s2.7,6,6,6h18c3.3,0,6-2.7,6-6S355.1,359.8,351.7,359.8z"/>
		<path id="Shape_9_" d="M351.7,383.7h-18c-3.3,0-6,2.7-6,6s2.7,6,6,6h18c3.3,0,6-2.7,6-6S355.1,383.7,351.7,383.7z"/>
	</g>
</g>
</svg>
